<svg width="38" height="38" viewBox="0 0 38 38" fill="none" xmlns="http://www.w3.org/2000/svg">
<path d="M27.8316 7.01653L24.665 5.35474C21.8853 3.896 20.4954 3.16663 19.0003 3.16663C17.5051 3.16663 16.1153 3.896 13.3356 5.35474L12.8262 5.62206L26.9543 13.6953L33.3141 10.5154C32.2909 9.35665 30.6401 8.49033 27.8316 7.01653Z" fill="white"/>
<path d="M34.435 12.6102L28.1042 15.7756V20.5834C28.1042 21.2392 27.5725 21.7709 26.9167 21.7709C26.2608 21.7709 25.7292 21.2392 25.7292 20.5834V16.9631L20.1875 19.7339V34.6814C21.3242 34.3983 22.6176 33.7195 24.6647 32.6452L27.8314 30.9835C31.2382 29.1956 32.9416 28.3018 33.8874 26.6955C34.8333 25.0892 34.8333 23.0902 34.8333 19.0926V18.9074C34.8333 15.9108 34.8333 14.0372 34.435 12.6102Z" fill="white"/>
<path d="M17.8128 34.6814V19.7339L3.56542 12.6102C3.16699 14.0372 3.16699 15.9108 3.16699 18.9074V19.0926C3.16699 23.0902 3.16699 25.0892 4.11288 26.6955C5.05874 28.3018 6.76214 29.1956 10.1689 30.9835L13.3356 32.6452C15.3828 33.7195 16.6762 34.3983 17.8128 34.6814Z" fill="white"/>
<path d="M4.68652 10.5155L19.0003 17.6724L24.4014 14.9719L10.3309 6.93164L10.169 7.01662C7.36055 8.49042 5.70969 9.35674 4.68652 10.5155Z" fill="white"/>
</svg>
