<svg width="17" height="20" viewBox="0 0 17 20" fill="none" xmlns="http://www.w3.org/2000/svg">
<path d="M13.8403 14.2146C13.8376 14.2135 13.8349 14.2124 13.8321 14.2113C13.4752 14.0767 13.126 13.9779 12.8185 13.8937C12.6137 13.8378 12.4294 13.7884 12.2743 13.7411C12.096 12.8214 12.2511 11.3136 12.993 9.08754C13.4783 7.6316 15.8241 0 8.41427 0C1.00443 0 3.51388 7.5868 3.83552 9.08754C4.23392 10.9466 4.81962 12.8662 4.57826 13.7135C4.21505 13.8399 3.8033 14.0049 3.37349 14.2575C1.88201 13.9382 -0.401626 15.4008 0.0606786 18.1751C0.108179 18.5066 0.806694 18.7876 1.80201 19.0145C1.87818 19.0423 1.9533 19.0707 2.03576 19.0986C3.42431 19.5683 5.71146 19.9992 8.41427 20C10.6783 19.9997 12.5892 19.7059 13.9531 19.337C14.295 19.2444 14.6019 19.1472 14.873 19.0481C15.9492 18.8157 16.7181 18.5235 16.7678 18.1751C17.1919 15.6307 15.3064 14.19 13.8403 14.2146ZM12.4338 17.3363C12.224 17.3363 10.3716 16.6866 8.41427 17.4556C6.45697 16.6866 4.60451 17.3363 4.39478 17.3363C4.22794 17.3363 4.06248 15.5218 3.8249 14.7105C4.42892 14.3814 4.99798 14.2282 5.47556 14.0611C5.78931 13.9491 6.05173 13.8309 6.25845 13.6341C6.36087 13.5357 6.44552 13.4156 6.49959 13.2799C6.55392 13.1442 6.57822 12.9962 6.57794 12.8419C6.57794 12.5156 6.57794 12.1076 6.57794 11.5487V11.4304L6.49904 11.3428C6.07962 10.8756 5.51162 10.2557 5.31474 9.15336L5.28361 8.97723L5.11541 8.91715C5.00834 8.87891 4.92673 8.83984 4.85544 8.79043C4.75033 8.71617 4.65501 8.61488 4.54357 8.40707C4.43357 8.20066 4.31693 7.89234 4.18943 7.44481C4.13345 7.24902 4.11353 7.09695 4.11353 6.98391C4.1138 6.85281 4.13892 6.77582 4.16462 6.7275C4.20337 6.65703 4.25091 6.62703 4.31154 6.60273C4.35302 6.58691 4.39701 6.5809 4.42212 6.57871L4.72001 6.64207C4.83115 6.81902 4.88412 6.99051 4.88412 6.99051C4.88412 6.99051 4.67439 6.36137 5.23365 5.52254C5.77869 4.705 8.11693 5.41332 9.59419 3.3132C11.0379 5.01629 11.0704 3.89703 11.5949 4.68367C12.1542 5.52254 11.9445 6.99051 11.9445 6.99051C11.9445 6.99051 12.0056 6.795 12.1329 6.60605L12.3915 6.57848C12.4109 6.57793 12.5089 6.5875 12.5736 6.63063C12.6088 6.65301 12.6375 6.67922 12.6637 6.72758C12.6894 6.77594 12.7145 6.85266 12.7151 6.98398C12.7151 7.09703 12.6948 7.24887 12.6391 7.44488C12.4695 8.04234 12.3174 8.38969 12.1779 8.58246C12.108 8.67965 12.0441 8.74082 11.9731 8.79051C11.9018 8.83996 11.8202 8.87898 11.7132 8.91723L11.545 8.9773L11.5139 9.15344C11.317 10.2558 10.749 10.8757 10.3296 11.3429L10.2507 11.4305V11.5487C10.2507 12.108 10.2507 12.5157 10.2507 12.842C10.2501 13.0449 10.329 13.227 10.4372 13.3725C10.6007 13.5921 10.8279 13.7546 11.0753 13.8963C11.3232 14.0372 11.5944 14.153 11.8494 14.2486C12.1542 14.3616 12.5425 14.4506 12.967 14.5746C12.9911 14.5817 13.0157 14.5893 13.0397 14.5964C12.7825 15.3353 12.6088 17.3363 12.4338 17.3363Z" fill="#360F22"/>
</svg>
