<svg width="29" height="30" viewBox="0 0 29 30" fill="none" xmlns="http://www.w3.org/2000/svg">
<path d="M4.75 6.6875H19" stroke="white" stroke-width="2.41458" stroke-linecap="round"/>
<path d="M4.75 15H11.875" stroke="white" stroke-width="2.41458" stroke-linecap="round"/>
<path d="M16.625 15H23.75" stroke="white" stroke-width="2.41458" stroke-linecap="round"/>
<path d="M9.5 23.3125H23.75" stroke="white" stroke-width="2.41458" stroke-linecap="round"/>
<path d="M21.375 9.0625C22.6867 9.0625 23.75 7.99918 23.75 6.6875C23.75 5.37582 22.6867 4.3125 21.375 4.3125C20.0633 4.3125 19 5.37582 19 6.6875C19 7.99918 20.0633 9.0625 21.375 9.0625Z" stroke="white" stroke-width="2.41458" stroke-linecap="round"/>
<path d="M14.25 17.375C15.5617 17.375 16.625 16.3117 16.625 15C16.625 13.6883 15.5617 12.625 14.25 12.625C12.9383 12.625 11.875 13.6883 11.875 15C11.875 16.3117 12.9383 17.375 14.25 17.375Z" stroke="white" stroke-width="2.41458" stroke-linecap="round"/>
<path d="M7.125 25.6875C8.43668 25.6875 9.5 24.6242 9.5 23.3125C9.5 22.0008 8.43668 20.9375 7.125 20.9375C5.81332 20.9375 4.75 22.0008 4.75 23.3125C4.75 24.6242 5.81332 25.6875 7.125 25.6875Z" stroke="white" stroke-width="2.41458" stroke-linecap="round"/>
</svg>
