<svg width="150" height="156" viewBox="0 0 150 156" fill="none" xmlns="http://www.w3.org/2000/svg">
<path d="M141.27 141.75V145.02C141.27 145.219 141.349 145.41 141.489 145.55C141.63 145.691 141.821 145.77 142.02 145.77C142.218 145.77 142.409 145.691 142.55 145.55C142.691 145.41 142.77 145.219 142.77 145.02V141.75C142.77 141.551 142.691 141.36 142.55 141.22C142.409 141.079 142.218 141 142.02 141C141.821 141 141.63 141.079 141.489 141.22C141.349 141.36 141.27 141.551 141.27 141.75Z" fill="#C06EF2"/>
<path d="M141.27 151.03V154.3C141.27 154.499 141.349 154.69 141.489 154.83C141.63 154.971 141.821 155.05 142.02 155.05C142.218 155.05 142.409 154.971 142.55 154.83C142.691 154.69 142.77 154.499 142.77 154.3V151.03C142.77 150.831 142.691 150.64 142.55 150.5C142.409 150.359 142.218 150.28 142.02 150.28C141.821 150.28 141.63 150.359 141.489 150.5C141.349 150.64 141.27 150.831 141.27 151.03Z" fill="#C06EF2"/>
<path d="M143.62 146.43C143.761 146.571 143.951 146.65 144.15 146.65C144.348 146.646 144.537 146.567 144.68 146.43L146.99 144.12C147.131 143.979 147.209 143.789 147.209 143.59C147.209 143.391 147.131 143.201 146.99 143.06C146.921 142.989 146.839 142.933 146.748 142.895C146.657 142.856 146.559 142.836 146.46 142.836C146.361 142.836 146.263 142.856 146.172 142.895C146.081 142.933 145.999 142.989 145.93 143.06L143.62 145.37C143.549 145.439 143.493 145.521 143.455 145.612C143.416 145.703 143.396 145.801 143.396 145.9C143.396 145.999 143.416 146.097 143.455 146.188C143.493 146.279 143.549 146.361 143.62 146.43Z" fill="#C06EF2"/>
<path d="M148.29 147.27H145.03C144.831 147.27 144.641 147.349 144.5 147.49C144.359 147.63 144.28 147.821 144.28 148.02C144.28 148.219 144.359 148.41 144.5 148.55C144.641 148.691 144.831 148.77 145.03 148.77H148.29C148.489 148.77 148.68 148.691 148.821 148.55C148.961 148.41 149.04 148.219 149.04 148.02C149.04 147.821 148.961 147.63 148.821 147.49C148.68 147.349 148.489 147.27 148.29 147.27Z" fill="#C06EF2"/>
<path d="M144.68 149.61C144.539 149.47 144.349 149.391 144.15 149.391C143.951 149.391 143.761 149.47 143.62 149.61C143.549 149.679 143.493 149.761 143.455 149.852C143.416 149.943 143.396 150.041 143.396 150.14C143.396 150.239 143.416 150.337 143.455 150.428C143.493 150.519 143.549 150.601 143.62 150.67L145.93 152.98C145.998 153.051 146.081 153.108 146.172 153.146C146.263 153.184 146.361 153.202 146.46 153.2C146.559 153.2 146.656 153.181 146.747 153.143C146.838 153.106 146.921 153.05 146.99 152.98C147.131 152.839 147.209 152.649 147.209 152.45C147.209 152.251 147.131 152.061 146.99 151.92L144.68 149.61Z" fill="#C06EF2"/>
<path d="M139.37 149.61L137.06 151.92C136.99 151.989 136.933 152.071 136.895 152.162C136.857 152.253 136.837 152.351 136.837 152.45C136.837 152.549 136.857 152.646 136.895 152.737C136.933 152.828 136.99 152.911 137.06 152.98C137.129 153.051 137.211 153.108 137.302 153.146C137.394 153.184 137.492 153.202 137.59 153.2C137.689 153.2 137.787 153.181 137.878 153.143C137.969 153.105 138.051 153.05 138.12 152.98L140.43 150.67C140.504 150.601 140.563 150.518 140.604 150.426C140.645 150.334 140.667 150.235 140.669 150.134C140.671 150.034 140.652 149.934 140.615 149.84C140.577 149.747 140.521 149.662 140.45 149.591C140.378 149.52 140.293 149.463 140.2 149.426C140.107 149.388 140.007 149.369 139.906 149.371C139.805 149.373 139.706 149.395 139.614 149.436C139.522 149.477 139.439 149.536 139.37 149.61Z" fill="#C06EF2"/>
<path d="M139.02 148.77C139.219 148.77 139.41 148.691 139.55 148.55C139.691 148.41 139.77 148.219 139.77 148.02C139.77 147.821 139.691 147.63 139.55 147.49C139.41 147.349 139.219 147.27 139.02 147.27H135.75C135.551 147.27 135.36 147.349 135.22 147.49C135.079 147.63 135 147.821 135 148.02C135 148.219 135.079 148.41 135.22 148.55C135.36 148.691 135.551 148.77 135.75 148.77H139.02Z" fill="#C06EF2"/>
<path d="M137.06 143.06C136.99 143.129 136.933 143.211 136.895 143.302C136.857 143.393 136.837 143.491 136.837 143.59C136.837 143.689 136.857 143.787 136.895 143.878C136.933 143.969 136.99 144.051 137.06 144.12L139.37 146.43C139.512 146.569 139.702 146.648 139.9 146.65C140.098 146.646 140.288 146.567 140.43 146.43C140.571 146.289 140.65 146.099 140.65 145.9C140.65 145.701 140.571 145.511 140.43 145.37L138.12 143.06C138.052 142.989 137.969 142.933 137.878 142.895C137.787 142.856 137.689 142.836 137.59 142.836C137.492 142.836 137.394 142.856 137.303 142.895C137.212 142.933 137.129 142.989 137.06 143.06Z" fill="#C06EF2"/>
<path d="M26.2695 78.75V82.02C26.2695 82.2189 26.3485 82.4097 26.4892 82.5503C26.6299 82.691 26.8206 82.77 27.0195 82.77C27.2184 82.77 27.4092 82.691 27.5499 82.5503C27.6905 82.4097 27.7695 82.2189 27.7695 82.02V78.75C27.7695 78.5511 27.6905 78.3603 27.5499 78.2197C27.4092 78.079 27.2184 78 27.0195 78C26.8206 78 26.6299 78.079 26.4892 78.2197C26.3485 78.3603 26.2695 78.5511 26.2695 78.75Z" fill="#658DDE"/>
<path d="M26.2695 88.03V91.3C26.2695 91.4989 26.3485 91.6897 26.4892 91.8304C26.6299 91.971 26.8206 92.05 27.0195 92.05C27.2184 92.05 27.4092 91.971 27.5499 91.8304C27.6905 91.6897 27.7695 91.4989 27.7695 91.3V88.03C27.7695 87.8311 27.6905 87.6404 27.5499 87.4997C27.4092 87.359 27.2184 87.28 27.0195 87.28C26.8206 87.28 26.6299 87.359 26.4892 87.4997C26.3485 87.6404 26.2695 87.8311 26.2695 88.03Z" fill="#658DDE"/>
<path d="M28.6201 83.43C28.7606 83.5707 28.9512 83.6498 29.1501 83.65C29.3481 83.6457 29.5372 83.5672 29.6801 83.43L31.9901 81.12C32.1305 80.9794 32.2094 80.7887 32.2094 80.59C32.2094 80.3912 32.1305 80.2006 31.9901 80.06C31.9211 79.9892 31.8387 79.933 31.7477 79.8946C31.6566 79.8562 31.5588 79.8364 31.4601 79.8364C31.3613 79.8364 31.2635 79.8562 31.1724 79.8946C31.0814 79.933 30.999 79.9892 30.9301 80.06L28.6201 82.37C28.5493 82.4389 28.4931 82.5214 28.4547 82.6124C28.4163 82.7034 28.3965 82.8012 28.3965 82.9C28.3965 82.9988 28.4163 83.0966 28.4547 83.1876C28.4931 83.2786 28.5493 83.361 28.6201 83.43Z" fill="#658DDE"/>
<path d="M33.2903 84.27H30.0303C29.8314 84.27 29.6406 84.349 29.4999 84.4897C29.3593 84.6303 29.2803 84.8211 29.2803 85.02C29.2803 85.2189 29.3593 85.4097 29.4999 85.5504C29.6406 85.691 29.8314 85.77 30.0303 85.77H33.2903C33.4892 85.77 33.68 85.691 33.8206 85.5504C33.9613 85.4097 34.0403 85.2189 34.0403 85.02C34.0403 84.8211 33.9613 84.6303 33.8206 84.4897C33.68 84.349 33.4892 84.27 33.2903 84.27Z" fill="#658DDE"/>
<path d="M29.6801 86.61C29.5394 86.4695 29.3488 86.3906 29.1501 86.3906C28.9513 86.3906 28.7607 86.4695 28.6201 86.61C28.5493 86.6789 28.4931 86.7613 28.4547 86.8524C28.4163 86.9434 28.3965 87.0412 28.3965 87.14C28.3965 87.2388 28.4163 87.3366 28.4547 87.4276C28.4931 87.5186 28.5493 87.601 28.6201 87.67L30.9301 89.98C30.9982 90.0515 31.0806 90.108 31.1718 90.1459C31.2631 90.1838 31.3613 90.2022 31.4601 90.2C31.5586 90.2004 31.6562 90.1812 31.7472 90.1434C31.8383 90.1057 31.9208 90.0501 31.9901 89.98C32.1305 89.8393 32.2094 89.6487 32.2094 89.45C32.2094 89.2512 32.1305 89.0606 31.9901 88.92L29.6801 86.61Z" fill="#658DDE"/>
<path d="M24.3705 86.6098L22.0605 88.9198C21.9897 88.9887 21.9335 89.0712 21.8951 89.1622C21.8567 89.2532 21.8369 89.351 21.8369 89.4498C21.8369 89.5486 21.8567 89.6464 21.8951 89.7374C21.9335 89.8284 21.9897 89.9109 22.0605 89.9798C22.1287 90.0513 22.211 90.1079 22.3023 90.1457C22.3935 90.1836 22.4917 90.202 22.5905 90.1998C22.689 90.2003 22.7867 90.181 22.8777 90.1433C22.9687 90.1055 23.0512 90.0499 23.1205 89.9798L25.4305 87.6698C25.5042 87.6011 25.5633 87.5183 25.6043 87.4263C25.6453 87.3343 25.6673 87.235 25.6691 87.1343C25.6709 87.0336 25.6523 86.9336 25.6146 86.8402C25.5769 86.7468 25.5207 86.662 25.4495 86.5908C25.3783 86.5195 25.2935 86.4634 25.2001 86.4257C25.1067 86.388 25.0067 86.3694 24.906 86.3712C24.8053 86.373 24.7059 86.395 24.6139 86.436C24.5219 86.477 24.4391 86.5361 24.3705 86.6098Z" fill="#658DDE"/>
<path d="M24.02 85.77C24.2189 85.77 24.4097 85.691 24.5503 85.5504C24.691 85.4097 24.77 85.2189 24.77 85.02C24.77 84.8211 24.691 84.6303 24.5503 84.4897C24.4097 84.349 24.2189 84.27 24.02 84.27H20.75C20.5511 84.27 20.3603 84.349 20.2197 84.4897C20.079 84.6303 20 84.8211 20 85.02C20 85.2189 20.079 85.4097 20.2197 85.5504C20.3603 85.691 20.5511 85.77 20.75 85.77H24.02Z" fill="#658DDE"/>
<path d="M22.0605 80.06C21.9897 80.1289 21.9335 80.2114 21.8951 80.3024C21.8567 80.3934 21.8369 80.4912 21.8369 80.59C21.8369 80.6888 21.8567 80.7866 21.8951 80.8776C21.9335 80.9686 21.9897 81.0511 22.0605 81.12L24.3705 83.43C24.5122 83.5689 24.7021 83.6477 24.9005 83.65C25.0985 83.6457 25.2876 83.5672 25.4305 83.43C25.5709 83.2894 25.6498 83.0987 25.6498 82.9C25.6498 82.7012 25.5709 82.5106 25.4305 82.37L23.1205 80.06C23.0515 79.9892 22.9691 79.933 22.8781 79.8946C22.7871 79.8562 22.6893 79.8364 22.5905 79.8364C22.4917 79.8364 22.3939 79.8562 22.3029 79.8946C22.2118 79.933 22.1294 79.9892 22.0605 80.06Z" fill="#658DDE"/>
<path d="M67.2695 0.75V4.02C67.2695 4.21891 67.3485 4.40968 67.4892 4.55033C67.6299 4.69098 67.8206 4.77 68.0195 4.77C68.2184 4.77 68.4092 4.69098 68.5499 4.55033C68.6905 4.40968 68.7695 4.21891 68.7695 4.02V0.75C68.7695 0.551088 68.6905 0.360322 68.5499 0.219669C68.4092 0.0790171 68.2184 0 68.0195 0C67.8206 0 67.6299 0.0790171 67.4892 0.219669C67.3485 0.360322 67.2695 0.551088 67.2695 0.75Z" fill="#F8D51E"/>
<path d="M67.2695 10.03V13.3C67.2695 13.4989 67.3485 13.6897 67.4892 13.8304C67.6299 13.971 67.8206 14.05 68.0195 14.05C68.2184 14.05 68.4092 13.971 68.5499 13.8304C68.6905 13.6897 68.7695 13.4989 68.7695 13.3V10.03C68.7695 9.83112 68.6905 9.64035 68.5499 9.4997C68.4092 9.35905 68.2184 9.28003 68.0195 9.28003C67.8206 9.28003 67.6299 9.35905 67.4892 9.4997C67.3485 9.64035 67.2695 9.83112 67.2695 10.03Z" fill="#F8D51E"/>
<path d="M69.6201 5.43C69.7606 5.57069 69.9512 5.64982 70.1501 5.65C70.3481 5.64569 70.5372 5.56717 70.6801 5.43L72.9901 3.12C73.1305 2.97937 73.2094 2.78875 73.2094 2.59C73.2094 2.39125 73.1305 2.20062 72.9901 2.06C72.9211 1.98924 72.8387 1.933 72.7477 1.89461C72.6566 1.85621 72.5588 1.83643 72.4601 1.83643C72.3613 1.83643 72.2635 1.85621 72.1724 1.89461C72.0814 1.933 71.999 1.98924 71.9301 2.06L69.6201 4.37C69.5493 4.43894 69.4931 4.52136 69.4547 4.61238C69.4163 4.70341 69.3965 4.8012 69.3965 4.9C69.3965 4.99879 69.4163 5.09658 69.4547 5.18761C69.4931 5.27863 69.5493 5.36105 69.6201 5.43Z" fill="#F8D51E"/>
<path d="M74.2903 6.27002H71.0303C70.8314 6.27002 70.6406 6.34904 70.4999 6.48969C70.3593 6.63034 70.2803 6.82111 70.2803 7.02002C70.2803 7.21893 70.3593 7.4097 70.4999 7.55035C70.6406 7.691 70.8314 7.77002 71.0303 7.77002H74.2903C74.4892 7.77002 74.68 7.691 74.8206 7.55035C74.9613 7.4097 75.0403 7.21893 75.0403 7.02002C75.0403 6.82111 74.9613 6.63034 74.8206 6.48969C74.68 6.34904 74.4892 6.27002 74.2903 6.27002Z" fill="#F8D51E"/>
<path d="M70.6801 8.60996C70.5394 8.46951 70.3488 8.39062 70.1501 8.39062C69.9513 8.39062 69.7607 8.46951 69.6201 8.60996C69.5493 8.67891 69.4931 8.76133 69.4547 8.85235C69.4163 8.94338 69.3965 9.04117 69.3965 9.13997C69.3965 9.23876 69.4163 9.33655 69.4547 9.42758C69.4931 9.5186 69.5493 9.60102 69.6201 9.66996L71.9301 11.98C71.9982 12.0515 72.0806 12.108 72.1718 12.1459C72.2631 12.1838 72.3613 12.2022 72.4601 12.2C72.5586 12.2004 72.6562 12.1812 72.7472 12.1434C72.8383 12.1057 72.9208 12.0501 72.9901 11.98C73.1305 11.8393 73.2094 11.6487 73.2094 11.45C73.2094 11.2512 73.1305 11.0606 72.9901 10.92L70.6801 8.60996Z" fill="#F8D51E"/>
<path d="M65.3705 8.6098L63.0605 10.9198C62.9897 10.9887 62.9335 11.0712 62.8951 11.1622C62.8567 11.2532 62.8369 11.351 62.8369 11.4498C62.8369 11.5486 62.8567 11.6464 62.8951 11.7374C62.9335 11.8284 62.9897 11.9109 63.0605 11.9798C63.1287 12.0513 63.211 12.1079 63.3023 12.1457C63.3935 12.1836 63.4917 12.202 63.5905 12.1998C63.689 12.2003 63.7867 12.181 63.8777 12.1433C63.9687 12.1055 64.0512 12.0499 64.1205 11.9798L66.4305 9.6698C66.5042 9.60114 66.5633 9.51834 66.6043 9.42634C66.6453 9.33434 66.6673 9.23503 66.6691 9.13433C66.6709 9.03362 66.6523 8.93359 66.6146 8.8402C66.5769 8.74682 66.5207 8.66198 66.4495 8.59076C66.3783 8.51954 66.2935 8.4634 66.2001 8.42568C66.1067 8.38796 66.0067 8.36943 65.906 8.37121C65.8053 8.37299 65.7059 8.39503 65.6139 8.43602C65.5219 8.47701 65.4391 8.53612 65.3705 8.6098Z" fill="#F8D51E"/>
<path d="M65.02 7.77002C65.2189 7.77002 65.4097 7.691 65.5503 7.55035C65.691 7.4097 65.77 7.21893 65.77 7.02002C65.77 6.82111 65.691 6.63034 65.5503 6.48969C65.4097 6.34904 65.2189 6.27002 65.02 6.27002H61.75C61.5511 6.27002 61.3603 6.34904 61.2197 6.48969C61.079 6.63034 61 6.82111 61 7.02002C61 7.21893 61.079 7.4097 61.2197 7.55035C61.3603 7.691 61.5511 7.77002 61.75 7.77002H65.02Z" fill="#F8D51E"/>
<path d="M63.0605 2.06C62.9897 2.12894 62.9335 2.21136 62.8951 2.30238C62.8567 2.39341 62.8369 2.4912 62.8369 2.59C62.8369 2.68879 62.8567 2.78658 62.8951 2.87761C62.9335 2.96863 62.9897 3.05105 63.0605 3.12L65.3705 5.43C65.5122 5.56888 65.7021 5.64769 65.9005 5.65C66.0985 5.64569 66.2876 5.56717 66.4305 5.43C66.5709 5.28937 66.6498 5.09875 66.6498 4.9C66.6498 4.70125 66.5709 4.51062 66.4305 4.37L64.1205 2.06C64.0515 1.98924 63.9691 1.933 63.8781 1.89461C63.7871 1.85621 63.6893 1.83643 63.5905 1.83643C63.4917 1.83643 63.3939 1.85621 63.3029 1.89461C63.2118 1.933 63.1294 1.98924 63.0605 2.06Z" fill="#F8D51E"/>
<circle cx="98.5" cy="43.5" r="2.5" fill="#779ADF"/>
<circle cx="17.5" cy="27.5" r="2.5" fill="#E89EBB"/>
<circle cx="124" cy="73" r="3.5" stroke="#E39999"/>
<circle cx="56" cy="38" r="3.5" stroke="#8EE297"/>
<circle cx="20.5" cy="118.5" r="2" stroke="#C06EF2"/>
<circle cx="2.5" cy="63.5" r="2" stroke="#EEDB98"/>
<circle cx="137.5" cy="14.5" r="2" stroke="#F9D6CE"/>
</svg>
