<svg width="150" height="157" viewBox="0 0 150 157" fill="none" xmlns="http://www.w3.org/2000/svg">
<path d="M7.77075 142.75V146.02C7.77075 146.219 7.69173 146.41 7.55108 146.55C7.41043 146.691 7.21966 146.77 7.02075 146.77C6.82184 146.77 6.63107 146.691 6.49042 146.55C6.34977 146.41 6.27075 146.219 6.27075 146.02V142.75C6.27075 142.551 6.34977 142.36 6.49042 142.22C6.63107 142.079 6.82184 142 7.02075 142C7.21966 142 7.41043 142.079 7.55108 142.22C7.69173 142.36 7.77075 142.551 7.77075 142.75Z" fill="#F2A76E"/>
<path d="M7.77075 152.03V155.3C7.77075 155.499 7.69173 155.69 7.55108 155.83C7.41043 155.971 7.21966 156.05 7.02075 156.05C6.82184 156.05 6.63107 155.971 6.49042 155.83C6.34977 155.69 6.27075 155.499 6.27075 155.3V152.03C6.27075 151.831 6.34977 151.64 6.49042 151.5C6.63107 151.359 6.82184 151.28 7.02075 151.28C7.21966 151.28 7.41043 151.359 7.55108 151.5C7.69173 151.64 7.77075 151.831 7.77075 152.03Z" fill="#F2A76E"/>
<path d="M5.42029 147.43C5.27977 147.571 5.08913 147.65 4.89029 147.65C4.69229 147.646 4.50314 147.567 4.36029 147.43L2.05029 145.12C1.90984 144.979 1.83095 144.789 1.83095 144.59C1.83095 144.391 1.90984 144.201 2.05029 144.06C2.11923 143.989 2.20165 143.933 2.29268 143.895C2.3837 143.856 2.4815 143.836 2.58029 143.836C2.67908 143.836 2.77688 143.856 2.8679 143.895C2.95893 143.933 3.04134 143.989 3.11029 144.06L5.42029 146.37C5.49105 146.439 5.54728 146.521 5.58568 146.612C5.62408 146.703 5.64386 146.801 5.64386 146.9C5.64386 146.999 5.62408 147.097 5.58568 147.188C5.54728 147.279 5.49105 147.361 5.42029 147.43Z" fill="#F2A76E"/>
<path d="M0.75001 148.27H4.01001C4.20892 148.27 4.39969 148.349 4.54034 148.49C4.68099 148.63 4.76001 148.821 4.76001 149.02C4.76001 149.219 4.68099 149.41 4.54034 149.55C4.39969 149.691 4.20892 149.77 4.01001 149.77H0.75001C0.551098 149.77 0.360332 149.691 0.21968 149.55C0.0790275 149.41 9.53674e-06 149.219 9.53674e-06 149.02C9.53674e-06 148.821 0.0790275 148.63 0.21968 148.49C0.360332 148.349 0.551098 148.27 0.75001 148.27Z" fill="#F2A76E"/>
<path d="M4.36029 150.61C4.50091 150.47 4.69154 150.391 4.89029 150.391C5.08904 150.391 5.27966 150.47 5.42029 150.61C5.49105 150.679 5.54728 150.761 5.58568 150.852C5.62408 150.943 5.64386 151.041 5.64386 151.14C5.64386 151.239 5.62408 151.337 5.58568 151.428C5.54728 151.519 5.49105 151.601 5.42029 151.67L3.11029 153.98C3.04212 154.051 2.95977 154.108 2.86851 154.146C2.77724 154.184 2.67908 154.202 2.58029 154.2C2.48175 154.2 2.38411 154.181 2.2931 154.143C2.20208 154.106 2.11953 154.05 2.05029 153.98C1.90984 153.839 1.83095 153.649 1.83095 153.45C1.83095 153.251 1.90984 153.061 2.05029 152.92L4.36029 150.61Z" fill="#F2A76E"/>
<path d="M9.6698 150.61L11.9798 152.92C12.0506 152.989 12.1068 153.071 12.1452 153.162C12.1836 153.253 12.2034 153.351 12.2034 153.45C12.2034 153.549 12.1836 153.646 12.1452 153.737C12.1068 153.828 12.0506 153.911 11.9798 153.98C11.9116 154.051 11.8293 154.108 11.738 154.146C11.6468 154.184 11.5486 154.202 11.4498 154.2C11.3513 154.2 11.2536 154.181 11.1626 154.143C11.0716 154.105 10.989 154.05 10.9198 153.98L8.6098 151.67C8.53611 151.601 8.47701 151.518 8.43602 151.426C8.39503 151.334 8.37298 151.235 8.37121 151.134C8.36943 151.034 8.38796 150.934 8.42568 150.84C8.4634 150.747 8.51954 150.662 8.59076 150.591C8.66198 150.52 8.74681 150.463 8.8402 150.426C8.93359 150.388 9.03362 150.369 9.13432 150.371C9.23502 150.373 9.33434 150.395 9.42634 150.436C9.51834 150.477 9.60114 150.536 9.6698 150.61Z" fill="#F2A76E"/>
<path d="M10.0203 149.77C9.82137 149.77 9.63061 149.691 9.48995 149.55C9.3493 149.41 9.27028 149.219 9.27028 149.02C9.27028 148.821 9.3493 148.63 9.48995 148.49C9.63061 148.349 9.82137 148.27 10.0203 148.27H13.2903C13.4892 148.27 13.68 148.349 13.8206 148.49C13.9613 148.63 14.0403 148.821 14.0403 149.02C14.0403 149.219 13.9613 149.41 13.8206 149.55C13.68 149.691 13.4892 149.77 13.2903 149.77H10.0203Z" fill="#F2A76E"/>
<path d="M11.9798 144.06C12.0506 144.129 12.1068 144.211 12.1452 144.302C12.1836 144.393 12.2034 144.491 12.2034 144.59C12.2034 144.689 12.1836 144.787 12.1452 144.878C12.1068 144.969 12.0506 145.051 11.9798 145.12L9.6698 147.43C9.52808 147.569 9.33821 147.648 9.1398 147.65C8.9418 147.646 8.75264 147.567 8.6098 147.43C8.46935 147.289 8.39046 147.099 8.39046 146.9C8.39046 146.701 8.46935 146.511 8.6098 146.37L10.9198 144.06C10.9887 143.989 11.0712 143.933 11.1622 143.895C11.2532 143.856 11.351 143.836 11.4498 143.836C11.5486 143.836 11.6464 143.856 11.7374 143.895C11.8284 143.933 11.9109 143.989 11.9798 144.06Z" fill="#F2A76E"/>
<path d="M103.771 43.75V47.02C103.771 47.2189 103.692 47.4097 103.551 47.5503C103.41 47.691 103.22 47.77 103.021 47.77C102.822 47.77 102.631 47.691 102.49 47.5503C102.35 47.4097 102.271 47.2189 102.271 47.02V43.75C102.271 43.5511 102.35 43.3603 102.49 43.2197C102.631 43.079 102.822 43 103.021 43C103.22 43 103.41 43.079 103.551 43.2197C103.692 43.3603 103.771 43.5511 103.771 43.75Z" fill="#658DDE"/>
<path d="M103.771 53.03V56.3C103.771 56.4989 103.692 56.6897 103.551 56.8304C103.41 56.971 103.22 57.05 103.021 57.05C102.822 57.05 102.631 56.971 102.49 56.8304C102.35 56.6897 102.271 56.4989 102.271 56.3V53.03C102.271 52.8311 102.35 52.6404 102.49 52.4997C102.631 52.359 102.822 52.28 103.021 52.28C103.22 52.28 103.41 52.359 103.551 52.4997C103.692 52.6404 103.771 52.8311 103.771 53.03Z" fill="#658DDE"/>
<path d="M101.42 48.43C101.28 48.5707 101.089 48.6498 100.89 48.65C100.692 48.6457 100.503 48.5672 100.36 48.43L98.0503 46.12C97.9098 45.9794 97.8309 45.7887 97.8309 45.59C97.8309 45.3912 97.9098 45.2006 98.0503 45.06C98.1192 44.9892 98.2017 44.933 98.2927 44.8946C98.3837 44.8562 98.4815 44.8364 98.5803 44.8364C98.6791 44.8364 98.7769 44.8562 98.8679 44.8946C98.9589 44.933 99.0413 44.9892 99.1103 45.06L101.42 47.37C101.491 47.4389 101.547 47.5214 101.586 47.6124C101.624 47.7034 101.644 47.8012 101.644 47.9C101.644 47.9988 101.624 48.0966 101.586 48.1876C101.547 48.2786 101.491 48.361 101.42 48.43Z" fill="#658DDE"/>
<path d="M96.75 49.27H100.01C100.209 49.27 100.4 49.349 100.54 49.4897C100.681 49.6303 100.76 49.8211 100.76 50.02C100.76 50.2189 100.681 50.4097 100.54 50.5504C100.4 50.691 100.209 50.77 100.01 50.77H96.75C96.5511 50.77 96.3603 50.691 96.2197 50.5504C96.079 50.4097 96 50.2189 96 50.02C96 49.8211 96.079 49.6303 96.2197 49.4897C96.3603 49.349 96.5511 49.27 96.75 49.27Z" fill="#658DDE"/>
<path d="M100.36 51.61C100.501 51.4695 100.692 51.3906 100.89 51.3906C101.089 51.3906 101.28 51.4695 101.42 51.61C101.491 51.6789 101.547 51.7613 101.586 51.8524C101.624 51.9434 101.644 52.0412 101.644 52.14C101.644 52.2388 101.624 52.3366 101.586 52.4276C101.547 52.5186 101.491 52.601 101.42 52.67L99.1103 54.98C99.0421 55.0515 98.9598 55.108 98.8685 55.1459C98.7772 55.1838 98.6791 55.2022 98.5803 55.2C98.4817 55.2004 98.3841 55.1812 98.2931 55.1434C98.2021 55.1057 98.1195 55.0501 98.0503 54.98C97.9098 54.8393 97.8309 54.6487 97.8309 54.45C97.8309 54.2512 97.9098 54.0606 98.0503 53.92L100.36 51.61Z" fill="#658DDE"/>
<path d="M105.67 51.6098L107.98 53.9198C108.051 53.9887 108.107 54.0712 108.145 54.1622C108.184 54.2532 108.203 54.351 108.203 54.4498C108.203 54.5486 108.184 54.6464 108.145 54.7374C108.107 54.8284 108.051 54.9109 107.98 54.9798C107.912 55.0513 107.829 55.1079 107.738 55.1457C107.647 55.1836 107.549 55.202 107.45 55.1998C107.351 55.2003 107.254 55.181 107.163 55.1433C107.072 55.1055 106.989 55.0499 106.92 54.9798L104.61 52.6698C104.536 52.6011 104.477 52.5183 104.436 52.4263C104.395 52.3343 104.373 52.235 104.371 52.1343C104.369 52.0336 104.388 51.9336 104.426 51.8402C104.463 51.7468 104.52 51.662 104.591 51.5908C104.662 51.5195 104.747 51.4634 104.84 51.4257C104.934 51.388 105.034 51.3694 105.134 51.3712C105.235 51.373 105.334 51.395 105.426 51.436C105.518 51.477 105.601 51.5361 105.67 51.6098Z" fill="#658DDE"/>
<path d="M106.02 50.77C105.821 50.77 105.631 50.691 105.49 50.5504C105.349 50.4097 105.27 50.2189 105.27 50.02C105.27 49.8211 105.349 49.6303 105.49 49.4897C105.631 49.349 105.821 49.27 106.02 49.27H109.29C109.489 49.27 109.68 49.349 109.821 49.4897C109.961 49.6303 110.04 49.8211 110.04 50.02C110.04 50.2189 109.961 50.4097 109.821 50.5504C109.68 50.691 109.489 50.77 109.29 50.77H106.02Z" fill="#658DDE"/>
<path d="M107.98 45.06C108.051 45.1289 108.107 45.2114 108.145 45.3024C108.184 45.3934 108.203 45.4912 108.203 45.59C108.203 45.6888 108.184 45.7866 108.145 45.8776C108.107 45.9686 108.051 46.0511 107.98 46.12L105.67 48.43C105.528 48.5689 105.338 48.6477 105.14 48.65C104.942 48.6457 104.753 48.5672 104.61 48.43C104.469 48.2894 104.39 48.0987 104.39 47.9C104.39 47.7012 104.469 47.5106 104.61 47.37L106.92 45.06C106.989 44.9892 107.071 44.933 107.162 44.8946C107.253 44.8562 107.351 44.8364 107.45 44.8364C107.549 44.8364 107.646 44.8562 107.737 44.8946C107.828 44.933 107.911 44.9892 107.98 45.06Z" fill="#658DDE"/>
<path d="M113.771 93.75V97.02C113.771 97.2189 113.692 97.4097 113.551 97.5503C113.41 97.691 113.22 97.77 113.021 97.77C112.822 97.77 112.631 97.691 112.49 97.5503C112.35 97.4097 112.271 97.2189 112.271 97.02V93.75C112.271 93.5511 112.35 93.3603 112.49 93.2197C112.631 93.079 112.822 93 113.021 93C113.22 93 113.41 93.079 113.551 93.2197C113.692 93.3603 113.771 93.5511 113.771 93.75Z" fill="#E795F2"/>
<path d="M113.771 103.03V106.3C113.771 106.499 113.692 106.69 113.551 106.83C113.41 106.971 113.22 107.05 113.021 107.05C112.822 107.05 112.631 106.971 112.49 106.83C112.35 106.69 112.271 106.499 112.271 106.3V103.03C112.271 102.831 112.35 102.64 112.49 102.5C112.631 102.359 112.822 102.28 113.021 102.28C113.22 102.28 113.41 102.359 113.551 102.5C113.692 102.64 113.771 102.831 113.771 103.03Z" fill="#E795F2"/>
<path d="M111.42 98.43C111.28 98.5707 111.089 98.6498 110.89 98.65C110.692 98.6457 110.503 98.5672 110.36 98.43L108.05 96.12C107.91 95.9794 107.831 95.7887 107.831 95.59C107.831 95.3912 107.91 95.2006 108.05 95.06C108.119 94.9892 108.202 94.933 108.293 94.8946C108.384 94.8562 108.481 94.8364 108.58 94.8364C108.679 94.8364 108.777 94.8562 108.868 94.8946C108.959 94.933 109.041 94.9892 109.11 95.06L111.42 97.37C111.491 97.4389 111.547 97.5214 111.586 97.6124C111.624 97.7034 111.644 97.8012 111.644 97.9C111.644 97.9988 111.624 98.0966 111.586 98.1876C111.547 98.2786 111.491 98.361 111.42 98.43Z" fill="#E795F2"/>
<path d="M106.75 99.27H110.01C110.209 99.27 110.4 99.349 110.54 99.4897C110.681 99.6303 110.76 99.8211 110.76 100.02C110.76 100.219 110.681 100.41 110.54 100.55C110.4 100.691 110.209 100.77 110.01 100.77H106.75C106.551 100.77 106.36 100.691 106.22 100.55C106.079 100.41 106 100.219 106 100.02C106 99.8211 106.079 99.6303 106.22 99.4897C106.36 99.349 106.551 99.27 106.75 99.27Z" fill="#E795F2"/>
<path d="M110.36 101.61C110.501 101.47 110.692 101.391 110.89 101.391C111.089 101.391 111.28 101.47 111.42 101.61C111.491 101.679 111.547 101.761 111.586 101.852C111.624 101.943 111.644 102.041 111.644 102.14C111.644 102.239 111.624 102.337 111.586 102.428C111.547 102.519 111.491 102.601 111.42 102.67L109.11 104.98C109.042 105.051 108.96 105.108 108.869 105.146C108.777 105.184 108.679 105.202 108.58 105.2C108.482 105.2 108.384 105.181 108.293 105.143C108.202 105.106 108.12 105.05 108.05 104.98C107.91 104.839 107.831 104.649 107.831 104.45C107.831 104.251 107.91 104.061 108.05 103.92L110.36 101.61Z" fill="#E795F2"/>
<path d="M115.67 101.61L117.98 103.92C118.051 103.989 118.107 104.071 118.145 104.162C118.184 104.253 118.203 104.351 118.203 104.45C118.203 104.549 118.184 104.646 118.145 104.737C118.107 104.828 118.051 104.911 117.98 104.98C117.912 105.051 117.829 105.108 117.738 105.146C117.647 105.184 117.549 105.202 117.45 105.2C117.351 105.2 117.254 105.181 117.163 105.143C117.072 105.105 116.989 105.05 116.92 104.98L114.61 102.67C114.536 102.601 114.477 102.518 114.436 102.426C114.395 102.334 114.373 102.235 114.371 102.134C114.369 102.034 114.388 101.934 114.426 101.84C114.463 101.747 114.52 101.662 114.591 101.591C114.662 101.52 114.747 101.463 114.84 101.426C114.934 101.388 115.034 101.369 115.134 101.371C115.235 101.373 115.334 101.395 115.426 101.436C115.518 101.477 115.601 101.536 115.67 101.61Z" fill="#E795F2"/>
<path d="M116.02 100.77C115.821 100.77 115.631 100.691 115.49 100.55C115.349 100.41 115.27 100.219 115.27 100.02C115.27 99.8211 115.349 99.6303 115.49 99.4897C115.631 99.349 115.821 99.27 116.02 99.27H119.29C119.489 99.27 119.68 99.349 119.821 99.4897C119.961 99.6303 120.04 99.8211 120.04 100.02C120.04 100.219 119.961 100.41 119.821 100.55C119.68 100.691 119.489 100.77 119.29 100.77H116.02Z" fill="#E795F2"/>
<path d="M117.98 95.06C118.051 95.1289 118.107 95.2114 118.145 95.3024C118.184 95.3934 118.203 95.4912 118.203 95.59C118.203 95.6888 118.184 95.7866 118.145 95.8776C118.107 95.9686 118.051 96.0511 117.98 96.12L115.67 98.43C115.528 98.5689 115.338 98.6477 115.14 98.65C114.942 98.6457 114.753 98.5672 114.61 98.43C114.469 98.2894 114.39 98.0987 114.39 97.9C114.39 97.7012 114.469 97.5106 114.61 97.37L116.92 95.06C116.989 94.9892 117.071 94.933 117.162 94.8946C117.253 94.8562 117.351 94.8364 117.45 94.8364C117.549 94.8364 117.646 94.8562 117.737 94.8946C117.828 94.933 117.911 94.9892 117.98 95.06Z" fill="#E795F2"/>
<circle cx="2.5" cy="2.5" r="2.5" transform="matrix(-1 0 0 1 53.0403 42)" fill="#DFB977"/>
<circle cx="2.5" cy="2.5" r="2.5" transform="matrix(-1 0 0 1 134.04 26)" fill="#E89EBB"/>
<circle cx="4" cy="4" r="3.5" transform="matrix(-1 0 0 1 68 102)" stroke="#E39999"/>
<circle cx="4" cy="4" r="3.5" transform="matrix(-1 0 0 1 96 0)" stroke="#91F29A"/>
<circle cx="2.5" cy="2.5" r="2" transform="matrix(-1 0 0 1 131.04 117)" stroke="#C06EF2"/>
<circle cx="2.5" cy="2.5" r="2" transform="matrix(-1 0 0 1 149.04 62)" stroke="#98B9EE"/>
<circle cx="2.5" cy="2.5" r="2" transform="matrix(-1 0 0 1 14.0403 13)" stroke="#F9D6CE"/>
<circle cx="2.5" cy="2.5" r="2" transform="matrix(-1 0 0 1 25 63)" stroke="#91F29A"/>
</svg>
