<svg width="15" height="20" viewBox="0 0 15 20" fill="none" xmlns="http://www.w3.org/2000/svg">
<path d="M14.267 15.7917C13.8468 15.0744 13.1962 14.6429 12.5707 14.3549C11.9442 14.0671 11.3244 13.912 10.952 13.7715C10.6567 13.6618 10.3348 13.4904 10.1053 13.3048C9.9903 13.2131 9.89925 13.118 9.84456 13.0351C9.78808 12.9519 9.77093 12.8873 9.77093 12.8439C9.77093 12.5474 9.77093 12.4132 9.77093 11.9623C10.1661 11.5223 10.734 10.8412 10.9668 9.76077C11.0486 9.72413 11.1292 9.6828 11.2066 9.62839C11.4003 9.4951 11.5642 9.30163 11.703 9.03831C11.8432 8.77382 11.9669 8.43569 12.099 7.97307C12.1657 7.73827 12.1971 7.53456 12.1971 7.35299C12.1971 7.14377 12.154 6.96252 12.0748 6.81502C12.0068 6.68639 11.9136 6.59389 11.8173 6.52522C13.0959 3.67139 11.4545 1.37131 11.4545 1.37131L11.9363 0.132671C11.9363 0.132671 9.87191 0.270289 8.03733 0.0639992C2.73678 -0.531587 2.44057 3.18346 2.44057 4.83471C2.44057 5.82401 2.58838 6.39897 2.71639 6.71205C2.69049 6.74608 2.66256 6.77577 2.64104 6.81534C2.56221 6.96256 2.51912 7.14413 2.51912 7.35331C2.51971 7.53456 2.55026 7.73827 2.61748 7.97307C2.7944 8.58905 2.95385 8.98651 3.16045 9.27862C3.26405 9.42354 3.38131 9.53995 3.50932 9.62839C3.58729 9.6828 3.66792 9.72413 3.74909 9.76077C3.98245 10.8405 4.5501 11.522 4.94526 11.9619C4.94526 12.413 4.94526 12.5474 4.94526 12.8439C4.94612 12.8809 4.92749 12.9486 4.86612 13.0362C4.77678 13.1675 4.60163 13.3237 4.39795 13.4558C4.19514 13.5888 3.96413 13.7014 3.77006 13.7695C3.5178 13.8585 3.15553 13.9577 2.75893 14.098C2.1633 14.3089 1.48041 14.6127 0.933693 15.1585C0.386114 15.7021 -0.00322209 16.499 2.00988e-05 17.5931C2.00988e-05 17.7322 0.0061139 17.8765 0.0189264 18.0252C0.0270905 18.1186 0.0596294 18.1957 0.0989264 18.2615C0.174864 18.384 0.276974 18.4791 0.405333 18.5757C0.630255 18.7425 0.942443 18.9066 1.34834 19.0684C2.5617 19.5505 4.61452 19.9995 7.35831 20C9.58773 19.9997 11.362 19.7027 12.5993 19.3331C13.2178 19.148 13.7011 18.9461 14.0483 18.7462C14.2225 18.6458 14.3628 18.5463 14.4737 18.4381C14.5289 18.3839 14.5773 18.3275 14.6171 18.2614C14.657 18.1957 14.6896 18.1186 14.6977 18.0255C14.7102 17.8765 14.7161 17.7328 14.7161 17.5943C14.7166 16.8653 14.5472 16.2686 14.267 15.7917ZM6.86475 19.3863C6.85514 19.386 6.84554 19.386 6.83565 19.386L5.86643 17.1115L5.87893 17.1214L6.76057 16.0192L6.90518 16.6276H6.94389L6.86475 19.3863ZM5.67729 16.6681L4.56549 14.0604C4.70487 13.9795 4.8419 13.8905 4.9676 13.7907C5.0444 13.729 5.11776 13.6641 5.18495 13.5951L7.04276 14.961L5.67729 16.6681ZM5.44655 13.2413C5.50796 13.1221 5.54987 12.99 5.55046 12.8439C5.55046 12.5226 5.55046 12.397 5.55046 11.8464V11.7301L5.47303 11.6439C5.06014 11.1839 4.5012 10.5735 4.3071 9.48874L4.27624 9.31503L4.11069 9.25624C4.00538 9.21874 3.92538 9.18003 3.85491 9.13143C3.75163 9.05842 3.65764 8.95858 3.54795 8.75436C3.43999 8.55124 3.32475 8.24749 3.19967 7.80667C3.14409 7.61432 3.12487 7.46448 3.12487 7.35334C3.12487 7.22389 3.14959 7.14881 3.17495 7.1008C3.21307 7.03151 3.25991 7.00186 3.31956 6.97803C3.3603 6.96229 3.40334 6.95647 3.42807 6.95444L3.66288 7.0042L4.0001 7.58702C4.0001 7.58702 3.98178 4.68838 4.27538 4.46783C4.64229 4.19229 6.75296 5.01834 7.39483 5.01834C8.03726 5.01834 10.0784 4.12361 10.4407 4.39451C10.862 4.70963 10.7896 7.86225 10.7896 7.86225L11.1346 6.96928L11.2761 6.95412C11.3008 6.95444 11.391 6.96491 11.4524 7.00534C11.4868 7.02776 11.5153 7.05362 11.5412 7.10077C11.5662 7.14877 11.5909 7.22385 11.5909 7.35303C11.5915 7.46448 11.5717 7.61432 11.5168 7.80694C11.3497 8.39467 11.2002 8.73686 11.0625 8.92659C10.9939 9.0226 10.931 9.08229 10.8609 9.13143C10.791 9.18003 10.7105 9.21874 10.6051 9.25624L10.4396 9.31503L10.409 9.48874C10.2155 10.5735 9.65628 11.1839 9.24339 11.6439L9.16542 11.7301V11.8464C9.16542 12.397 9.16542 12.5226 9.16542 12.8439C9.16601 12.9894 9.20585 13.1229 9.26667 13.2437L7.35819 14.6459L5.44655 13.2413ZM7.87909 19.3886C7.86948 19.3892 7.86104 19.3895 7.85112 19.3895L7.77171 16.6276H7.81186L7.9562 16.0192L8.83753 17.1211L8.85003 17.1115L7.87909 19.3886ZM9.03858 16.6681L7.67335 14.9613L9.52944 13.5969C9.65628 13.7264 9.80265 13.8428 9.96124 13.9472C10.0223 13.9871 10.0881 14.02 10.1521 14.0563L9.03858 16.6681Z" fill="#360F22"/>
</svg>
