<svg width="32" height="32" viewBox="0 0 32 32" fill="none" xmlns="http://www.w3.org/2000/svg">
<g clip-path="url(#clip0_184_428)">
<path fill-rule="evenodd" clip-rule="evenodd" d="M29.9124 29.0513C26.9286 31.7734 26.3958 32.3588 22.7165 28.9579C17.8201 24.4336 23.1301 19.5288 26.1476 23.3353C26.257 23.4733 26.4743 23.4706 26.5837 23.3326C29.5549 19.5595 35.0023 24.4127 29.9124 29.0513ZM14.8952 14.5404C14.0735 14.4735 13.831 14.4845 13.1341 14.536C11.2398 14.1304 9.81516 12.4552 9.81516 10.4523C9.81516 8.14695 11.7025 6.27092 14.0217 6.27092C16.3408 6.27092 18.2282 8.14695 18.2282 10.4523C18.2282 12.4594 16.7965 14.139 14.8952 14.5404ZM2.82116 24.4725C2.81836 24.4432 2.80433 24.4196 2.80433 24.3903V4.87706C2.80433 4.10769 3.4311 3.48321 4.2065 3.48321H13.9319C10.1026 3.53199 7.01083 6.63041 7.01083 10.4481C7.01083 12.4621 7.88297 14.2645 9.25569 15.5357C5.75729 17.1511 3.2334 20.4932 2.82116 24.4725ZM20.466 16.5238C19.9304 16.1461 19.3583 15.8115 18.754 15.5286C20.1449 14.256 21.0325 12.4635 21.0325 10.4341C21.0325 6.6165 17.9407 3.53199 14.1114 3.48321H23.8368C24.6108 3.48321 25.239 4.10769 25.239 4.87706V17.5469C25.239 18.248 25.8097 18.8152 26.5149 18.8152C27.5778 18.8152 28.0433 18.2508 28.0433 17.5469V3.48321C28.0433 1.94444 26.787 0.695679 25.239 0.695679H2.80433C1.25493 0.695679 0 1.94444 0 3.48321V25.7843C0 27.3245 1.25493 28.5717 2.80433 28.5717H16.9522C17.6561 28.5717 18.2282 28.0044 18.2282 27.3034C18.2282 26.2468 17.6589 25.7843 16.9522 25.7843H5.5736C5.5736 25.7843 5.5638 25.6923 5.5638 25.6366C5.5638 17.1357 15.9216 16.0122 18.5226 18.4151C19.9248 19.71 22.0449 17.6375 20.466 16.5238Z" fill="white"/>
</g>
<defs>
<clipPath id="clip0_184_428">
<rect width="32" height="32" fill="white"/>
</clipPath>
</defs>
</svg>
