<svg width="45" height="45" viewBox="0 0 45 45" fill="none" xmlns="http://www.w3.org/2000/svg">
<path d="M1.59863 2.01367V4.36211L6.46549 9.11084C6.86931 8.61536 7.32003 8.16003 7.81136 7.75117L1.93367 2.01376L1.59863 2.01367ZM29.9899 7.10034C27.0878 7.13233 24.023 8.77756 22.2144 12.2887L21.4811 13.7114L20.7533 12.2858C18.468 7.81445 14.7884 6.62863 11.5989 7.55078C8.40945 8.4731 5.67957 11.5932 5.614 16.3455C5.54439 21.4068 8.60141 24.4613 12.0575 27.8315C15.1147 30.8128 18.4645 34.0101 19.5996 38.8454C21.8459 35.8984 24.3655 33.4524 26.782 31.229L19.9649 24.6015H19.9622V24.5988C19.4191 24.0667 19.1925 23.3306 19.2864 22.6898C19.3804 22.0491 19.7247 21.5124 20.1653 21.1052C20.6061 20.6978 21.1593 20.4052 21.7832 20.3251C21.9426 20.3045 22.1037 20.3008 22.2639 20.3141C22.7535 20.3554 23.2556 20.5538 23.6482 20.9376C23.6486 20.938 23.6503 20.937 23.6508 20.9376L30.4898 27.5869L30.4953 27.5925L30.498 27.5951C30.5377 27.6349 30.5768 27.6716 30.6161 27.7105C30.7026 27.6291 30.7914 27.5475 30.8771 27.4662C34.7033 23.8319 37.4585 20.4705 37.5265 15.7082C37.5991 10.6117 34.8311 7.87422 31.5306 7.23763C31.1148 7.15798 30.6931 7.113 30.2699 7.10315C30.1765 7.10048 30.0831 7.09951 29.9898 7.10025L29.9899 7.10034ZM22.0689 21.9457C22.0443 21.9473 22.0192 21.9504 21.992 21.9539C21.774 21.9821 21.493 22.1148 21.2805 22.3111C21.068 22.5075 20.9381 22.7515 20.9124 22.9264C20.8869 23.1002 20.8951 23.2141 21.1075 23.4235L21.1102 23.4261L27.9519 30.0757L27.9548 30.0784C30.3288 32.4045 31.5779 34.0273 31.5501 35.7172C31.536 36.5622 31.1135 37.3214 30.4925 37.9007C30.1706 38.2009 29.7938 38.4696 29.3693 38.7246C33.2175 41.0111 38.5846 43.0389 43.1764 43.5063C43.0818 39.0325 40.8332 34.0384 38.3287 30.2375C38.2241 30.4557 38.1137 30.6734 37.9854 30.8803C37.5725 31.5454 36.9755 32.1649 36.1203 32.3964C35.2654 32.6278 34.2825 32.4372 33.1953 31.8525C32.1099 31.2691 30.866 30.2859 29.3446 28.7654L29.3363 28.7573L22.5028 22.1133H22.5001C22.3589 21.9749 22.2417 21.9346 22.0689 21.9457Z" fill="#FF00C7"/>
</svg>
