<svg width="113" height="78" viewBox="0 0 113 78" fill="none" xmlns="http://www.w3.org/2000/svg">
<g filter="url(#filter0_d_801_3707)">
<path d="M23.8667 22.6597C26.2155 22.3459 28.166 22.8056 29.7181 24.0388C31.2661 25.2419 32.2036 27.017 32.5306 29.364C32.5725 29.6649 32.6137 30.1805 32.654 30.9107L32.862 44.9513C32.8844 47.0938 32.4304 49.0088 31.4999 50.6963C30.5995 52.3797 29.3201 53.6541 27.6616 54.5193C27.5453 54.5655 27.4805 54.6508 27.4672 54.7751L27.55 58.672C27.5409 58.8264 27.4824 58.9569 27.3745 59.0632C27.3009 59.1957 27.1888 59.2719 27.0383 59.292L21.8889 59.98C21.7384 60.0001 21.6095 59.956 21.5024 59.8477C21.3995 59.7695 21.3526 59.6532 21.3618 59.4987L21.3241 55.5959C21.3073 55.4755 21.2366 55.4083 21.112 55.3943C19.6814 55.0337 18.4866 54.2739 17.5276 53.1147C16.5987 51.9515 16.0147 50.5123 15.7758 48.7972C15.6835 48.1352 15.6424 47.6197 15.6523 47.2505L15.3992 33.2159C15.3448 30.4034 16.0885 28.0359 17.6304 26.1135C19.1982 24.157 21.277 23.0057 23.8667 22.6597ZM21.8445 47.1129C21.8354 47.2673 21.8476 47.4649 21.8811 47.7057C21.9901 48.488 22.2567 49.0807 22.681 49.4838C23.1354 49.8828 23.6787 50.0401 24.3111 49.9556C25.0639 49.855 25.6414 49.4867 26.0436 48.8506C26.4758 48.2105 26.6872 47.416 26.6777 46.4672L26.4618 31.0483C26.471 30.8939 26.4588 30.6963 26.4252 30.4555C26.3162 29.6732 26.0345 29.0825 25.5802 28.6834C25.1559 28.2804 24.6126 28.1231 23.9501 28.2116C23.2274 28.3082 22.6499 28.6765 22.2176 29.3166C21.7853 29.9567 21.574 30.7512 21.5835 31.7001L21.8445 47.1129ZM47.217 29.011C47.2261 28.8566 47.2696 28.7281 47.3474 28.6258C47.451 28.4894 47.5782 28.4111 47.7287 28.391L52.8781 27.703C53.0286 27.6829 53.1575 27.727 53.2646 27.8353C53.3675 27.9135 53.4144 28.0298 53.4052 28.1843L53.7765 50.6625C53.7674 50.817 53.711 50.9625 53.6073 51.0989C53.5295 51.2013 53.4154 51.2625 53.2648 51.2826L48.1154 51.9706C47.9649 51.9907 47.8381 51.9616 47.7352 51.8834C47.6281 51.7751 47.5791 51.6438 47.5883 51.4893L47.5717 50.7099C47.5892 50.6156 47.5658 50.5575 47.5014 50.5354C47.437 50.5134 47.3809 50.5515 47.3333 50.6498C46.529 51.922 45.2234 52.6788 43.4166 52.9201C41.8508 53.1293 40.5102 52.864 39.3948 52.1242C38.2753 51.3542 37.5877 50.0515 37.332 48.216C37.2942 47.9452 37.2636 47.5049 37.2399 46.895L36.9635 30.3809C36.9726 30.2264 37.0161 30.098 37.0938 29.9957C37.1975 29.8592 37.3246 29.7809 37.4752 29.7608L42.6245 29.0729C42.7751 29.0528 42.904 29.0968 43.0111 29.2051C43.114 29.2833 43.1609 29.3997 43.1517 29.5541L43.4139 44.645C43.4048 44.7994 43.4212 45.0271 43.4631 45.328C43.5553 45.99 43.7621 46.4834 44.0834 46.8083C44.4307 47.0991 44.8753 47.2082 45.4173 47.1358C46.0798 47.0473 46.5862 46.7191 46.9365 46.1513C47.2869 45.5834 47.4615 44.8551 47.4603 43.9664L47.217 29.011ZM74.2839 21.3031C74.2747 21.4576 74.2183 21.603 74.1146 21.7395C74.0368 21.8418 73.9227 21.903 73.7721 21.9232L64.6478 23.1422C64.4973 23.1623 64.4325 23.2476 64.4534 23.398L64.5437 30.65C64.5646 30.8005 64.6353 30.8677 64.7558 30.8516L69.9955 30.1516C70.146 30.1314 70.2749 30.1755 70.382 30.2838C70.4849 30.362 70.5318 30.4784 70.5226 30.6328L70.5906 35.0833C70.5814 35.2378 70.525 35.3833 70.4213 35.5197C70.3436 35.6221 70.2294 35.6833 70.0789 35.7034L64.8843 36.3974C64.7037 36.4215 64.6238 36.5088 64.6448 36.6593L64.871 49.1803C64.8618 49.3348 64.8054 49.4802 64.7017 49.6167C64.5939 49.7231 64.4646 49.7863 64.3141 49.8064L59.2099 50.4883C59.0593 50.5084 58.9326 50.4794 58.8297 50.4012C58.7226 50.2929 58.6736 50.1615 58.6827 50.0071L58.1806 18.9949C58.1898 18.8404 58.2332 18.712 58.311 18.6097C58.4147 18.4732 58.5418 18.3949 58.6924 18.3748L73.6887 16.3713C73.8393 16.3512 73.9681 16.3953 74.0752 16.5036C74.1782 16.5818 74.225 16.6981 74.2159 16.8526L74.2839 21.3031ZM80.917 21.2904C80.0136 21.4111 79.236 21.2238 78.5842 20.7286C77.9323 20.2333 77.5456 19.5493 77.4241 18.6767C77.2564 17.4731 77.4965 16.4449 78.1445 15.5921C78.7884 14.7092 79.6674 14.1933 80.7816 14.0444C81.7151 13.9197 82.4906 14.092 83.1081 14.5612C83.7256 15.0304 84.0972 15.7163 84.223 16.619C84.3823 17.7624 84.1271 18.7927 83.4573 19.7097C82.8177 20.6227 81.9709 21.1496 80.917 21.2904ZM78.8227 47.868C78.6722 47.8882 78.5454 47.8591 78.4425 47.7809C78.3354 47.6726 78.2864 47.5412 78.2956 47.3868L77.9243 24.9085C77.9334 24.754 77.9769 24.6256 78.0546 24.5233C78.1583 24.3868 78.2854 24.3086 78.436 24.2884L83.5854 23.6005C83.7359 23.5804 83.8648 23.6245 83.9719 23.7328C84.0748 23.811 84.1217 23.9273 84.1125 24.0818L84.4838 46.56C84.4747 46.7145 84.4182 46.86 84.3146 46.9964C84.2368 47.0987 84.1226 47.16 83.9721 47.1801L78.8227 47.868ZM99.0798 25.5303C99.0706 25.6847 99.0142 25.8302 98.9105 25.9667C98.8328 26.069 98.7186 26.1302 98.568 26.1503L96.0837 26.4823C96.0235 26.4903 95.9674 26.5284 95.9156 26.5967C95.8897 26.6308 95.8809 26.6779 95.8893 26.7381L96.0761 37.6552C96.0669 37.8097 96.0812 38.0224 96.119 38.2932C96.207 38.9251 96.4033 39.3433 96.7079 39.5478C97.0425 39.7483 97.4788 39.7973 98.0166 39.6948L98.3328 39.6525C98.4834 39.6324 98.6122 39.6765 98.7193 39.7848C98.8223 39.863 98.8691 39.9793 98.86 40.1338L98.9342 44.6294C98.9251 44.7839 98.8687 44.9294 98.765 45.0658C98.6872 45.1682 98.5731 45.2294 98.4225 45.2495L96.6609 45.4849C94.7336 45.7423 93.2333 45.6516 92.1599 45.2127C91.0824 44.7436 90.4304 43.6967 90.204 42.0718C90.1746 41.8612 90.1523 41.481 90.1371 40.9314L89.9269 27.5347C89.9059 27.3842 89.8352 27.3171 89.7148 27.3331L88.2693 27.5263C88.1188 27.5464 87.992 27.5173 87.8891 27.4391C87.782 27.3308 87.733 27.1995 87.7422 27.045L87.677 23.6055C87.6862 23.4511 87.7297 23.3227 87.8074 23.2203C87.9111 23.0839 88.0382 23.0056 88.1888 22.9855L89.6342 22.7924C89.7848 22.7722 89.8496 22.687 89.8286 22.5365L89.7629 17.442C89.7721 17.2876 89.8156 17.1592 89.8933 17.0568C89.997 16.9204 90.1241 16.8421 90.2747 16.822L95.1982 16.1642C95.3488 16.1441 95.4776 16.1882 95.5847 16.2964C95.6876 16.3746 95.7345 16.491 95.7254 16.6455L95.791 21.7399C95.812 21.8904 95.8978 21.9555 96.0483 21.9354L98.4875 21.6096C98.638 21.5894 98.7669 21.6335 98.874 21.7418C98.9769 21.82 99.0238 21.9364 99.0146 22.0908L99.0798 25.5303Z" fill="#BD4ADA"/>
<path d="M22.8447 22.6597C25.1935 22.3459 27.144 22.8056 28.6962 24.0388C30.2441 25.2419 31.1816 27.017 31.5086 29.364C31.5505 29.6649 31.5917 30.1805 31.6321 30.9107L31.84 44.9513C31.8624 47.0938 31.4084 49.0088 30.4779 50.6963C29.5776 52.3797 28.2981 53.6541 26.6396 54.5193C26.5233 54.5655 26.4585 54.6508 26.4452 54.7751L26.528 58.672C26.5189 58.8264 26.4604 58.9569 26.3525 59.0632C26.2789 59.1957 26.1669 59.2719 26.0163 59.292L20.867 59.98C20.7164 60.0001 20.5876 59.956 20.4804 59.8477C20.3775 59.7695 20.3306 59.6532 20.3398 59.4987L20.3021 55.5959C20.2854 55.4755 20.2146 55.4083 20.09 55.3943C18.6594 55.0337 17.4647 54.2739 16.5056 53.1147C15.5767 51.9515 14.9928 50.5123 14.7538 48.7972C14.6616 48.1352 14.6204 47.6197 14.6303 47.2505L14.3772 33.2159C14.3228 30.4034 15.0665 28.0359 16.6084 26.1135C18.1762 24.157 20.255 23.0057 22.8447 22.6597ZM20.8226 47.1129C20.8134 47.2673 20.8256 47.4649 20.8591 47.7057C20.9682 48.488 21.2348 49.0807 21.659 49.4838C22.1134 49.8828 22.6567 50.0401 23.2891 49.9556C24.042 49.855 24.6194 49.4867 25.0216 48.8506C25.4539 48.2105 25.6652 47.416 25.6557 46.4672L25.4398 31.0483C25.449 30.8939 25.4368 30.6963 25.4033 30.4555C25.2942 29.6732 25.0126 29.0825 24.5582 28.6834C24.134 28.2804 23.5906 28.1231 22.9281 28.2116C22.2054 28.3082 21.6279 28.6765 21.1956 29.3166C20.7634 29.9567 20.552 30.7512 20.5615 31.7001L20.8226 47.1129ZM46.195 29.011C46.2042 28.8566 46.2476 28.7281 46.3254 28.6258C46.4291 28.4894 46.5562 28.4111 46.7068 28.391L51.8561 27.703C52.0067 27.6829 52.1355 27.727 52.2426 27.8353C52.3455 27.9135 52.3924 28.0298 52.3833 28.1843L52.7546 50.6625C52.7454 50.817 52.689 50.9625 52.5853 51.0989C52.5075 51.2013 52.3934 51.2625 52.2428 51.2826L47.0935 51.9706C46.9429 51.9907 46.8162 51.9616 46.7132 51.8834C46.6061 51.7751 46.5572 51.6438 46.5663 51.4893L46.5497 50.7099C46.5673 50.6156 46.5438 50.5575 46.4794 50.5354C46.415 50.5134 46.359 50.5515 46.3113 50.6498C45.507 51.922 44.2015 52.6788 42.3947 52.9201C40.8288 53.1293 39.4882 52.864 38.3729 52.1242C37.2534 51.3542 36.5657 50.0515 36.31 48.216C36.2723 47.9452 36.2416 47.5049 36.218 46.895L35.9415 30.3809C35.9506 30.2264 35.9941 30.098 36.0719 29.9957C36.1755 29.8592 36.3027 29.7809 36.4532 29.7608L41.6026 29.0729C41.7531 29.0528 41.882 29.0968 41.9891 29.2051C42.092 29.2833 42.1389 29.3997 42.1297 29.5541L42.3919 44.645C42.3828 44.7994 42.3992 45.0271 42.4411 45.328C42.5333 45.99 42.7401 46.4834 43.0614 46.8083C43.4087 47.0991 43.8533 47.2082 44.3954 47.1358C45.0579 47.0473 45.5643 46.7191 45.9146 46.1513C46.2649 45.5834 46.4395 44.8551 46.4383 43.9664L46.195 29.011ZM73.2619 21.3031C73.2527 21.4576 73.1963 21.603 73.0926 21.7395C73.0149 21.8418 72.9007 21.903 72.7501 21.9232L63.6259 23.1422C63.4753 23.1623 63.4105 23.2476 63.4315 23.398L63.5217 30.65C63.5426 30.8005 63.6134 30.8677 63.7338 30.8516L68.9735 30.1516C69.1241 30.1314 69.2529 30.1755 69.36 30.2838C69.4629 30.362 69.5098 30.4784 69.5007 30.6328L69.5686 35.0833C69.5595 35.2378 69.5031 35.3833 69.3994 35.5197C69.3216 35.6221 69.2074 35.6833 69.0569 35.7034L63.8624 36.3974C63.6817 36.4215 63.6018 36.5088 63.6228 36.6593L63.849 49.1803C63.8399 49.3348 63.7834 49.4802 63.6798 49.6167C63.5719 49.7231 63.4427 49.7863 63.2921 49.8064L58.1879 50.4883C58.0374 50.5084 57.9106 50.4794 57.8077 50.4012C57.7006 50.2929 57.6516 50.1615 57.6608 50.0071L57.1587 18.9949C57.1678 18.8404 57.2113 18.712 57.289 18.6097C57.3927 18.4732 57.5198 18.3949 57.6704 18.3748L72.6668 16.3713C72.8173 16.3512 72.9462 16.3953 73.0533 16.5036C73.1562 16.5818 73.2031 16.6981 73.1939 16.8526L73.2619 21.3031ZM79.895 21.2904C78.9916 21.4111 78.214 21.2238 77.5622 20.7286C76.9104 20.2333 76.5237 19.5493 76.4021 18.6767C76.2344 17.4731 76.4746 16.4449 77.1226 15.5921C77.7664 14.7092 78.6454 14.1933 79.7596 14.0444C80.6931 13.9197 81.4686 14.092 82.0861 14.5612C82.7036 15.0304 83.0752 15.7163 83.201 16.619C83.3603 17.7624 83.1051 18.7927 82.4354 19.7097C81.7957 20.6227 80.9489 21.1496 79.895 21.2904ZM77.8008 47.868C77.6502 47.8882 77.5234 47.8591 77.4205 47.7809C77.3134 47.6726 77.2644 47.5412 77.2736 47.3868L76.9023 24.9085C76.9114 24.754 76.9549 24.6256 77.0327 24.5233C77.1363 24.3868 77.2635 24.3086 77.414 24.2884L82.5634 23.6005C82.7139 23.5804 82.8428 23.6245 82.9499 23.7328C83.0528 23.811 83.0997 23.9273 83.0905 24.0818L83.4618 46.56C83.4527 46.7145 83.3963 46.86 83.2926 46.9964C83.2148 47.0987 83.1007 47.16 82.9501 47.1801L77.8008 47.868ZM98.0578 25.5303C98.0486 25.6847 97.9922 25.8302 97.8885 25.9667C97.8108 26.069 97.6966 26.1302 97.5461 26.1503L95.0617 26.4823C95.0015 26.4903 94.9455 26.5284 94.8936 26.5967C94.8677 26.6308 94.8589 26.6779 94.8673 26.7381L95.0541 37.6552C95.045 37.8097 95.0593 38.0224 95.097 38.2932C95.185 38.9251 95.3813 39.3433 95.6859 39.5478C96.0206 39.7483 96.4568 39.7973 96.9947 39.6948L97.3108 39.6525C97.4614 39.6324 97.5903 39.6765 97.6974 39.7848C97.8003 39.863 97.8472 39.9793 97.838 40.1338L97.9123 44.6294C97.9031 44.7839 97.8467 44.9294 97.743 45.0658C97.6653 45.1682 97.5511 45.2294 97.4005 45.2495L95.6389 45.4849C93.7117 45.7423 92.2114 45.6516 91.138 45.2127C90.0604 44.7436 89.4084 43.6967 89.182 42.0718C89.1526 41.8612 89.1304 41.481 89.1151 40.9314L88.9049 27.5347C88.884 27.3842 88.8132 27.3171 88.6928 27.3331L87.2474 27.5263C87.0968 27.5464 86.9701 27.5173 86.8671 27.4391C86.76 27.3308 86.711 27.1995 86.7202 27.045L86.6551 23.6055C86.6642 23.4511 86.7077 23.3227 86.7854 23.2203C86.8891 23.0839 87.0162 23.0056 87.1668 22.9855L88.6122 22.7924C88.7628 22.7722 88.8276 22.687 88.8066 22.5365L88.741 17.442C88.7501 17.2876 88.7936 17.1592 88.8713 17.0568C88.975 16.9204 89.1022 16.8421 89.2527 16.822L94.1762 16.1642C94.3268 16.1441 94.4556 16.1882 94.5627 16.2964C94.6656 16.3746 94.7125 16.491 94.7034 16.6455L94.7691 21.7399C94.79 21.8904 94.8758 21.9555 95.0263 21.9354L97.4655 21.6096C97.6161 21.5894 97.7449 21.6335 97.852 21.7418C97.9549 21.82 98.0018 21.9364 97.9927 22.0908L98.0578 25.5303Z" fill="#E78DE8"/>
<path d="M20.581 22.6597C22.9299 22.3459 24.8803 22.8056 26.4325 24.0388C27.9804 25.2419 28.9179 27.017 29.2449 29.364C29.2869 29.6649 29.328 30.1805 29.3684 30.9107L29.5763 44.9513C29.5988 47.0938 29.1448 49.0088 28.2143 50.6963C27.3139 52.3797 26.0345 53.6541 24.3759 54.5193C24.2597 54.5655 24.1949 54.6508 24.1815 54.7751L24.2644 58.672C24.2552 58.8264 24.1967 58.9569 24.0888 59.0632C24.0153 59.1957 23.9032 59.2719 23.7526 59.292L18.6033 59.98C18.4527 60.0001 18.3239 59.956 18.2168 59.8477C18.1139 59.7695 18.067 59.6532 18.0761 59.4987L18.0384 55.5959C18.0217 55.4755 17.951 55.4083 17.8263 55.3943C16.3958 55.0337 15.201 54.2739 14.242 53.1147C13.313 51.9515 12.7291 50.5123 12.4901 48.7972C12.3979 48.1352 12.3567 47.6197 12.3666 47.2505L12.1136 33.2159C12.0591 30.4034 12.8028 28.0359 14.3447 26.1135C15.9125 24.157 17.9913 23.0057 20.581 22.6597ZM18.5589 47.1129C18.5497 47.2673 18.5619 47.4649 18.5955 47.7057C18.7045 48.488 18.9711 49.0807 19.3953 49.4838C19.8497 49.8828 20.3931 50.0401 21.0255 49.9556C21.7783 49.855 22.3558 49.4867 22.7579 48.8506C23.1902 48.2105 23.4016 47.416 23.392 46.4672L23.1762 31.0483C23.1853 30.8939 23.1731 30.6963 23.1396 30.4555C23.0306 29.6732 22.7489 29.0825 22.2945 28.6834C21.8703 28.2804 21.3269 28.1231 20.6644 28.2116C19.9417 28.3082 19.3642 28.6765 18.932 29.3166C18.4997 29.9567 18.2883 30.7512 18.2978 31.7001L18.5589 47.1129ZM43.9313 29.011C43.9405 28.8566 43.9839 28.7281 44.0617 28.6258C44.1654 28.4894 44.2925 28.4111 44.4431 28.391L49.5924 27.703C49.743 27.6829 49.8718 27.727 49.9789 27.8353C50.0819 27.9135 50.1287 28.0298 50.1196 28.1843L50.4909 50.6625C50.4817 50.817 50.4253 50.9625 50.3216 51.0989C50.2439 51.2013 50.1297 51.2625 49.9791 51.2826L44.8298 51.9706C44.6792 51.9907 44.5525 51.9616 44.4496 51.8834C44.3425 51.7751 44.2935 51.6438 44.3026 51.4893L44.2861 50.7099C44.3036 50.6156 44.2802 50.5575 44.2157 50.5354C44.1513 50.5134 44.0953 50.5515 44.0476 50.6498C43.2433 51.922 41.9378 52.6788 40.131 52.9201C38.5651 53.1293 37.2245 52.864 36.1092 52.1242C34.9897 51.3542 34.3021 50.0515 34.0463 48.216C34.0086 47.9452 33.9779 47.5049 33.9543 46.895L33.6778 30.3809C33.687 30.2264 33.7304 30.098 33.8082 29.9957C33.9119 29.8592 34.039 29.7809 34.1896 29.7608L39.3389 29.0729C39.4895 29.0528 39.6183 29.0968 39.7254 29.2051C39.8283 29.2833 39.8752 29.3997 39.8661 29.5541L40.1283 44.645C40.1191 44.7994 40.1355 45.0271 40.1774 45.328C40.2697 45.99 40.4764 46.4834 40.7978 46.8083C41.145 47.0991 41.5897 47.2082 42.1317 47.1358C42.7942 47.0473 43.3006 46.7191 43.6509 46.1513C44.0012 45.5834 44.1758 44.8551 44.1747 43.9664L43.9313 29.011ZM70.9982 21.3031C70.9891 21.4576 70.9326 21.603 70.829 21.7395C70.7512 21.8418 70.637 21.903 70.4865 21.9232L61.3622 23.1422C61.2116 23.1623 61.1468 23.2476 61.1678 23.398L61.258 30.65C61.279 30.8005 61.3497 30.8677 61.4701 30.8516L66.7098 30.1516C66.8604 30.1314 66.9892 30.1755 67.0963 30.2838C67.1992 30.362 67.2461 30.4784 67.237 30.6328L67.305 35.0833C67.2958 35.2378 67.2394 35.3833 67.1357 35.5197C67.0579 35.6221 66.9438 35.6833 66.7932 35.7034L61.5987 36.3974C61.418 36.4215 61.3382 36.5088 61.3591 36.6593L61.5853 49.1803C61.5762 49.3348 61.5198 49.4802 61.4161 49.6167C61.3082 49.7231 61.179 49.7863 61.0284 49.8064L55.9243 50.4883C55.7737 50.5084 55.6469 50.4794 55.544 50.4012C55.4369 50.2929 55.3879 50.1615 55.3971 50.0071L54.895 18.9949C54.9041 18.8404 54.9476 18.712 55.0254 18.6097C55.129 18.4732 55.2562 18.3949 55.4067 18.3748L70.4031 16.3713C70.5536 16.3512 70.6825 16.3953 70.7896 16.5036C70.8925 16.5818 70.9394 16.6981 70.9302 16.8526L70.9982 21.3031ZM77.6313 21.2904C76.7279 21.4111 75.9503 21.2238 75.2985 20.7286C74.6467 20.2333 74.26 19.5493 74.1384 18.6767C73.9707 17.4731 74.2109 16.4449 74.8589 15.5921C75.5027 14.7092 76.3817 14.1933 77.4959 14.0444C78.4294 13.9197 79.2049 14.092 79.8224 14.5612C80.4399 15.0304 80.8116 15.7163 80.9373 16.619C81.0967 17.7624 80.8414 18.7927 80.1717 19.7097C79.5321 20.6227 78.6853 21.1496 77.6313 21.2904ZM75.5371 47.868C75.3865 47.8882 75.2598 47.8591 75.1569 47.7809C75.0497 47.6726 75.0008 47.5412 75.0099 47.3868L74.6386 24.9085C74.6478 24.754 74.6912 24.6256 74.769 24.5233C74.8727 24.3868 74.9998 24.3086 75.1504 24.2884L80.2997 23.6005C80.4503 23.5804 80.5791 23.6245 80.6862 23.7328C80.7891 23.811 80.836 23.9273 80.8269 24.0818L81.1982 46.56C81.189 46.7145 81.1326 46.86 81.0289 46.9964C80.9512 47.0987 80.837 47.16 80.6864 47.1801L75.5371 47.868ZM95.7941 25.5303C95.785 25.6847 95.7286 25.8302 95.6249 25.9667C95.5471 26.069 95.4329 26.1302 95.2824 26.1503L92.7981 26.4823C92.7378 26.4903 92.6818 26.5284 92.6299 26.5967C92.604 26.6308 92.5953 26.6779 92.6036 26.7381L92.7904 37.6552C92.7813 37.8097 92.7956 38.0224 92.8333 38.2932C92.9214 38.9251 93.1177 39.3433 93.4222 39.5478C93.7569 39.7483 94.1931 39.7973 94.731 39.6948L95.0472 39.6525C95.1977 39.6324 95.3266 39.6765 95.4337 39.7848C95.5366 39.863 95.5835 39.9793 95.5743 40.1338L95.6486 44.6294C95.6394 44.7839 95.583 44.9294 95.4793 45.0658C95.4016 45.1682 95.2874 45.2294 95.1369 45.2495L93.3752 45.4849C91.448 45.7423 89.9477 45.6516 88.8743 45.2127C87.7967 44.7436 87.1447 43.6967 86.9183 42.0718C86.889 41.8612 86.8667 41.481 86.8514 40.9314L86.6412 27.5347C86.6203 27.3842 86.5496 27.3171 86.4291 27.3331L84.9837 27.5263C84.8331 27.5464 84.7064 27.5173 84.6035 27.4391C84.4964 27.3308 84.4474 27.1995 84.4565 27.045L84.3914 23.6055C84.4006 23.4511 84.444 23.3227 84.5218 23.2203C84.6255 23.0839 84.7526 23.0056 84.9031 22.9855L86.3486 22.7924C86.4991 22.7722 86.5639 22.687 86.543 22.5365L86.4773 17.442C86.4865 17.2876 86.5299 17.1592 86.6077 17.0568C86.7114 16.9204 86.8385 16.8421 86.989 16.822L91.9125 16.1642C92.0631 16.1441 92.1919 16.1882 92.2991 16.2964C92.402 16.3746 92.4489 16.491 92.4397 16.6455L92.5054 21.7399C92.5263 21.8904 92.6121 21.9555 92.7627 21.9354L95.2018 21.6096C95.3524 21.5894 95.4812 21.6335 95.5883 21.7418C95.6913 21.82 95.7381 21.9364 95.729 22.0908L95.7941 25.5303Z" fill="#F8DFFF"/>
<path d="M102.664 0C102.202 4.55315 101.39 6.16813 98.8384 7.17999C101.373 8.904 102.081 10.5543 102.664 14.1519C103.549 10.5313 104.33 8.95163 106.383 7.17999C104.373 6.13191 103.589 4.45672 102.664 0Z" fill="url(#paint0_linear_801_3707)"/>
<path d="M5.73838 50.2391C5.04578 57.0689 3.82706 59.4913 0 61.0091C3.80142 63.5951 4.86438 66.0706 5.73838 71.4669C7.06647 66.036 8.23765 63.6666 11.3174 61.0091C8.30207 59.437 7.12538 56.9242 5.73838 50.2391Z" fill="url(#paint1_linear_801_3707)"/>
<path d="M66.0155 7.3881C66.0155 8.80303 64.8419 9.96359 63.3773 9.96359C61.9127 9.96359 60.7391 8.80303 60.7391 7.3881C60.7391 5.97318 61.9127 4.81262 63.3773 4.81262C64.8419 4.81262 66.0155 5.97318 66.0155 7.3881Z" stroke="#8EE297" stroke-width="0.759517"/>
<path d="M98.4584 57.6272C98.4584 59.0422 97.2848 60.2027 95.8202 60.2027C94.3556 60.2027 93.182 59.0422 93.182 57.6272C93.182 56.2123 94.3556 55.0518 95.8202 55.0518C97.2848 55.0518 98.4584 56.2123 98.4584 57.6272Z" stroke="#8EE297" stroke-width="0.759517"/>
<path d="M34.3268 20.3172C34.3268 21.1201 33.6599 21.7845 32.8203 21.7845C31.9808 21.7845 31.3138 21.1201 31.3138 20.3172C31.3138 19.5144 31.9808 18.85 32.8203 18.85C33.6599 18.85 34.3268 19.5144 34.3268 20.3172Z" stroke="#EEDB98" stroke-width="0.759517"/>
<path d="M59.9796 62.4295C59.9796 63.2324 59.3127 63.8968 58.4731 63.8968C57.6336 63.8968 56.9667 63.2324 56.9667 62.4295C56.9667 61.6267 57.6336 60.9623 58.4731 60.9623C59.3127 60.9623 59.9796 61.6267 59.9796 62.4295Z" stroke="#EEDB98" stroke-width="0.759517"/>
<g filter="url(#filter1_df_801_3707)">
<path d="M10.688 23.8886V24.9641C10.688 25.0295 10.7145 25.0922 10.7618 25.1385C10.809 25.1847 10.8731 25.2107 10.9399 25.2107C11.0067 25.2107 11.0708 25.1847 11.118 25.1385C11.1652 25.0922 11.1918 25.0295 11.1918 24.9641V23.8886C11.1918 23.8232 11.1652 23.7605 11.118 23.7142C11.0708 23.668 11.0067 23.642 10.9399 23.642C10.8731 23.642 10.809 23.668 10.7618 23.7142C10.7145 23.7605 10.688 23.8232 10.688 23.8886Z" fill="white"/>
<path d="M10.688 26.9406V28.0161C10.688 28.0815 10.7145 28.1442 10.7618 28.1905C10.809 28.2367 10.8731 28.2627 10.9399 28.2627C11.0067 28.2627 11.0708 28.2367 11.118 28.1905C11.1652 28.1442 11.1918 28.0815 11.1918 28.0161V26.9406C11.1918 26.8752 11.1652 26.8125 11.118 26.7662C11.0708 26.72 11.0067 26.694 10.9399 26.694C10.8731 26.694 10.809 26.72 10.7618 26.7662C10.7145 26.8125 10.688 26.8752 10.688 26.9406Z" fill="white"/>
<path d="M10.4688 26.0535L11.0077 26.8744L11.4119 26.2587L11.0077 25.0273L10.4688 26.0535Z" fill="white" stroke="white" stroke-width="0.759517"/>
<path d="M12.5748 25.7041H11.4799C11.4131 25.7041 11.349 25.7301 11.3018 25.7763C11.2546 25.8225 11.228 25.8852 11.228 25.9506C11.228 26.016 11.2546 26.0787 11.3018 26.1249C11.349 26.1712 11.4131 26.1971 11.4799 26.1971H12.5748C12.6416 26.1971 12.7057 26.1712 12.7529 26.1249C12.8002 26.0787 12.8267 26.016 12.8267 25.9506C12.8267 25.8852 12.8002 25.8225 12.7529 25.7763C12.7057 25.7301 12.6416 25.7041 12.5748 25.7041Z" fill="white"/>
<path d="M10.4044 26.1971C10.4712 26.1971 10.5352 26.1712 10.5825 26.1249C10.6297 26.0787 10.6563 26.016 10.6563 25.9506C10.6563 25.8852 10.6297 25.8225 10.5825 25.7763C10.5352 25.7301 10.4712 25.7041 10.4044 25.7041H9.30609C9.23929 25.7041 9.17522 25.7301 9.12798 25.7763C9.08074 25.8225 9.0542 25.8852 9.0542 25.9506C9.0542 26.016 9.08074 26.0787 9.12798 26.1249C9.17522 26.1712 9.23929 26.1971 9.30609 26.1971H10.4044Z" fill="white"/>
</g>
<g filter="url(#filter2_df_801_3707)">
<path d="M94.9413 42.5401V40.3892C94.9413 40.3617 94.9524 40.3336 94.9748 40.3117C94.9975 40.2895 95.0299 40.2756 95.0653 40.2756C95.1008 40.2756 95.1332 40.2895 95.1558 40.3117C95.1783 40.3336 95.1893 40.3617 95.1893 40.3892V42.5401C95.1893 42.5676 95.1783 42.5956 95.1558 42.6176C95.1332 42.6398 95.1008 42.6536 95.0653 42.6536C95.0299 42.6536 94.9975 42.6398 94.9748 42.6176C94.9524 42.5956 94.9413 42.5676 94.9413 42.5401Z" fill="white" stroke="white" stroke-width="0.759517"/>
<path d="M94.9413 48.644V46.4931C94.9413 46.4656 94.9524 46.4375 94.9748 46.4156C94.9975 46.3934 95.0299 46.3795 95.0653 46.3795C95.1008 46.3795 95.1332 46.3934 95.1558 46.4156C95.1783 46.4375 95.1893 46.4656 95.1893 46.4931V48.644C95.1893 48.6715 95.1783 48.6995 95.1558 48.7215C95.1332 48.7437 95.1008 48.7575 95.0653 48.7575C95.0299 48.7575 94.9975 48.7437 94.9748 48.7215C94.9524 48.6995 94.9413 48.6715 94.9413 48.644Z" fill="white" stroke="white" stroke-width="0.759517"/>
<path d="M94.1226 44.7186L95.2004 46.3604L96.0088 45.1291L95.2004 42.6664L94.1226 44.7186Z" fill="white" stroke="white" stroke-width="0.759517"/>
<path d="M96.1449 44.3997H98.3347C98.3702 44.3997 98.4027 44.4135 98.4253 44.4357C98.4477 44.4576 98.4587 44.4856 98.4587 44.5129C98.4587 44.5403 98.4477 44.5682 98.4253 44.5901C98.4027 44.6123 98.3702 44.6262 98.3347 44.6262H96.1449C96.1094 44.6262 96.0769 44.6123 96.0543 44.5901C96.0319 44.5682 96.0209 44.5403 96.0209 44.5129C96.0209 44.4856 96.0319 44.4576 96.0543 44.4357C96.0769 44.4135 96.1094 44.3997 96.1449 44.3997Z" fill="white" stroke="white" stroke-width="0.759517"/>
<path d="M94.0839 44.5901C94.0612 44.6123 94.0288 44.6262 93.9933 44.6262H91.7968C91.7612 44.6262 91.7288 44.6123 91.7061 44.5901C91.6838 44.5682 91.6727 44.5403 91.6727 44.5129C91.6727 44.4856 91.6838 44.4576 91.7061 44.4357C91.7288 44.4135 91.7612 44.3997 91.7968 44.3997H93.9933C94.0288 44.3997 94.0612 44.4135 94.0839 44.4357C94.1063 44.4576 94.1173 44.4856 94.1173 44.5129C94.1173 44.5403 94.1063 44.5682 94.0839 44.5901Z" fill="white" stroke="white" stroke-width="0.759517"/>
</g>
</g>
<defs>
<filter id="filter0_d_801_3707" x="0" y="0" width="112.566" height="77.6501" filterUnits="userSpaceOnUse" color-interpolation-filters="sRGB">
<feFlood flood-opacity="0" result="BackgroundImageFix"/>
<feColorMatrix in="SourceAlpha" type="matrix" values="0 0 0 0 0 0 0 0 0 0 0 0 0 0 0 0 0 0 127 0" result="hardAlpha"/>
<feOffset dx="3.09157" dy="3.09157"/>
<feGaussianBlur stdDeviation="1.54578"/>
<feComposite in2="hardAlpha" operator="out"/>
<feColorMatrix type="matrix" values="0 0 0 0 0.501538 0 0 0 0 0.0165321 0 0 0 0 0.610417 0 0 0 0.23 0"/>
<feBlend mode="normal" in2="BackgroundImageFix" result="effect1_dropShadow_801_3707"/>
<feBlend mode="normal" in="SourceGraphic" in2="effect1_dropShadow_801_3707" result="shape"/>
</filter>
<filter id="filter1_df_801_3707" x="4.49709" y="19.0849" width="18.9628" height="19.8111" filterUnits="userSpaceOnUse" color-interpolation-filters="sRGB">
<feFlood flood-opacity="0" result="BackgroundImageFix"/>
<feColorMatrix in="SourceAlpha" type="matrix" values="0 0 0 0 0 0 0 0 0 0 0 0 0 0 0 0 0 0 127 0" result="hardAlpha"/>
<feOffset dx="3.03807" dy="3.03807"/>
<feGaussianBlur stdDeviation="3.79759"/>
<feComposite in2="hardAlpha" operator="out"/>
<feColorMatrix type="matrix" values="0 0 0 0 0.898039 0 0 0 0 0.52549 0 0 0 0 0.905882 0 0 0 0.3 0"/>
<feBlend mode="normal" in2="BackgroundImageFix" result="effect1_dropShadow_801_3707"/>
<feBlend mode="normal" in="SourceGraphic" in2="effect1_dropShadow_801_3707" result="shape"/>
<feGaussianBlur stdDeviation="0.379759" result="effect2_foregroundBlur_801_3707"/>
</filter>
<filter id="filter2_df_801_3707" x="86.7359" y="35.3388" width="22.7358" height="24.4318" filterUnits="userSpaceOnUse" color-interpolation-filters="sRGB">
<feFlood flood-opacity="0" result="BackgroundImageFix"/>
<feColorMatrix in="SourceAlpha" type="matrix" values="0 0 0 0 0 0 0 0 0 0 0 0 0 0 0 0 0 0 127 0" result="hardAlpha"/>
<feOffset dx="3.03807" dy="3.03807"/>
<feGaussianBlur stdDeviation="3.79759"/>
<feComposite in2="hardAlpha" operator="out"/>
<feColorMatrix type="matrix" values="0 0 0 0 0.898039 0 0 0 0 0.52549 0 0 0 0 0.905882 0 0 0 0.3 0"/>
<feBlend mode="normal" in2="BackgroundImageFix" result="effect1_dropShadow_801_3707"/>
<feBlend mode="normal" in="SourceGraphic" in2="effect1_dropShadow_801_3707" result="shape"/>
<feGaussianBlur stdDeviation="0.379759" result="effect2_foregroundBlur_801_3707"/>
</filter>
<linearGradient id="paint0_linear_801_3707" x1="101.102" y1="4.06346" x2="106.235" y2="11.5529" gradientUnits="userSpaceOnUse">
<stop stop-color="#69F977"/>
<stop offset="0.494" stop-color="#69F977"/>
<stop offset="1" stop-color="#37A441"/>
</linearGradient>
<linearGradient id="paint1_linear_801_3707" x1="3.39521" y1="56.3343" x2="11.0957" y2="67.5684" gradientUnits="userSpaceOnUse">
<stop stop-color="#69F977"/>
<stop offset="0.494" stop-color="#69F977"/>
<stop offset="1" stop-color="#37A441"/>
</linearGradient>
</defs>
</svg>
