<svg width="495" height="447" viewBox="0 0 495 447" fill="none" xmlns="http://www.w3.org/2000/svg">
<path d="M165.505 104.227C185.383 101.515 201.873 105.365 214.975 115.778C228.043 125.936 235.932 140.954 238.644 160.832C238.992 163.381 239.328 167.748 239.653 173.933L241.086 292.888C241.227 311.04 237.341 327.276 229.431 341.594C221.775 355.877 210.921 366.703 196.871 374.072C195.886 374.466 195.336 375.19 195.22 376.244L195.831 409.258C195.75 410.567 195.252 411.673 194.336 412.577C193.711 413.7 192.761 414.349 191.487 414.523L147.909 420.469C146.635 420.642 145.546 420.272 144.642 419.357C143.773 418.697 143.379 417.712 143.46 416.403L143.232 383.337C143.093 382.317 142.496 381.75 141.442 381.634C129.348 378.612 119.258 372.201 111.172 362.401C103.341 352.567 98.434 340.387 96.4521 325.861C95.6872 320.254 95.3509 315.887 95.4434 312.759L93.6278 193.857C93.2323 170.028 99.5789 149.953 112.668 133.63C125.976 117.018 143.589 107.217 165.505 104.227ZM147.831 311.453C147.75 312.761 147.849 314.435 148.127 316.474C149.031 323.1 151.273 328.116 154.853 331.521C158.687 334.892 163.28 336.212 168.632 335.482C175.003 334.613 179.897 331.479 183.314 326.08C186.986 320.647 188.792 313.911 188.734 305.872L187.265 175.24C187.346 173.931 187.247 172.258 186.969 170.219C186.065 163.593 183.696 158.595 179.861 155.224C176.282 151.818 171.689 150.498 166.082 151.263C159.966 152.098 155.072 155.231 151.4 160.665C147.728 166.098 145.922 172.834 145.98 180.873L147.831 311.453ZM415.212 115.715C415.131 117.024 414.65 118.258 413.77 119.417C413.11 120.285 412.143 120.807 410.868 120.981L333.651 131.516C332.377 131.69 331.826 132.414 332 133.688L332.595 195.129C332.769 196.403 333.366 196.971 334.385 196.832L378.728 190.782C380.002 190.608 381.091 190.978 381.995 191.894C382.864 192.554 383.257 193.538 383.176 194.847L383.648 232.553C383.567 233.862 383.087 235.096 382.206 236.254C381.546 237.123 380.579 237.644 379.305 237.818L335.344 243.816C333.815 244.024 333.138 244.766 333.311 246.04L334.935 352.12C334.854 353.429 334.373 354.662 333.493 355.821C332.578 356.724 331.483 357.263 330.209 357.437L287.013 363.33C285.739 363.504 284.667 363.261 283.798 362.601C282.895 361.686 282.484 360.574 282.565 359.265L279.036 96.5247C279.117 95.2157 279.488 94.1268 280.148 93.258C281.028 92.0995 282.105 91.4334 283.38 91.2595L410.292 73.9442C411.566 73.7703 412.655 74.1409 413.558 75.056C414.427 75.7162 414.821 76.7008 414.74 78.0098L415.212 115.715Z" fill="#BD4ADA"/>
<path d="M156.796 104.227C176.674 101.515 193.164 105.365 206.266 115.778C219.333 125.936 227.223 140.954 229.935 160.832C230.283 163.381 230.619 167.748 230.944 173.933L232.377 292.888C232.517 311.04 228.632 327.276 220.721 341.594C213.065 355.877 202.212 366.703 188.161 374.072C187.176 374.466 186.626 375.19 186.51 376.244L187.121 409.258C187.04 410.567 186.542 411.673 185.627 412.577C185.001 413.7 184.052 414.349 182.777 414.523L139.199 420.469C137.925 420.642 136.836 420.272 135.932 419.357C135.064 418.697 134.67 417.712 134.751 416.403L134.522 383.337C134.383 382.317 133.787 381.75 132.733 381.634C120.639 378.612 110.549 372.201 102.462 362.401C94.631 352.567 89.7244 340.387 87.7425 325.861C86.9776 320.254 86.6413 315.887 86.7338 312.759L84.9182 193.857C84.5227 170.028 90.8693 149.953 103.958 133.63C117.267 117.018 134.879 107.217 156.796 104.227ZM139.122 311.453C139.041 312.761 139.139 314.435 139.418 316.474C140.322 323.1 142.563 328.116 146.143 331.521C149.978 334.892 154.571 336.212 159.923 335.482C166.294 334.613 171.188 331.479 174.604 326.08C178.276 320.647 180.083 313.911 180.024 305.872L178.555 175.24C178.636 173.931 178.538 172.258 178.26 170.219C177.356 163.593 174.986 158.595 171.152 155.224C167.572 151.818 162.979 150.498 157.373 151.263C151.256 152.098 146.362 155.231 142.691 160.665C139.019 166.098 137.212 172.834 137.271 180.873L139.122 311.453ZM406.502 115.715C406.421 117.024 405.941 118.258 405.06 119.417C404.4 120.285 403.433 120.807 402.159 120.981L324.941 131.516C323.667 131.69 323.117 132.414 323.291 133.688L323.886 195.129C324.06 196.403 324.656 196.971 325.676 196.832L370.018 190.782C371.293 190.608 372.382 190.978 373.285 191.894C374.154 192.554 374.548 193.538 374.467 194.847L374.939 232.553C374.858 233.862 374.377 235.096 373.497 236.254C372.837 237.123 371.869 237.644 370.595 237.818L326.635 243.816C325.106 244.024 324.428 244.766 324.602 246.04L326.225 352.12C326.144 353.429 325.664 354.662 324.783 355.821C323.868 356.724 322.774 357.263 321.499 357.437L278.303 363.33C277.029 363.504 275.958 363.261 275.089 362.601C274.185 361.686 273.774 360.574 273.855 359.265L270.326 96.5247C270.407 95.2157 270.778 94.1268 271.438 93.258C272.319 92.0995 273.396 91.4334 274.67 91.2595L401.582 73.9442C402.856 73.7703 403.945 74.1409 404.849 75.056C405.718 75.7162 406.112 76.7008 406.031 78.0098L406.502 115.715Z" fill="#E78DE8"/>
<path d="M134.222 104.635C154.1 101.923 170.59 105.774 183.692 116.186C196.76 126.345 204.649 141.363 207.361 161.24C207.709 163.789 208.045 168.156 208.37 174.342L209.803 293.297C209.944 311.449 206.058 327.684 198.148 342.002C190.492 356.286 179.638 367.112 165.588 374.48C164.603 374.874 164.053 375.598 163.937 376.652L164.547 409.666C164.466 410.975 163.968 412.081 163.053 412.985C162.428 414.109 161.478 414.757 160.204 414.931L116.626 420.877C115.351 421.051 114.263 420.68 113.359 419.765C112.49 419.105 112.096 418.12 112.177 416.811L111.949 383.745C111.81 382.726 111.213 382.158 110.159 382.042C98.0653 379.02 87.9752 372.609 79.889 362.809C72.0575 352.975 67.1509 340.795 65.169 326.269C64.4041 320.662 64.0678 316.295 64.1603 313.168L62.3448 194.265C61.9492 170.437 68.2958 150.361 81.3844 134.039C94.6932 117.427 112.306 107.625 134.222 104.635ZM116.548 311.861C116.467 313.17 116.566 314.844 116.844 316.882C117.748 323.508 119.99 328.524 123.57 331.929C127.404 335.3 131.997 336.62 137.349 335.89C143.72 335.021 148.614 331.887 152.031 326.489C155.703 321.056 157.509 314.319 157.451 306.28L155.982 175.649C156.063 174.34 155.964 172.666 155.686 170.627C154.782 164.001 152.413 159.003 148.578 155.632C144.999 152.227 140.406 150.907 134.799 151.671C128.683 152.506 123.789 155.64 120.117 161.073C116.445 166.506 114.639 173.242 114.697 181.281L116.548 311.861ZM383.929 116.124C383.848 117.433 383.367 118.666 382.487 119.825C381.827 120.694 380.859 121.215 379.585 121.389L302.368 131.924C301.093 132.098 300.543 132.822 300.717 134.096L301.312 195.537C301.486 196.811 302.083 197.379 303.102 197.24L347.445 191.19C348.719 191.016 349.808 191.387 350.712 192.302C351.58 192.962 351.974 193.947 351.893 195.256L352.365 232.961C352.284 234.27 351.804 235.504 350.923 236.662C350.263 237.531 349.296 238.053 348.022 238.226L304.061 244.224C302.532 244.433 301.854 245.174 302.028 246.448L303.652 352.528C303.571 353.837 303.09 355.071 302.21 356.229C301.295 357.133 300.2 357.671 298.926 357.845L255.73 363.739C254.456 363.913 253.384 363.669 252.515 363.009C251.612 362.094 251.2 360.982 251.281 359.673L247.753 96.933C247.834 95.624 248.205 94.5351 248.865 93.6663C249.745 92.5078 250.822 91.8417 252.097 91.6678L379.009 74.3525C380.283 74.1786 381.372 74.5492 382.275 75.4643C383.144 76.1245 383.538 77.1091 383.457 78.4181L383.929 116.124Z" fill="#F8DFFF"/>
<g filter="url(#filter0_df_341_152)">
<path d="M53.0883 108.327V117.687C53.0883 118.256 53.3144 118.802 53.717 119.205C54.1196 119.607 54.6657 119.833 55.235 119.833C55.8044 119.833 56.3504 119.607 56.753 119.205C57.1556 118.802 57.3818 118.256 57.3818 117.687V108.327C57.3818 107.757 57.1556 107.211 56.753 106.809C56.3504 106.406 55.8044 106.18 55.235 106.18C54.6657 106.18 54.1196 106.406 53.717 106.809C53.3144 107.211 53.0883 107.757 53.0883 108.327Z" fill="white"/>
<path d="M53.0883 134.889V144.249C53.0883 144.819 53.3144 145.365 53.717 145.767C54.1196 146.17 54.6657 146.396 55.235 146.396C55.8044 146.396 56.3504 146.17 56.753 145.767C57.1556 145.365 57.3818 144.819 57.3818 144.249V134.889C57.3818 134.32 57.1556 133.774 56.753 133.371C56.3504 132.969 55.8044 132.743 55.235 132.743C54.6657 132.743 54.1196 132.969 53.717 133.371C53.3144 133.774 53.0883 134.32 53.0883 134.889Z" fill="white"/>
<path d="M51.2178 127.167L55.8107 134.312L59.2554 128.953L55.8107 118.236L51.2178 127.167Z" fill="white" stroke="white" stroke-width="6.43011"/>
<path d="M69.1652 124.127H59.8339C59.2645 124.127 58.7185 124.353 58.3159 124.756C57.9133 125.159 57.6871 125.705 57.6871 126.274C57.6871 126.843 57.9133 127.389 58.3159 127.792C58.7185 128.195 59.2645 128.421 59.8339 128.421H69.1652C69.7345 128.421 70.2806 128.195 70.6832 127.792C71.0858 127.389 71.3119 126.843 71.3119 126.274C71.3119 125.705 71.0858 125.159 70.6832 124.756C70.2806 124.353 69.7345 124.127 69.1652 124.127Z" fill="white"/>
<path d="M50.668 128.421C51.2374 128.421 51.7834 128.195 52.186 127.792C52.5886 127.389 52.8148 126.843 52.8148 126.274C52.8148 125.705 52.5886 125.159 52.186 124.756C51.7834 124.353 51.2374 124.127 50.668 124.127H41.3081C40.7388 124.127 40.1927 124.353 39.7902 124.756C39.3876 125.159 39.1614 125.705 39.1614 126.274C39.1614 126.843 39.3876 127.389 39.7902 127.792C40.1927 128.195 40.7388 128.421 41.3081 128.421H50.668Z" fill="white"/>
</g>
<g filter="url(#filter1_df_341_152)">
<path d="M371.069 299.43V280.71C371.069 280.424 371.183 280.15 371.385 279.947C371.587 279.745 371.861 279.631 372.147 279.631C372.433 279.631 372.708 279.745 372.91 279.947C373.112 280.15 373.226 280.424 373.226 280.71V299.43C373.226 299.716 373.112 299.99 372.91 300.192C372.708 300.395 372.433 300.508 372.147 300.508C371.861 300.508 371.587 300.395 371.385 300.192C371.183 299.99 371.069 299.716 371.069 299.43Z" fill="white" stroke="white" stroke-width="6.43011"/>
<path d="M371.069 352.555V333.835C371.069 333.549 371.183 333.275 371.385 333.073C371.587 332.87 371.861 332.757 372.147 332.757C372.433 332.757 372.708 332.87 372.91 333.073C373.112 333.275 373.226 333.549 373.226 333.835V352.555C373.226 352.841 373.112 353.115 372.91 353.318C372.708 353.52 372.433 353.634 372.147 353.634C371.861 353.634 371.587 353.52 371.385 353.318C371.183 353.115 371.069 352.841 371.069 352.555Z" fill="white" stroke="white" stroke-width="6.43011"/>
<path d="M364.113 318.391L373.299 332.68L380.188 321.963L373.299 300.529L364.113 318.391Z" fill="white" stroke="white" stroke-width="6.43011"/>
<path d="M381.345 315.525H400.008C400.294 315.525 400.568 315.639 400.77 315.841C400.973 316.043 401.086 316.318 401.086 316.604C401.086 316.89 400.973 317.164 400.77 317.366C400.568 317.569 400.294 317.682 400.008 317.682H381.345C381.059 317.682 380.785 317.569 380.583 317.366C380.38 317.164 380.267 316.89 380.267 316.604C380.267 316.318 380.38 316.043 380.583 315.841C380.785 315.639 381.059 315.525 381.345 315.525Z" fill="white" stroke="white" stroke-width="6.43011"/>
<path d="M363.776 317.366C363.574 317.569 363.299 317.682 363.013 317.682H344.294C344.007 317.682 343.733 317.569 343.531 317.366C343.329 317.164 343.215 316.89 343.215 316.604C343.215 316.318 343.329 316.043 343.531 315.841C343.733 315.639 344.007 315.525 344.294 315.525H363.013C363.299 315.525 363.574 315.639 363.776 315.841C363.978 316.043 364.092 316.318 364.092 316.604C364.092 316.89 363.978 317.164 363.776 317.366Z" fill="white" stroke="white" stroke-width="6.43011"/>
</g>
<defs>
<filter id="filter0_df_341_152" x="0.580711" y="67.5993" width="160.753" height="168.818" filterUnits="userSpaceOnUse" color-interpolation-filters="sRGB">
<feFlood flood-opacity="0" result="BackgroundImageFix"/>
<feColorMatrix in="SourceAlpha" type="matrix" values="0 0 0 0 0 0 0 0 0 0 0 0 0 0 0 0 0 0 127 0" result="hardAlpha"/>
<feOffset dx="25.7204" dy="25.7204"/>
<feGaussianBlur stdDeviation="32.1506"/>
<feComposite in2="hardAlpha" operator="out"/>
<feColorMatrix type="matrix" values="0 0 0 0 0.898039 0 0 0 0 0.52549 0 0 0 0 0.905882 0 0 0 0.3 0"/>
<feBlend mode="normal" in2="BackgroundImageFix" result="effect1_dropShadow_341_152"/>
<feBlend mode="normal" in="SourceGraphic" in2="effect1_dropShadow_341_152" result="shape"/>
<feGaussianBlur stdDeviation="3.21506" result="effect2_foregroundBlur_341_152"/>
</filter>
<filter id="filter1_df_341_152" x="301.419" y="237.836" width="192.903" height="209.034" filterUnits="userSpaceOnUse" color-interpolation-filters="sRGB">
<feFlood flood-opacity="0" result="BackgroundImageFix"/>
<feColorMatrix in="SourceAlpha" type="matrix" values="0 0 0 0 0 0 0 0 0 0 0 0 0 0 0 0 0 0 127 0" result="hardAlpha"/>
<feOffset dx="25.7204" dy="25.7204"/>
<feGaussianBlur stdDeviation="32.1506"/>
<feComposite in2="hardAlpha" operator="out"/>
<feColorMatrix type="matrix" values="0 0 0 0 0.898039 0 0 0 0 0.52549 0 0 0 0 0.905882 0 0 0 0.3 0"/>
<feBlend mode="normal" in2="BackgroundImageFix" result="effect1_dropShadow_341_152"/>
<feBlend mode="normal" in="SourceGraphic" in2="effect1_dropShadow_341_152" result="shape"/>
<feGaussianBlur stdDeviation="3.21506" result="effect2_foregroundBlur_341_152"/>
</filter>
</defs>
</svg>
