<svg width="111" height="72" viewBox="0 0 111 72" fill="none" xmlns="http://www.w3.org/2000/svg">
<path d="M25.6231 23.1545C27.9433 22.8384 29.8681 23.2882 31.3977 24.5039C32.9232 25.6897 33.8445 27.4427 34.1615 29.7627C34.2022 30.0601 34.2415 30.5698 34.2796 31.2917L34.4498 45.175C34.4666 47.2935 34.0135 49.1882 33.0905 50.859C32.1972 52.5259 30.9307 53.7891 29.2908 54.6487C29.1759 54.6947 29.1117 54.7792 29.0982 54.9022L29.1703 58.7553C29.1608 58.908 29.1027 59.0371 28.9959 59.1426C28.923 59.2737 28.8121 59.3494 28.6634 59.3696L23.5769 60.0625C23.4282 60.0828 23.3011 60.0395 23.1956 59.9327C23.0942 59.8556 23.0482 59.7407 23.0576 59.5879L23.0301 55.7287C23.0139 55.6098 22.9442 55.5435 22.8212 55.53C21.4095 55.1769 20.2316 54.4284 19.2875 53.2846C18.3731 52.1366 17.8001 50.715 17.5684 49.0196C17.479 48.3652 17.4397 47.8555 17.4504 47.4905L17.2356 33.6134C17.1888 30.8324 17.9291 28.4896 19.4564 26.5849C21.0095 24.6464 23.065 23.5029 25.6231 23.1545ZM23.5653 47.3393C23.5558 47.492 23.5674 47.6874 23.5999 47.9253C23.7056 48.6987 23.9674 49.2841 24.3853 49.6816C24.8329 50.0751 25.3691 50.2293 25.9938 50.1442C26.7374 50.0429 27.3085 49.6773 27.7072 49.0474C28.1357 48.4134 28.3464 47.6272 28.3394 46.689L28.1647 31.443C28.1741 31.2902 28.1626 31.0949 28.1301 30.8569C28.0244 30.0836 27.7477 29.5002 27.3001 29.1067C26.8822 28.7092 26.346 28.555 25.6916 28.6441C24.9777 28.7413 24.4066 29.107 23.9781 29.741C23.5497 30.375 23.339 31.1611 23.346 32.0994L23.5653 47.3393ZM48.6645 29.3777C48.6739 29.225 48.7172 29.0979 48.7942 28.9965C48.8969 28.8613 49.0227 28.7836 49.1714 28.7634L54.2578 28.0705C54.4066 28.0502 54.5337 28.0935 54.6392 28.2003C54.7406 28.2774 54.7866 28.3923 54.7772 28.5451L55.0876 50.7712C55.0782 50.924 55.0221 51.068 54.9194 51.2032C54.8424 51.3046 54.7295 51.3654 54.5808 51.3856L49.4943 52.0785C49.3456 52.0987 49.2205 52.0703 49.1191 51.9933C49.0136 51.8864 48.9656 51.7566 48.975 51.6039L48.9606 50.8333C48.9781 50.74 48.9551 50.6825 48.8916 50.6609C48.828 50.6392 48.7726 50.6771 48.7253 50.7744C47.9279 52.0343 46.6368 52.7858 44.8521 53.0289C43.3054 53.2396 41.9823 52.9806 40.8828 52.2517C39.7793 51.4931 39.1035 50.2066 38.8556 48.3923C38.819 48.1246 38.7898 47.6892 38.768 47.0863L38.5362 30.7574C38.5457 30.6046 38.5889 30.4775 38.6659 30.3761C38.7687 30.2409 38.8944 30.1632 39.0431 30.143L44.1296 29.4501C44.2783 29.4299 44.4054 29.4731 44.5109 29.58C44.6123 29.657 44.6583 29.772 44.6489 29.9247L44.8701 44.8463C44.8607 44.999 44.8763 45.2241 44.9169 45.5216C45.0064 46.1759 45.2093 46.6633 45.5258 46.9838C45.868 47.2704 46.3068 47.3773 46.8422 47.3044C47.4966 47.2152 47.9974 46.8895 48.3448 46.3271C48.6921 45.7648 48.8663 45.0442 48.8674 44.1654L48.6645 29.3777ZM75.411 21.6898C75.4015 21.8426 75.3455 21.9866 75.2427 22.1217C75.1657 22.2231 75.0528 22.284 74.9041 22.3042L65.8913 23.5319C65.7425 23.5521 65.6783 23.6366 65.6987 23.7854L65.7696 30.9561C65.79 31.1048 65.8596 31.1711 65.9786 31.1549L71.1543 30.4499C71.303 30.4296 71.4301 30.4729 71.5356 30.5797C71.637 30.6568 71.683 30.7717 71.6736 30.9245L71.7296 35.3251C71.7202 35.4779 71.6641 35.6218 71.5614 35.757C71.4844 35.8584 71.3715 35.9192 71.2227 35.9395L66.0917 36.6384C65.9132 36.6627 65.8341 36.7492 65.8545 36.898L66.0466 49.2785C66.0371 49.4313 65.9811 49.5752 65.8783 49.7104C65.7716 49.8158 65.6438 49.8787 65.4951 49.899L60.4532 50.5857C60.3045 50.606 60.1794 50.5776 60.078 50.5005C59.9725 50.3937 59.9245 50.2639 59.9339 50.1111L59.5156 19.4468C59.525 19.294 59.5683 19.1669 59.6453 19.0655C59.748 18.9303 59.8737 18.8526 60.0225 18.8324L74.8356 16.8146C74.9843 16.7943 75.1115 16.8376 75.217 16.9444C75.3184 17.0215 75.3644 17.1364 75.355 17.2892L75.411 21.6898ZM81.9608 21.6611C81.0685 21.7827 80.3011 21.5994 79.6587 21.1112C79.0163 20.6231 78.6362 19.9477 78.5183 19.0852C78.3557 17.8954 78.5955 16.8781 79.2375 16.0332C79.8754 15.1586 80.7447 14.6463 81.8453 14.4964C82.7674 14.3708 83.5327 14.5392 84.1413 15.0017C84.7499 15.4641 85.1151 16.1415 85.2371 17.0338C85.3915 18.1641 85.1369 19.1834 84.4733 20.0918C83.8394 20.9962 83.0019 21.5193 81.9608 21.6611ZM79.8265 47.9468C79.6778 47.9671 79.5527 47.9387 79.4512 47.8616C79.3458 47.7548 79.2977 47.625 79.3071 47.4722L78.9967 25.2461C79.0061 25.0933 79.0493 24.9662 79.1264 24.8648C79.2291 24.7297 79.3548 24.6519 79.5035 24.6317L84.59 23.9388C84.7387 23.9186 84.8658 23.9618 84.9713 24.0687C85.0727 24.1457 85.1188 24.2607 85.1093 24.4134L85.4198 46.6396C85.4104 46.7923 85.3543 46.9363 85.2516 47.0715C85.1745 47.1729 85.0617 47.2337 84.9129 47.254L79.8265 47.9468ZM99.8851 25.8092C99.8757 25.962 99.8196 26.1059 99.7169 26.2411C99.6399 26.3425 99.527 26.4033 99.3782 26.4236L96.9243 26.7579C96.8648 26.766 96.8093 26.8038 96.758 26.8714C96.7323 26.9052 96.7235 26.9518 96.7317 27.0113L96.8888 37.806C96.8794 37.9588 96.893 38.169 96.9296 38.4367C97.0149 39.0613 97.2077 39.4744 97.5079 39.6758C97.8379 39.8733 98.2686 39.9206 98.7999 39.818L99.1123 39.7754C99.261 39.7552 99.3881 39.7984 99.4936 39.9053C99.595 39.9823 99.641 40.0973 99.6316 40.25L99.6937 44.6953C99.6843 44.848 99.6282 44.992 99.5255 45.1272C99.4484 45.2286 99.3355 45.2894 99.1868 45.3097L97.4467 45.5467C95.543 45.806 94.0618 45.7199 93.0029 45.2885C91.9401 44.8274 91.2989 43.7937 91.0794 42.1875C91.0509 41.9793 91.0299 41.6035 91.0162 41.06L90.8421 27.8136C90.8218 27.6648 90.7521 27.5986 90.6331 27.6148L89.2054 27.8093C89.0566 27.8295 88.9316 27.8011 88.8301 27.7241C88.7246 27.6172 88.6766 27.4874 88.686 27.3347L88.6303 23.9338C88.6397 23.7811 88.683 23.654 88.76 23.5526C88.8627 23.4174 88.9884 23.3397 89.1372 23.3194L90.5649 23.125C90.7137 23.1047 90.7779 23.0202 90.7576 22.8715L90.7054 17.8341C90.7149 17.6813 90.7581 17.5543 90.8351 17.4529C90.9379 17.3177 91.0636 17.24 91.2123 17.2197L96.0757 16.5573C96.2244 16.537 96.3515 16.5803 96.457 16.6871C96.5584 16.7642 96.6044 16.8791 96.595 17.0319L96.6471 22.0692C96.6674 22.218 96.752 22.2822 96.9007 22.2619L99.3101 21.9337C99.4588 21.9135 99.5859 21.9568 99.6914 22.0636C99.7928 22.1407 99.8388 22.2556 99.8294 22.4083L99.8851 25.8092Z" fill="#BD4ADA"/>
<path d="M24.6134 23.1545C26.9335 22.8384 28.8584 23.2882 30.3879 24.5039C31.9134 25.6897 32.8347 27.4427 33.1518 29.7627C33.1924 30.0601 33.2318 30.5698 33.2698 31.2917L33.44 45.175C33.4569 47.2935 33.0038 49.1882 32.0807 50.859C31.1875 52.5259 29.9209 53.7891 28.281 54.6487C28.1661 54.6947 28.1019 54.7792 28.0884 54.9022L28.1605 58.7553C28.1511 58.908 28.093 59.0371 27.9862 59.1426C27.9132 59.2737 27.8023 59.3494 27.6536 59.3696L22.5672 60.0625C22.4184 60.0828 22.2913 60.0395 22.1858 59.9327C22.0844 59.8556 22.0384 59.7407 22.0478 59.5879L22.0204 55.7287C22.0041 55.6098 21.9345 55.5435 21.8114 55.53C20.3997 55.1769 19.2218 54.4284 18.2777 53.2846C17.3634 52.1366 16.7904 50.715 16.5587 49.0196C16.4693 48.3652 16.4299 47.8555 16.4406 47.4905L16.2258 33.6134C16.179 30.8324 16.9193 28.4896 18.4467 26.5849C19.9997 24.6464 22.0553 23.5029 24.6134 23.1545ZM22.5555 47.3393C22.5461 47.492 22.5576 47.6874 22.5901 47.9253C22.6958 48.6987 22.9576 49.2841 23.3755 49.6816C23.8232 50.0751 24.3593 50.2293 24.984 50.1442C25.7276 50.0429 26.2988 49.6773 26.6975 49.0474C27.1259 48.4134 27.3366 47.6272 27.3296 46.689L27.155 31.443C27.1644 31.2902 27.1528 31.0949 27.1203 30.8569C27.0146 30.0836 26.738 29.5002 26.2903 29.1067C25.8724 28.7092 25.3362 28.555 24.6818 28.6441C23.968 28.7413 23.3968 29.107 22.9683 29.741C22.5399 30.375 22.3292 31.1611 22.3362 32.0994L22.5555 47.3393ZM47.6547 29.3777C47.6642 29.225 47.7074 29.0979 47.7844 28.9965C47.8872 28.8613 48.0129 28.7836 48.1616 28.7634L53.2481 28.0705C53.3968 28.0502 53.5239 28.0935 53.6294 28.2003C53.7308 28.2774 53.7768 28.3923 53.7674 28.5451L54.0779 50.7712C54.0684 50.924 54.0124 51.068 53.9097 51.2032C53.8326 51.3046 53.7197 51.3654 53.571 51.3856L48.4846 52.0785C48.3358 52.0987 48.2108 52.0703 48.1093 51.9933C48.0038 51.8864 47.9558 51.7566 47.9652 51.6039L47.9508 50.8333C47.9684 50.74 47.9453 50.6825 47.8818 50.6609C47.8182 50.6392 47.7628 50.6771 47.7155 50.7744C46.9181 52.0343 45.6271 52.7858 43.8424 53.0289C42.2956 53.2396 40.9725 52.9806 39.873 52.2517C38.7695 51.4931 38.0937 50.2066 37.8458 48.3923C37.8092 48.1246 37.78 47.6892 37.7582 47.0863L37.5265 30.7574C37.5359 30.6046 37.5791 30.4775 37.6562 30.3761C37.7589 30.2409 37.8846 30.1632 38.0333 30.143L43.1198 29.4501C43.2685 29.4299 43.3956 29.4731 43.5011 29.58C43.6026 29.657 43.6486 29.772 43.6391 29.9247L43.8603 44.8463C43.8509 44.999 43.8665 45.2241 43.9072 45.5216C43.9966 46.1759 44.1996 46.6633 44.516 46.9838C44.8582 47.2704 45.297 47.3773 45.8324 47.3044C46.4868 47.2152 46.9877 46.8895 47.335 46.3271C47.6823 45.7648 47.8566 45.0442 47.8577 44.1654L47.6547 29.3777ZM74.4012 21.6898C74.3918 21.8426 74.3357 21.9866 74.233 22.1217C74.1559 22.2231 74.0431 22.284 73.8943 22.3042L64.8815 23.5319C64.7328 23.5521 64.6686 23.6366 64.6889 23.7854L64.7599 30.9561C64.7802 31.1048 64.8498 31.1711 64.9688 31.1549L70.1445 30.4499C70.2932 30.4296 70.4203 30.4729 70.5258 30.5797C70.6273 30.6568 70.6733 30.7717 70.6639 30.9245L70.7198 35.3251C70.7104 35.4779 70.6544 35.6218 70.5516 35.757C70.4746 35.8584 70.3617 35.9192 70.213 35.9395L65.0819 36.6384C64.9034 36.6627 64.8244 36.7492 64.8447 36.898L65.0368 49.2785C65.0274 49.4313 64.9713 49.5752 64.8686 49.7104C64.7618 49.8158 64.634 49.8787 64.4853 49.899L59.4435 50.5857C59.2948 50.606 59.1697 50.5776 59.0682 50.5005C58.9628 50.3937 58.9147 50.2639 58.9241 50.1111L58.5058 19.4468C58.5153 19.294 58.5585 19.1669 58.6355 19.0655C58.7383 18.9303 58.864 18.8526 59.0127 18.8324L73.8259 16.8146C73.9746 16.7943 74.1017 16.8376 74.2072 16.9444C74.3086 17.0215 74.3546 17.1364 74.3452 17.2892L74.4012 21.6898ZM80.9511 21.6611C80.0587 21.7827 79.2913 21.5994 78.649 21.1112C78.0066 20.6231 77.6264 19.9477 77.5086 19.0852C77.346 17.8954 77.5857 16.8781 78.2277 16.0332C78.8657 15.1586 79.7349 14.6463 80.8355 14.4964C81.7576 14.3708 82.5229 14.5392 83.1315 15.0017C83.7401 15.4641 84.1054 16.1415 84.2273 17.0338C84.3818 18.1641 84.1272 19.1834 83.4635 20.0918C82.8296 20.9962 81.9922 21.5193 80.9511 21.6611ZM78.8167 47.9468C78.668 47.9671 78.5429 47.9387 78.4415 47.8616C78.336 47.7548 78.288 47.625 78.2974 47.4722L77.9869 25.2461C77.9963 25.0933 78.0396 24.9662 78.1166 24.8648C78.2193 24.7297 78.3451 24.6519 78.4938 24.6317L83.5802 23.9388C83.7289 23.9186 83.8561 23.9618 83.9616 24.0687C84.063 24.1457 84.109 24.2607 84.0996 24.4134L84.41 46.6396C84.4006 46.7923 84.3445 46.9363 84.2418 47.0715C84.1648 47.1729 84.0519 47.2337 83.9032 47.254L78.8167 47.9468ZM98.8754 25.8092C98.8659 25.962 98.8099 26.1059 98.7071 26.2411C98.6301 26.3425 98.5172 26.4033 98.3685 26.4236L95.9145 26.7579C95.855 26.766 95.7996 26.8038 95.7482 26.8714C95.7225 26.9052 95.7138 26.9518 95.7219 27.0113L95.8791 37.806C95.8696 37.9588 95.8832 38.169 95.9198 38.4367C96.0052 39.0613 96.198 39.4744 96.4982 39.6758C96.8282 39.8733 97.2588 39.9206 97.7902 39.818L98.1025 39.7754C98.2512 39.7552 98.3783 39.7984 98.4838 39.9053C98.5852 39.9823 98.6313 40.0973 98.6218 40.25L98.6839 44.6953C98.6745 44.848 98.6184 44.992 98.5157 45.1272C98.4387 45.2286 98.3258 45.2894 98.1771 45.3097L96.437 45.5467C94.5333 45.806 93.052 45.7199 91.9932 45.2885C90.9303 44.8274 90.2891 43.7937 90.0696 42.1875C90.0412 41.9793 90.0201 41.6035 90.0064 41.06L89.8323 27.8136C89.812 27.6648 89.7424 27.5986 89.6234 27.6148L88.1956 27.8093C88.0469 27.8295 87.9218 27.8011 87.8204 27.7241C87.7149 27.6172 87.6668 27.4874 87.6763 27.3347L87.6205 23.9338C87.63 23.7811 87.6732 23.654 87.7502 23.5526C87.853 23.4174 87.9787 23.3397 88.1274 23.3194L89.5552 23.125C89.7039 23.1047 89.7681 23.0202 89.7478 22.8715L89.6957 17.8341C89.7051 17.6813 89.7483 17.5543 89.8254 17.4529C89.9281 17.3177 90.0538 17.24 90.2025 17.2197L95.0659 16.5573C95.2146 16.537 95.3417 16.5803 95.4472 16.6871C95.5486 16.7642 95.5947 16.8791 95.5852 17.0319L95.6374 22.0692C95.6577 22.218 95.7422 22.2822 95.8909 22.2619L98.3003 21.9337C98.449 21.9135 98.5761 21.9568 98.6816 22.0636C98.7831 22.1407 98.8291 22.2556 98.8196 22.4083L98.8754 25.8092Z" fill="#E78DE8"/>
<path d="M22.377 23.1545C24.6972 22.8384 26.622 23.2882 28.1516 24.5039C29.6771 25.6897 30.5984 27.4427 30.9154 29.7627C30.9561 30.0601 30.9954 30.5698 31.0335 31.2917L31.2037 45.175C31.2205 47.2935 30.7674 49.1882 29.8444 50.859C28.9511 52.5259 27.6846 53.7891 26.0447 54.6487C25.9298 54.6947 25.8656 54.7792 25.8521 54.9022L25.9242 58.7553C25.9147 58.908 25.8566 59.0371 25.7498 59.1426C25.6769 59.2737 25.566 59.3494 25.4173 59.3696L20.3308 60.0625C20.1821 60.0828 20.055 60.0395 19.9495 59.9327C19.8481 59.8556 19.8021 59.7407 19.8115 59.5879L19.7841 55.7287C19.7678 55.6098 19.6981 55.5435 19.5751 55.53C18.1634 55.1769 16.9855 54.4284 16.0414 53.2846C15.1271 52.1366 14.554 50.715 14.3223 49.0196C14.2329 48.3652 14.1936 47.8555 14.2043 47.4905L13.9895 33.6134C13.9427 30.8324 14.683 28.4896 16.2104 26.5849C17.7634 24.6464 19.8189 23.5029 22.377 23.1545ZM20.3192 47.3393C20.3097 47.492 20.3213 47.6874 20.3538 47.9253C20.4595 48.6987 20.7213 49.2841 21.1392 49.6816C21.5869 50.0751 22.123 50.2293 22.7477 50.1442C23.4913 50.0429 24.0625 49.6773 24.4612 49.0474C24.8896 48.4134 25.1003 47.6272 25.0933 46.689L24.9186 31.443C24.9281 31.2902 24.9165 31.0949 24.884 30.8569C24.7783 30.0836 24.5016 29.5002 24.054 29.1067C23.6361 28.7092 23.0999 28.555 22.4455 28.6441C21.7316 28.7413 21.1605 29.107 20.732 29.741C20.3036 30.375 20.0929 31.1611 20.0999 32.0994L20.3192 47.3393ZM45.4184 29.3777C45.4278 29.225 45.4711 29.0979 45.5481 28.9965C45.6508 28.8613 45.7766 28.7836 45.9253 28.7634L51.0117 28.0705C51.1605 28.0502 51.2876 28.0935 51.3931 28.2003C51.4945 28.2774 51.5405 28.3923 51.5311 28.5451L51.8415 50.7712C51.8321 50.924 51.776 51.068 51.6733 51.2032C51.5963 51.3046 51.4834 51.3654 51.3347 51.3856L46.2482 52.0785C46.0995 52.0987 45.9744 52.0703 45.873 51.9933C45.7675 51.8864 45.7195 51.7566 45.7289 51.6039L45.7145 50.8333C45.732 50.74 45.709 50.6825 45.6455 50.6609C45.5819 50.6392 45.5265 50.6771 45.4792 50.7744C44.6818 52.0343 43.3907 52.7858 41.606 53.0289C40.0593 53.2396 38.7362 52.9806 37.6367 52.2517C36.5332 51.4931 35.8574 50.2066 35.6095 48.3923C35.5729 48.1246 35.5437 47.6892 35.5219 47.0863L35.2902 30.7574C35.2996 30.6046 35.3428 30.4775 35.4198 30.3761C35.5226 30.2409 35.6483 30.1632 35.797 30.143L40.8835 29.4501C41.0322 29.4299 41.1593 29.4731 41.2648 29.58C41.3662 29.657 41.4122 29.772 41.4028 29.9247L41.624 44.8463C41.6146 44.999 41.6302 45.2241 41.6708 45.5216C41.7603 46.1759 41.9632 46.6633 42.2797 46.9838C42.6219 47.2704 43.0607 47.3773 43.5961 47.3044C44.2505 47.2152 44.7513 46.8895 45.0987 46.3271C45.446 45.7648 45.6202 45.0442 45.6213 44.1654L45.4184 29.3777ZM72.1649 21.6898C72.1554 21.8426 72.0994 21.9866 71.9966 22.1217C71.9196 22.2231 71.8067 22.284 71.658 22.3042L62.6452 23.5319C62.4965 23.5521 62.4323 23.6366 62.4526 23.7854L62.5235 30.9561C62.5439 31.1048 62.6135 31.1711 62.7325 31.1549L67.9082 30.4499C68.0569 30.4296 68.184 30.4729 68.2895 30.5797C68.3909 30.6568 68.4369 30.7717 68.4275 30.9245L68.4835 35.3251C68.4741 35.4779 68.418 35.6218 68.3153 35.757C68.2383 35.8584 68.1254 35.9192 67.9767 35.9395L62.8456 36.6384C62.6671 36.6627 62.588 36.7492 62.6084 36.898L62.8005 49.2785C62.791 49.4313 62.735 49.5752 62.6322 49.7104C62.5255 49.8158 62.3977 49.8787 62.249 49.899L57.2072 50.5857C57.0584 50.606 56.9334 50.5776 56.8319 50.5005C56.7264 50.3937 56.6784 50.2639 56.6878 50.1111L56.2695 19.4468C56.2789 19.294 56.3222 19.1669 56.3992 19.0655C56.5019 18.9303 56.6277 18.8526 56.7764 18.8324L71.5895 16.8146C71.7383 16.7943 71.8654 16.8376 71.9709 16.9444C72.0723 17.0215 72.1183 17.1364 72.1089 17.2892L72.1649 21.6898ZM78.7147 21.6611C77.8224 21.7827 77.055 21.5994 76.4126 21.1112C75.7702 20.6231 75.3901 19.9477 75.2722 19.0852C75.1096 17.8954 75.3494 16.8781 75.9914 16.0332C76.6293 15.1586 77.4986 14.6463 78.5992 14.4964C79.5213 14.3708 80.2866 14.5392 80.8952 15.0017C81.5038 15.4641 81.869 16.1415 81.991 17.0338C82.1454 18.1641 81.8908 19.1834 81.2272 20.0918C80.5933 20.9962 79.7558 21.5193 78.7147 21.6611ZM76.5804 47.9468C76.4317 47.9671 76.3066 47.9387 76.2052 47.8616C76.0997 47.7548 76.0516 47.625 76.061 47.4722L75.7506 25.2461C75.76 25.0933 75.8032 24.9662 75.8803 24.8648C75.983 24.7297 76.1087 24.6519 76.2574 24.6317L81.3439 23.9388C81.4926 23.9186 81.6197 23.9618 81.7252 24.0687C81.8267 24.1457 81.8727 24.2607 81.8632 24.4134L82.1737 46.6396C82.1643 46.7923 82.1082 46.9363 82.0055 47.0715C81.9284 47.1729 81.8156 47.2337 81.6668 47.254L76.5804 47.9468ZM96.639 25.8092C96.6296 25.962 96.5735 26.1059 96.4708 26.2411C96.3938 26.3425 96.2809 26.4033 96.1322 26.4236L93.6782 26.7579C93.6187 26.766 93.5633 26.8038 93.5119 26.8714C93.4862 26.9052 93.4774 26.9518 93.4856 27.0113L93.6427 37.806C93.6333 37.9588 93.6469 38.169 93.6835 38.4367C93.7688 39.0613 93.9616 39.4744 94.2619 39.6758C94.5918 39.8733 95.0225 39.9206 95.5538 39.818L95.8662 39.7754C96.0149 39.7552 96.142 39.7984 96.2475 39.9053C96.3489 39.9823 96.3949 40.0973 96.3855 40.25L96.4476 44.6953C96.4382 44.848 96.3821 44.992 96.2794 45.1272C96.2023 45.2286 96.0895 45.2894 95.9407 45.3097L94.2006 45.5467C92.2969 45.806 90.8157 45.7199 89.7568 45.2885C88.694 44.8274 88.0528 43.7937 87.8333 42.1875C87.8048 41.9793 87.7838 41.6035 87.7701 41.06L87.596 27.8136C87.5757 27.6648 87.506 27.5986 87.387 27.6148L85.9593 27.8093C85.8105 27.8295 85.6855 27.8011 85.584 27.7241C85.4785 27.6172 85.4305 27.4874 85.4399 27.3347L85.3842 23.9338C85.3936 23.7811 85.4369 23.654 85.5139 23.5526C85.6166 23.4174 85.7424 23.3397 85.8911 23.3194L87.3189 23.125C87.4676 23.1047 87.5318 23.0202 87.5115 22.8715L87.4593 17.8341C87.4688 17.6813 87.512 17.5543 87.589 17.4529C87.6918 17.3177 87.8175 17.24 87.9662 17.2197L92.8296 16.5573C92.9783 16.537 93.1054 16.5803 93.2109 16.6871C93.3123 16.7642 93.3583 16.8791 93.3489 17.0319L93.401 22.0692C93.4213 22.218 93.5059 22.2822 93.6546 22.2619L96.064 21.9337C96.2127 21.9135 96.3398 21.9568 96.4453 22.0636C96.5467 22.1407 96.5927 22.2556 96.5833 22.4083L96.639 25.8092Z" fill="#F8DFFF"/>
<path d="M5.67024 45C4.98586 51.8807 3.78162 54.3212 0 55.8503C3.75628 58.4556 4.80662 60.9496 5.67024 66.3861C6.98256 60.9147 8.13984 58.5276 11.183 55.8503C8.20349 54.2665 7.04077 51.7349 5.67024 45Z" fill="url(#paint0_linear_540_419)"/>
<path d="M67.2316 7.44323C67.2316 8.87972 66.065 10.0453 64.6247 10.0453C63.1844 10.0453 62.0178 8.87972 62.0178 7.44323C62.0178 6.00674 63.1844 4.84119 64.6247 4.84119C66.065 4.84119 67.2316 6.00674 67.2316 7.44323Z" stroke="#8EE297" stroke-width="0.750499"/>
<path d="M99.2892 58.0571C99.2892 59.4936 98.1226 60.6592 96.6823 60.6592C95.242 60.6592 94.0754 59.4936 94.0754 58.0571C94.0754 56.6206 95.242 55.4551 96.6823 55.4551C98.1226 55.4551 99.2892 56.6206 99.2892 58.0571Z" stroke="#8EE297" stroke-width="0.750499"/>
<path d="M35.9198 20.4688C35.9198 21.2887 35.2539 21.9544 34.4312 21.9544C33.6085 21.9544 32.9426 21.2887 32.9426 20.4688C32.9426 19.649 33.6085 18.9833 34.4312 18.9833C35.2539 18.9833 35.9198 19.649 35.9198 20.4688Z" stroke="#EEDB98" stroke-width="0.750499"/>
<path d="M61.2674 62.8952C61.2674 63.7151 60.6016 64.3808 59.7789 64.3808C58.9562 64.3808 58.2903 63.7151 58.2903 62.8952C58.2903 62.0754 58.9562 61.4097 59.7789 61.4097C60.6016 61.4097 61.2674 62.0754 61.2674 62.8952Z" stroke="#EEDB98" stroke-width="0.750499"/>
<g filter="url(#filter0_df_540_419)">
<path d="M12.5625 24.0669V25.1503C12.5625 25.2162 12.5887 25.2794 12.6354 25.326C12.6821 25.3726 12.7454 25.3988 12.8114 25.3988C12.8774 25.3988 12.9407 25.3726 12.9874 25.326C13.0341 25.2794 13.0603 25.2162 13.0603 25.1503V24.0669C13.0603 24.001 13.0341 23.9377 12.9874 23.8911C12.9407 23.8445 12.8774 23.8184 12.8114 23.8184C12.7454 23.8184 12.6821 23.8445 12.6354 23.8911C12.5887 23.9377 12.5625 24.001 12.5625 24.0669Z" fill="white"/>
<path d="M12.5625 27.1416V28.225C12.5625 28.2909 12.5887 28.3541 12.6354 28.4007C12.6821 28.4473 12.7454 28.4735 12.8114 28.4735C12.8774 28.4735 12.9407 28.4473 12.9874 28.4007C13.0341 28.3541 13.0603 28.2909 13.0603 28.225V27.1416C13.0603 27.0757 13.0341 27.0125 12.9874 26.9659C12.9407 26.9192 12.8774 26.8931 12.8114 26.8931C12.7454 26.8931 12.6821 26.9192 12.6354 26.9659C12.5887 27.0125 12.5625 27.0757 12.5625 27.1416Z" fill="white"/>
<path d="M12.3447 26.2478L12.8773 27.0748L13.2766 26.4545L12.8773 25.214L12.3447 26.2478Z" fill="white" stroke="white" stroke-width="0.750499"/>
<path d="M14.4265 25.8959H13.3446C13.2786 25.8959 13.2153 25.922 13.1686 25.9686C13.1219 26.0152 13.0957 26.0784 13.0957 26.1442C13.0957 26.2101 13.1219 26.2733 13.1686 26.3198C13.2153 26.3664 13.2786 26.3926 13.3446 26.3926H14.4265C14.4925 26.3926 14.5558 26.3664 14.6025 26.3198C14.6492 26.2733 14.6754 26.2101 14.6754 26.1442C14.6754 26.0784 14.6492 26.0152 14.6025 25.9686C14.5558 25.922 14.4925 25.8959 14.4265 25.8959Z" fill="white"/>
<path d="M12.2814 26.3926C12.3474 26.3926 12.4107 26.3664 12.4574 26.3198C12.5041 26.2733 12.5303 26.2101 12.5303 26.1442C12.5303 26.0784 12.5041 26.0152 12.4574 25.9686C12.4107 25.922 12.3474 25.8959 12.2814 25.8959H11.1962C11.1302 25.8959 11.0668 25.922 11.0202 25.9686C10.9735 26.0152 10.9473 26.0784 10.9473 26.1442C10.9473 26.2101 10.9735 26.2733 11.0202 26.3198C11.0668 26.3664 11.1302 26.3926 11.1962 26.3926H12.2814Z" fill="white"/>
</g>
<g filter="url(#filter1_df_540_419)">
<path d="M95.8137 42.8573V40.6904C95.8137 40.6583 95.8265 40.6274 95.8494 40.6045C95.8723 40.5816 95.9036 40.5686 95.9363 40.5686C95.969 40.5686 96.0002 40.5816 96.0232 40.6045C96.0461 40.6274 96.0588 40.6583 96.0588 40.6904V42.8573C96.0588 42.8894 96.0461 42.9203 96.0232 42.9432C96.0002 42.9661 95.969 42.979 95.9363 42.979C95.9036 42.979 95.8723 42.9661 95.8494 42.9432C95.8265 42.9203 95.8137 42.8894 95.8137 42.8573Z" fill="white" stroke="white" stroke-width="0.750499"/>
<path d="M95.8137 49.0068V46.8399C95.8137 46.8078 95.8265 46.7769 95.8494 46.754C95.8723 46.7311 95.9036 46.7181 95.9363 46.7181C95.969 46.7181 96.0002 46.7311 96.0232 46.754C96.0461 46.7769 96.0588 46.8078 96.0588 46.8399V49.0068C96.0588 49.0389 96.0461 49.0698 96.0232 49.0927C96.0002 49.1156 95.969 49.1286 95.9363 49.1286C95.9036 49.1286 95.8723 49.1156 95.8494 49.0927C95.8265 49.0698 95.8137 49.0389 95.8137 49.0068Z" fill="white" stroke="white" stroke-width="0.750499"/>
<path d="M95.0049 45.0521L96.0699 46.7061L96.8687 45.4656L96.0699 42.9845L95.0049 45.0521Z" fill="white" stroke="white" stroke-width="0.750499"/>
<path d="M97.0027 44.7235H99.1665C99.1993 44.7235 99.2305 44.7365 99.2535 44.7594C99.2764 44.7822 99.2891 44.813 99.2891 44.845C99.2891 44.8769 99.2764 44.9077 99.2535 44.9306C99.2305 44.9534 99.1993 44.9664 99.1665 44.9664H97.0027C96.9699 44.9664 96.9387 44.9534 96.9157 44.9306C96.8928 44.9077 96.8801 44.8769 96.8801 44.845C96.8801 44.813 96.8928 44.7822 96.9157 44.7594C96.9387 44.7365 96.9699 44.7235 97.0027 44.7235Z" fill="white" stroke="white" stroke-width="0.750499"/>
<path d="M94.9642 44.9306C94.9413 44.9534 94.91 44.9664 94.8772 44.9664H92.7068C92.674 44.9664 92.6428 44.9534 92.6198 44.9306C92.5969 44.9077 92.5842 44.8769 92.5842 44.845C92.5842 44.813 92.5969 44.7822 92.6198 44.7594C92.6428 44.7365 92.674 44.7235 92.7068 44.7235H94.8772C94.91 44.7235 94.9413 44.7365 94.9642 44.7594C94.9871 44.7822 94.9998 44.813 94.9998 44.845C94.9998 44.8769 94.9871 44.9077 94.9642 44.9306Z" fill="white" stroke="white" stroke-width="0.750499"/>
</g>
<path d="M105.985 10C105.625 13.6219 104.991 14.9066 103 15.7115C104.977 17.0829 105.53 18.3957 105.985 21.2574C106.676 18.3773 107.285 17.1208 108.887 15.7115C107.318 14.8778 106.706 13.5452 105.985 10Z" fill="url(#paint1_linear_540_419)"/>
<defs>
<filter id="filter0_df_540_419" x="6.44427" y="19.3154" width="18.7385" height="19.6651" filterUnits="userSpaceOnUse" color-interpolation-filters="sRGB">
<feFlood flood-opacity="0" result="BackgroundImageFix"/>
<feColorMatrix in="SourceAlpha" type="matrix" values="0 0 0 0 0 0 0 0 0 0 0 0 0 0 0 0 0 0 127 0" result="hardAlpha"/>
<feOffset dx="3.002" dy="3.002"/>
<feGaussianBlur stdDeviation="3.7525"/>
<feComposite in2="hardAlpha" operator="out"/>
<feColorMatrix type="matrix" values="0 0 0 0 0.898039 0 0 0 0 0.52549 0 0 0 0 0.905882 0 0 0 0.3 0"/>
<feBlend mode="normal" in2="BackgroundImageFix" result="effect1_dropShadow_540_419"/>
<feBlend mode="normal" in="SourceGraphic" in2="effect1_dropShadow_540_419" result="shape"/>
<feGaussianBlur stdDeviation="0.37525" result="effect2_foregroundBlur_540_419"/>
</filter>
<filter id="filter1_df_540_419" x="87.706" y="35.6904" width="22.4651" height="24.3204" filterUnits="userSpaceOnUse" color-interpolation-filters="sRGB">
<feFlood flood-opacity="0" result="BackgroundImageFix"/>
<feColorMatrix in="SourceAlpha" type="matrix" values="0 0 0 0 0 0 0 0 0 0 0 0 0 0 0 0 0 0 127 0" result="hardAlpha"/>
<feOffset dx="3.002" dy="3.002"/>
<feGaussianBlur stdDeviation="3.7525"/>
<feComposite in2="hardAlpha" operator="out"/>
<feColorMatrix type="matrix" values="0 0 0 0 0.898039 0 0 0 0 0.52549 0 0 0 0 0.905882 0 0 0 0.3 0"/>
<feBlend mode="normal" in2="BackgroundImageFix" result="effect1_dropShadow_540_419"/>
<feBlend mode="normal" in="SourceGraphic" in2="effect1_dropShadow_540_419" result="shape"/>
<feGaussianBlur stdDeviation="0.37525" result="effect2_foregroundBlur_540_419"/>
</filter>
<linearGradient id="paint0_linear_540_419" x1="3.35489" y1="51.1407" x2="11.1659" y2="62.3174" gradientUnits="userSpaceOnUse">
<stop stop-color="#69F977"/>
<stop offset="0.494" stop-color="#69F977"/>
<stop offset="1" stop-color="#37A441"/>
</linearGradient>
<linearGradient id="paint1_linear_540_419" x1="104.766" y1="13.2324" x2="108.878" y2="19.1157" gradientUnits="userSpaceOnUse">
<stop stop-color="#EEDB98"/>
<stop offset="0.494" stop-color="#F9C269"/>
<stop offset="1" stop-color="#A47E37"/>
</linearGradient>
</defs>
</svg>
