<svg width="91" height="90" viewBox="0 0 91 90" fill="none" xmlns="http://www.w3.org/2000/svg">
<rect x="0.342773" width="90" height="90" rx="20" fill="white" fill-opacity="0.4"/>
<path fill-rule="evenodd" clip-rule="evenodd" d="M70.2101 45C70.2101 58.807 58.9744 70 45.1148 70C31.2551 70 20.0195 58.807 20.0195 45C20.0195 31.1929 31.2551 20 45.1148 20C58.9744 20 70.2101 31.1929 70.2101 45ZM52.6434 37.5C52.6434 41.6423 49.2728 45 45.1148 45C40.9568 45 37.5862 41.6423 37.5862 37.5C37.5862 33.3579 40.9568 30 45.1148 30C49.2728 30 52.6434 33.3579 52.6434 37.5ZM45.1148 66.25C49.5918 66.25 53.7468 64.876 57.1779 62.528C58.6934 61.491 59.3408 59.5155 58.46 57.908C56.6335 54.5758 52.8697 52.5 45.1146 52.5C37.3596 52.5 33.596 54.5755 31.7695 57.908C30.8884 59.5155 31.536 61.4908 33.0514 62.5278C36.4825 64.8758 40.6376 66.25 45.1148 66.25Z" fill="white"/>
</svg>
