<svg width="44" height="45" viewBox="0 0 44 45" fill="none" xmlns="http://www.w3.org/2000/svg">
<rect y="0.246582" width="43.998" height="43.998" rx="12.2217" fill="white" fill-opacity="0.4"/>
<g clip-path="url(#clip0_468_3497)">
<path d="M12.269 32.5768H31.7269C32.893 32.5768 33.5806 31.8249 33.5806 30.72C33.5806 29.1855 32.3407 27.8044 31.2727 26.4387C30.4624 25.3798 30.2414 23.2008 30.1555 21.4361C30.0573 15.5435 28.8174 11.477 25.5397 10.0038C25.0854 8.00893 23.8087 6.41309 22.0041 6.41309C20.1872 6.41309 18.9228 8.00893 18.4562 10.0038C15.1908 11.477 13.9386 15.5435 13.8527 21.4361C13.7545 23.2008 13.5458 25.3798 12.7233 26.4387C11.6675 27.8044 10.4153 29.1855 10.4153 30.72C10.4153 31.8249 11.1151 32.5768 12.269 32.5768ZM18.2598 34.6637C18.4072 36.9042 19.9171 38.7763 22.0041 38.7763C24.0788 38.7763 25.5887 36.9042 25.7483 34.6637H18.2598Z" fill="white"/>
</g>
<defs>
<clipPath id="clip0_468_3497">
<rect width="29.332" height="29.2207" fill="white" transform="translate(7.33203 7.63525)"/>
</clipPath>
</defs>
</svg>
