<svg width="20" height="20" viewBox="0 0 20 20" fill="none" xmlns="http://www.w3.org/2000/svg">
<circle cx="10" cy="10" r="10" fill="#1D0430" fill-opacity="0.1"/>
<path d="M9.276 15.168C7.872 15.168 6.924 14.652 6.3 13.932L7.14 12.816C7.668 13.332 8.304 13.74 9.108 13.74C10.02 13.74 10.632 13.284 10.632 12.492C10.632 11.616 10.116 11.076 8.184 11.076V9.804C9.816 9.804 10.344 9.252 10.344 8.46C10.344 7.764 9.912 7.344 9.156 7.344C8.52 7.344 8.004 7.644 7.476 8.136L6.576 7.044C7.344 6.384 8.196 5.964 9.228 5.964C10.944 5.964 12.108 6.804 12.108 8.328C12.108 9.276 11.58 9.984 10.632 10.344V10.404C11.64 10.692 12.408 11.424 12.408 12.6C12.408 14.232 10.98 15.168 9.276 15.168Z" fill="white"/>
</svg>
