<svg width="20" height="20" viewBox="0 0 20 20" fill="none" xmlns="http://www.w3.org/2000/svg">
<path opacity="0.5" d="M20 10C20 15.5228 15.5228 20 10 20C4.47715 20 0 15.5228 0 10C0 4.47715 4.47715 0 10 0C15.5228 0 20 4.47715 20 10Z" fill="#F997EC"/>
<path d="M14.7416 6.25843C15.0861 6.60301 15.0861 7.16169 14.7416 7.50624L8.85919 13.3886C8.5146 13.7332 7.95601 13.7332 7.61138 13.3886L5.25843 11.0357C4.91386 10.6911 4.91386 10.1325 5.25843 9.78789C5.60301 9.4433 6.16169 9.4433 6.50627 9.78789L8.2353 11.5168L10.8645 8.88765L13.4938 6.25843C13.8384 5.91386 14.397 5.91386 14.7416 6.25843Z" fill="white"/>
</svg>
