<svg width="20" height="21" viewBox="0 0 20 21" fill="none" xmlns="http://www.w3.org/2000/svg">
<circle cx="10" cy="10.5" r="10" fill="#1D0430" fill-opacity="0.1"/>
<path d="M9.78 15.668C8.1 15.668 6.588 14.312 6.588 11.18C6.588 7.88 8.232 6.464 10.032 6.464C11.112 6.464 11.904 6.908 12.444 7.472L11.496 8.516C11.196 8.168 10.644 7.88 10.14 7.88C9.06 7.88 8.208 8.708 8.208 11.18C8.208 13.484 8.88 14.336 9.756 14.336C10.416 14.336 10.956 13.784 10.956 12.704C10.956 11.648 10.452 11.168 9.696 11.168C9.204 11.168 8.64 11.432 8.196 12.164L8.124 10.964C8.592 10.304 9.42 9.92 10.02 9.92C11.508 9.92 12.576 10.796 12.576 12.704C12.576 14.528 11.292 15.668 9.78 15.668Z" fill="white"/>
</svg>
