<svg width="20" height="20" viewBox="0 0 20 20" fill="none" xmlns="http://www.w3.org/2000/svg">
<circle cx="10" cy="10" r="10" fill="#1D0430" fill-opacity="0.1"/>
<path d="M9.312 15.168C7.908 15.168 6.972 14.616 6.3 13.956L7.128 12.84C7.62 13.332 8.256 13.74 9.072 13.74C10.008 13.74 10.644 13.152 10.644 12.096C10.644 11.064 10.044 10.488 9.156 10.488C8.628 10.488 8.34 10.62 7.824 10.956L7.008 10.428L7.26 6.12H12.012V7.596H8.784L8.616 9.48C8.964 9.324 9.276 9.24 9.684 9.24C11.172 9.24 12.42 10.116 12.42 12.06C12.42 14.028 10.944 15.168 9.312 15.168Z" fill="white"/>
</svg>
