<svg width="53" height="53" viewBox="0 0 53 53" fill="none" xmlns="http://www.w3.org/2000/svg">
<g clip-path="url(#clip0_114_244)">
<g filter="url(#filter0_d_114_244)">
<path d="M10.172 34.9719C11.6551 34.2788 12.5915 33.4429 13.8832 34.5605C15.1749 35.6781 17.3554 35.2242 18.029 33.5296C18.7027 31.8351 17.1918 31.8384 18.3613 30.4161C19.5301 28.9941 16.7213 30.7453 16.5412 31.9569C16.3616 33.1682 15.2974 31.9534 15.6467 30.8846C15.9959 29.8159 13.6139 33.4353 13.9992 30.9469C14.3843 28.4585 8.3098 35.2895 12.2126 29.9351C9.51232 31.126 9.83196 29.6109 10.4199 29.2224C11.0085 28.8336 7.77979 29.5505 9.75233 27.8626C10.649 26.9364 5.29408 27.5434 9.85243 25.9025C11.2023 25.3314 10.6648 23.7159 11.824 21.8935C12.983 20.071 14.8321 19.9758 16.8437 21.5115C18.8552 23.0473 21.0729 22.7402 20.7079 21.1418C20.3431 19.544 17.9424 20.7408 17.3554 18.5633C16.7677 16.386 14.6061 16.319 16.5977 14.2997C18.5893 12.2805 17.7594 11.0444 19.7331 11.1118C21.7061 11.1795 22.463 10.1784 23.3584 11.8176C24.2539 13.4568 25.4826 11.6819 25.356 14.0082C25.2166 16.5664 26.1115 16.0048 26.25 16.458C26.25 16.458 26.7479 18.026 26.1931 18.8317C25.4618 19.8939 24.9616 20.1725 24.8907 20.2576C25.3316 20.9044 27.5847 20.8383 27.7709 19.6103L28.1546 13.234C28.1546 13.234 24.6381 8.45837 28.8421 8.94095C30.911 9.48021 27.2297 11.715 30.6791 12.3885C32.5155 12.5151 35.7799 12.5919 37.8116 15.5508L39.792 13.9472L39.1638 12.4899L42.2717 12.8498L40.6821 16.0117L40.1063 14.676L38.3317 16.3277C38.3317 16.3277 39.5363 18.6414 39.0807 20.4039C38.4349 22.904 36.7425 24.9762 37.3708 26.4336C37.999 27.891 39.6591 26.9051 39.4022 28.6902C39.1453 30.4754 36.4283 29.2697 35.855 26.0606L30.9377 23.9677C30.9377 23.9677 29.5973 23.5191 28.2601 26.4224L27.0361 29.1059C27.0361 29.1059 29.1076 33.2898 28.415 35.3165C27.7225 37.3431 26.5712 39.219 25.2929 40.6046C22.9371 43.1594 25.773 44.6639 24.3776 45.3736C24.3776 45.3736 21.6432 45.985 21.0578 42.9975C20.4715 40.0097 21.2594 40.0209 22.1184 39.57C23.5877 38.5313 23.047 36.9011 22.3026 35.7372C21.5574 34.573 20.6856 42.6988 14.419 38.4339C11.1653 36.4547 10.3591 37.1599 9.5974 37.2718C8.83515 37.3845 8.68854 35.6658 10.172 34.9719ZM35.5642 24.9714C35.5604 24.6491 35.5279 24.825 35.9669 22.9615C36.4057 21.0979 35.1573 19.4127 35.1573 19.4127C33.4301 21.8585 31.5748 23.234 31.5748 23.234L35.5642 24.9714ZM30.1729 20.5448L34.2918 17.6116C33.0251 12.9187 29.0516 13.6834 29.0516 13.6834L28.8105 19.7011C29.7576 19.6437 30.1729 20.5448 30.1729 20.5448Z" fill="white"/>
</g>
</g>
<defs>
<filter id="filter0_d_114_244" x="-2.0105" y="2.90674" width="54.2822" height="56.5184" filterUnits="userSpaceOnUse" color-interpolation-filters="sRGB">
<feFlood flood-opacity="0" result="BackgroundImageFix"/>
<feColorMatrix in="SourceAlpha" type="matrix" values="0 0 0 0 0 0 0 0 0 0 0 0 0 0 0 0 0 0 127 0" result="hardAlpha"/>
<feOffset dy="4"/>
<feGaussianBlur stdDeviation="5"/>
<feComposite in2="hardAlpha" operator="out"/>
<feColorMatrix type="matrix" values="0 0 0 0 0.427959 0 0 0 0 0.253128 0 0 0 0 0.471667 0 0 0 0.2 0"/>
<feBlend mode="normal" in2="BackgroundImageFix" result="effect1_dropShadow_114_244"/>
<feBlend mode="normal" in="SourceGraphic" in2="effect1_dropShadow_114_244" result="shape"/>
</filter>
<clipPath id="clip0_114_244">
<rect width="40" height="40" fill="white" transform="matrix(-0.918315 0.39585 0.39585 0.918315 36.7327 0)"/>
</clipPath>
</defs>
</svg>
