<svg width="32" height="32" viewBox="0 0 32 32" fill="none" xmlns="http://www.w3.org/2000/svg">
<path fill-rule="evenodd" clip-rule="evenodd" d="M13.5173 2.42002C14.1145 2.24087 14.7453 2.2038 15.3594 2.3118C15.9735 2.41979 16.5538 2.66984 17.0541 3.04199C17.5544 3.41415 17.9607 3.8981 18.2407 4.45521C18.5207 5.01233 18.6665 5.62718 18.6666 6.25069V25.7494C18.6665 26.3729 18.5207 26.9877 18.2407 27.5448C17.9607 28.1019 17.5544 28.5859 17.0541 28.958C16.5538 29.3302 15.9735 29.5803 15.3594 29.6882C14.7453 29.7962 14.1145 29.7592 13.5173 29.58L5.51729 27.18C4.69343 26.9329 3.97117 26.4267 3.45767 25.7367C2.94416 25.0467 2.66677 24.2095 2.66663 23.3494V8.65069C2.66677 7.79055 2.94416 6.95337 3.45767 6.26333C3.97117 5.5733 4.69343 5.06717 5.51729 4.82002L13.5173 2.42002ZM20 5.33335C20 4.97973 20.1404 4.64059 20.3905 4.39054C20.6405 4.1405 20.9797 4.00002 21.3333 4.00002H25.3333C26.3942 4.00002 27.4116 4.42145 28.1617 5.17159C28.9119 5.92174 29.3333 6.93915 29.3333 8.00002V9.33335C29.3333 9.68698 29.1928 10.0261 28.9428 10.2762C28.6927 10.5262 28.3536 10.6667 28 10.6667C27.6463 10.6667 27.3072 10.5262 27.0571 10.2762C26.8071 10.0261 26.6666 9.68698 26.6666 9.33335V8.00002C26.6666 7.6464 26.5261 7.30726 26.2761 7.05721C26.0261 6.80716 25.6869 6.66669 25.3333 6.66669H21.3333C20.9797 6.66669 20.6405 6.52621 20.3905 6.27616C20.1404 6.02611 20 5.68698 20 5.33335ZM28 21.3334C28.3536 21.3334 28.6927 21.4738 28.9428 21.7239C29.1928 21.9739 29.3333 22.3131 29.3333 22.6667V24C29.3333 25.0609 28.9119 26.0783 28.1617 26.8284C27.4116 27.5786 26.3942 28 25.3333 28H21.3333C20.9797 28 20.6405 27.8595 20.3905 27.6095C20.1404 27.3594 20 27.0203 20 26.6667C20 26.3131 20.1404 25.9739 20.3905 25.7239C20.6405 25.4738 20.9797 25.3334 21.3333 25.3334H25.3333C25.6869 25.3334 26.0261 25.1929 26.2761 24.9428C26.5261 24.6928 26.6666 24.3536 26.6666 24V22.6667C26.6666 22.3131 26.8071 21.9739 27.0571 21.7239C27.3072 21.4738 27.6463 21.3334 28 21.3334ZM12 14.6667C11.6463 14.6667 11.3072 14.8072 11.0571 15.0572C10.8071 15.3073 10.6666 15.6464 10.6666 16C10.6666 16.3536 10.8071 16.6928 11.0571 16.9428C11.3072 17.1929 11.6463 17.3334 12 17.3334H12.0013C12.3549 17.3334 12.6941 17.1929 12.9441 16.9428C13.1941 16.6928 13.3346 16.3536 13.3346 16C13.3346 15.6464 13.1941 15.3073 12.9441 15.0572C12.6941 14.8072 12.3549 14.6667 12.0013 14.6667H12Z" fill="white"/>
<path d="M21.3334 16H28M28 16L25.3334 13.3334M28 16L25.3334 18.6667" stroke="white" stroke-width="2.66667" stroke-linecap="round" stroke-linejoin="round"/>
</svg>
