<svg width="269" height="269" viewBox="0 0 269 269" fill="none" xmlns="http://www.w3.org/2000/svg">
<g style="mix-blend-mode:hard-light" filter="url(#filter0_f_477_4312)">
<circle cx="134.5" cy="134.5" r="116.5" fill="#F997EC" fill-opacity="0.1"/>
</g>
<g style="mix-blend-mode:hard-light" filter="url(#filter1_f_477_4312)">
<rect x="38.1272" y="38.1252" width="192.749" height="192.749" rx="96.3744" stroke="#F997EC" stroke-width="1.4179"/>
</g>
<g style="mix-blend-mode:hard-light" filter="url(#filter2_f_477_4312)">
<rect x="38.3453" y="38.3433" width="192.312" height="192.312" rx="96.1562" stroke="#F997EC" stroke-width="1.85418"/>
</g>
<g style="mix-blend-mode:hard-light" filter="url(#filter3_ddi_477_4312)">
<rect x="38.1272" y="38.1252" width="192.749" height="192.749" rx="96.3744" stroke="#F997EC" stroke-opacity="0.2" stroke-width="1.4179"/>
</g>
<g filter="url(#filter4_f_477_4312)">
<rect x="37.8542" y="37.8528" width="193.294" height="193.294" rx="96.647" stroke="#F997EC" stroke-width="0.872554"/>
</g>
<g filter="url(#filter5_f_477_4312)">
<rect x="37.9966" y="37.9951" width="193.009" height="193.009" rx="96.5047" stroke="white" stroke-width="1.15723"/>
</g>
<g clip-path="url(#clip0_477_4312)">
<path d="M109 124.325C109 132.05 116.473 140.155 123.329 145.965C127.997 149.921 130.332 151.899 134.5 151.899C138.668 151.899 141.003 149.921 145.671 145.965C152.527 140.155 160 132.05 160 124.325C160 109.212 145.974 103.57 134.5 115.244C123.025 103.57 109 109.212 109 124.325Z" fill="#FFB5EF" fill-opacity="0.8"/>
<g filter="url(#filter6_i_477_4312)">
<path fill-rule="evenodd" clip-rule="evenodd" d="M140.39 189.08L143.416 183.967C145.763 180.001 146.937 178.019 148.822 176.922C150.707 175.826 153.08 175.785 157.827 175.704C164.835 175.582 169.23 175.153 172.916 173.626C179.755 170.794 185.188 165.36 188.021 158.521C190.146 153.392 190.146 146.889 190.146 133.885V128.302C190.146 110.029 190.146 100.893 186.033 94.1813C183.731 90.4257 180.574 87.2681 176.818 84.9667C170.106 80.8538 160.97 80.8538 142.697 80.8538H125.951C107.678 80.8538 98.5411 80.8538 91.8294 84.9667C88.0738 87.2681 84.9163 90.4257 82.6149 94.1813C78.5019 100.893 78.5019 110.029 78.5019 128.302V133.885C78.5019 146.889 78.5019 153.392 80.6265 158.521C83.4593 165.36 88.8928 170.794 95.7318 173.626C99.4178 175.153 103.813 175.582 110.82 175.704C115.567 175.785 117.941 175.826 119.826 176.922C121.711 178.019 122.884 180.001 125.232 183.967L128.258 189.08C130.955 193.636 137.693 193.636 140.39 189.08ZM109.204 123.919C109.204 133.702 121.28 144.102 128.686 149.561C131.221 151.429 132.489 152.363 134.324 152.363C136.159 152.363 137.426 151.429 139.961 149.561C147.368 144.102 159.444 133.703 159.444 123.919C159.444 108.975 145.627 103.395 134.324 114.939C123.02 103.395 109.204 108.975 109.204 123.919Z" fill="#FFA2F3" fill-opacity="0.2"/>
</g>
<path d="M187.196 158.179L188.021 158.521L187.196 158.179C184.454 164.8 179.194 170.059 172.574 172.801C169.06 174.257 164.82 174.689 157.812 174.811L157.766 174.811C155.431 174.851 153.617 174.883 152.153 175.045C150.663 175.209 149.463 175.516 148.373 176.15C147.286 176.782 146.435 177.657 145.57 178.843C144.722 180.007 143.823 181.526 142.668 183.477L142.647 183.512L142.647 183.512L139.621 188.625C137.27 192.597 131.378 192.597 129.026 188.625L126 183.512L125.979 183.476C124.824 181.525 123.925 180.006 123.077 178.843C122.213 177.657 121.362 176.783 120.275 176.15L120.275 176.15C119.185 175.516 117.984 175.209 116.494 175.045C115.031 174.883 113.216 174.851 110.881 174.811L110.836 174.811C103.828 174.689 99.5873 174.257 96.0736 172.801C89.4534 170.059 84.1938 164.8 81.4516 158.179L80.6265 158.521L81.4516 158.179C80.4419 155.742 79.921 152.942 79.6585 149.095C79.3955 145.241 79.395 140.399 79.395 133.885V128.302C79.395 119.149 79.396 112.346 79.9052 106.991C80.4131 101.649 81.4204 97.8399 83.3764 94.648L82.6149 94.1813L83.3764 94.648C85.6042 91.0126 88.6607 87.956 92.2961 85.7283L91.8384 84.9813L92.2961 85.7283C95.488 83.7722 99.2972 82.7649 104.639 82.257C109.994 81.7479 116.797 81.7469 125.951 81.7469H142.697C151.851 81.7469 158.653 81.7479 164.008 82.257C169.35 82.7649 173.16 83.7722 176.352 85.7283C179.987 87.956 183.043 91.0125 185.271 94.648C187.227 97.8399 188.235 101.649 188.743 106.991C189.252 112.346 189.253 119.149 189.253 128.302V133.885C189.253 140.399 189.252 145.241 188.989 149.095C188.727 152.942 188.206 155.742 187.196 158.179ZM108.311 123.919C108.311 129.15 111.518 134.407 115.496 138.95C119.501 143.524 124.43 147.533 128.156 150.28C128.22 150.326 128.283 150.373 128.346 150.419C130.696 152.153 132.193 153.256 134.324 153.256C136.456 153.256 137.953 152.152 140.306 150.416C140.367 150.371 140.429 150.325 140.491 150.279C144.218 147.533 149.146 143.525 153.152 138.95C157.13 134.407 160.337 129.15 160.337 123.919C160.337 116.172 156.735 110.641 151.435 108.659C146.338 106.753 139.989 108.25 134.324 113.683C128.659 108.25 122.309 106.753 117.212 108.659C111.913 110.641 108.311 116.172 108.311 123.919Z" stroke="white" stroke-opacity="0.1" stroke-width="1.7863"/>
<g style="mix-blend-mode:hard-light" filter="url(#filter7_f_477_4312)">
<ellipse cx="133.917" cy="135.652" rx="66.9863" ry="66.9861" fill="#F997EC" fill-opacity="0.1"/>
</g>
<g style="mix-blend-mode:hard-light" filter="url(#filter8_f_477_4312)">
<path d="M92.5035 85.2142L92.2002 84.7192L92.5035 85.2142C95.7528 83.223 99.6155 82.2083 104.98 81.6983C110.354 81.1874 117.174 81.1867 126.321 81.1867H143.068C152.215 81.1867 159.035 81.1874 164.409 81.6983C169.773 82.2083 173.636 83.223 176.886 85.2142C180.563 87.4677 183.655 90.5596 185.909 94.2371C187.9 97.4864 188.914 101.349 189.424 106.714C189.935 112.087 189.936 118.907 189.936 128.055V133.637C189.936 140.147 189.936 145.001 189.672 148.869C189.408 152.732 188.884 155.569 187.856 158.051C185.082 164.748 179.761 170.069 173.064 172.843C169.49 174.323 165.196 174.754 158.188 174.876L158.158 174.876C155.81 174.916 154.007 174.947 152.558 175.108C151.092 175.27 149.939 175.569 148.901 176.173C147.864 176.776 147.043 177.613 146.194 178.779C145.354 179.931 144.461 181.44 143.3 183.403L143.287 183.424L140.261 188.536C137.789 192.713 131.6 192.713 129.128 188.536L126.102 183.424L126.088 183.401C124.927 181.438 124.034 179.931 123.195 178.779C122.346 177.614 121.525 176.776 120.488 176.173L120.488 176.173C119.45 175.569 118.297 175.27 116.831 175.108C115.382 174.947 113.579 174.916 111.231 174.876L111.201 174.876C104.193 174.754 99.8987 174.323 96.3247 172.843C89.6279 170.069 84.3074 164.748 81.5336 158.051L80.9979 158.273L81.5336 158.051C80.5055 155.569 79.981 152.732 79.7174 148.869C79.4535 145.001 79.4532 140.147 79.4532 133.637V128.055C79.4532 118.907 79.4538 112.087 79.9647 106.714C80.4748 101.349 81.4894 97.4864 83.4806 94.2371L82.9997 93.9424L83.4806 94.2371C85.7341 90.5596 88.826 87.4677 92.5035 85.2142ZM108.994 123.671C108.994 128.783 112.135 133.967 116.102 138.496C120.086 143.047 124.994 147.04 128.713 149.78L128.847 149.879C131.251 151.652 132.668 152.696 134.695 152.696C136.722 152.696 138.139 151.651 140.546 149.876L140.676 149.78C140.676 149.78 140.676 149.78 140.677 149.78C144.395 147.04 149.303 143.047 153.287 138.497C157.254 133.967 160.395 128.784 160.395 123.671C160.395 116.02 156.845 110.629 151.697 108.705C146.678 106.828 140.353 108.325 134.695 113.871C129.036 108.325 122.711 106.828 117.692 108.705C112.544 110.63 108.994 116.021 108.994 123.671Z" stroke="#F997EC" stroke-width="1.1611"/>
</g>
<g style="mix-blend-mode:hard-light" filter="url(#filter9_f_477_4312)">
<path d="M81.6986 157.983L80.9972 158.273L81.6986 157.983C80.681 155.526 80.1585 152.711 79.8956 148.857C79.6322 144.996 79.6318 140.15 79.6318 133.637V128.055C79.6318 118.904 79.6326 112.094 80.1425 106.731C80.6513 101.379 81.6618 97.5469 83.6329 94.3304L82.9856 93.9337L83.6329 94.3304C85.8717 90.677 88.9434 87.6053 92.5968 85.3665L92.2002 84.7192L92.5968 85.3665C95.8133 83.3954 99.6455 82.3849 104.997 81.8761C110.36 81.3662 117.17 81.3654 126.321 81.3654H143.068C152.219 81.3654 159.029 81.3662 164.392 81.8761C169.743 82.3849 173.576 83.3954 176.792 85.3665C180.446 87.6053 183.517 90.677 185.756 94.3304C187.727 97.5469 188.738 101.379 189.247 106.731C189.757 112.094 189.757 118.904 189.757 128.055V133.637C189.757 140.15 189.757 144.996 189.493 148.857C189.231 152.711 188.708 155.526 187.691 157.983C184.935 164.636 179.649 169.922 172.996 172.678C169.456 174.144 165.193 174.576 158.185 174.697L158.146 174.698C155.805 174.738 153.996 174.769 152.538 174.93C151.059 175.094 149.879 175.397 148.811 176.018C147.745 176.638 146.907 177.497 146.049 178.674C145.205 179.833 144.308 181.347 143.151 183.304L143.134 183.333L143.133 183.333L140.107 188.445C137.704 192.506 131.685 192.506 129.282 188.445L126.256 183.333L126.237 183.302C125.08 181.346 124.184 179.832 123.34 178.674C122.482 177.497 121.644 176.638 120.578 176.018L120.578 176.018C119.51 175.397 118.33 175.094 116.85 174.93C115.393 174.769 113.584 174.738 111.243 174.698L111.204 174.697C104.197 174.576 99.9326 174.144 96.393 172.678C89.7401 169.922 84.4543 164.636 81.6986 157.983ZM108.816 123.671C108.816 128.851 111.994 134.077 115.967 138.614C119.964 143.178 124.883 147.18 128.607 149.924C128.663 149.965 128.718 150.006 128.774 150.047C131.146 151.797 132.608 152.875 134.695 152.875C136.782 152.875 138.245 151.796 140.619 150.044C140.673 150.005 140.728 149.964 140.783 149.924C144.506 147.18 149.425 143.178 153.422 138.614C157.395 134.077 160.574 128.851 160.574 123.671C160.574 115.965 156.994 110.495 151.759 108.537C146.695 106.644 140.357 108.141 134.695 113.621C129.032 108.141 122.694 106.644 117.63 108.537C112.395 110.495 108.816 115.966 108.816 123.671Z" stroke="#F997EC" stroke-width="1.51836"/>
</g>
<g style="mix-blend-mode:hard-light" filter="url(#filter10_i_477_4312)">
<path d="M92.5035 85.793L92.2002 85.298L92.5035 85.793C95.7528 83.8018 99.6155 82.7872 104.98 82.2771C110.354 81.7662 117.174 81.7656 126.321 81.7656H143.068C152.215 81.7656 159.035 81.7662 164.409 82.2771C169.773 82.7872 173.636 83.8018 176.886 85.793C180.563 88.0466 183.655 91.1385 185.909 94.8159C187.9 98.0652 188.914 101.928 189.424 107.293C189.935 112.666 189.936 119.486 189.936 128.634V134.216C189.936 140.726 189.936 145.58 189.672 149.448C189.408 153.311 188.884 156.148 187.856 158.63C185.082 165.327 179.761 170.647 173.064 173.421C169.49 174.902 165.196 175.333 158.188 175.454L158.158 175.455C155.81 175.495 154.007 175.526 152.558 175.687C151.092 175.849 149.939 176.148 148.901 176.752C147.864 177.354 147.043 178.192 146.194 179.358C145.354 180.51 144.461 182.018 143.3 183.982L143.287 184.003L140.261 189.115C137.789 193.292 131.6 193.292 129.128 189.115L126.102 184.003L126.088 183.979C124.927 182.017 124.034 180.51 123.195 179.358C122.346 178.192 121.525 177.355 120.488 176.752L120.488 176.752C119.45 176.148 118.297 175.849 116.831 175.687C115.382 175.526 113.579 175.495 111.231 175.455L111.201 175.454C104.193 175.333 99.8987 174.902 96.3247 173.421C89.6279 170.647 84.3074 165.327 81.5336 158.63L80.9979 158.852L81.5336 158.63C80.5055 156.148 79.981 153.311 79.7174 149.448C79.4535 145.58 79.4532 140.726 79.4532 134.216V128.634C79.4532 119.486 79.4538 112.666 79.9647 107.293C80.4748 101.928 81.4894 98.0652 83.4806 94.8159L82.9997 94.5212L83.4806 94.8159C85.7341 91.1385 88.826 88.0466 92.5035 85.793ZM108.994 124.25C108.994 129.362 112.135 134.546 116.102 139.075C120.086 143.626 124.994 147.619 128.713 150.359L128.847 150.458C131.251 152.231 132.668 153.275 134.695 153.275C136.722 153.275 138.139 152.23 140.546 150.455L140.676 150.359C140.676 150.359 140.676 150.359 140.677 150.359C144.395 147.619 149.303 143.626 153.287 139.075C157.254 134.546 160.395 129.362 160.395 124.25C160.395 116.599 156.845 111.208 151.697 109.283C146.678 107.407 140.353 108.904 134.695 114.45C129.036 108.904 122.711 107.407 117.692 109.283C112.544 111.208 108.994 116.599 108.994 124.25Z" stroke="#F997EC" stroke-opacity="0.2" stroke-width="1.1611"/>
</g>
<g filter="url(#filter11_f_477_4312)">
<path d="M81.5321 158.631L80.9976 158.852L81.5321 158.631C80.5039 156.148 79.9794 153.311 79.7158 149.448C79.4519 145.58 79.4516 140.726 79.4516 134.216V128.633C79.4516 119.486 79.4522 112.666 79.9631 107.292C80.4732 101.927 81.4879 98.0643 83.4793 94.8147L82.9859 94.5124L83.4793 94.8147C85.733 91.137 88.8251 88.0448 92.5029 85.7911L92.2005 85.2978L92.5029 85.7911C95.7525 83.7997 99.6155 82.785 104.98 82.275C110.354 81.764 117.174 81.7634 126.322 81.7634H143.068C152.216 81.7634 159.036 81.764 164.409 82.275C169.774 82.785 173.637 83.7997 176.887 85.7911C180.565 88.0448 183.657 91.1369 185.911 94.8147C187.902 98.0643 188.917 101.927 189.427 107.292C189.938 112.666 189.938 119.486 189.938 128.633V134.216C189.938 140.726 189.938 145.58 189.674 149.448C189.41 153.311 188.886 156.148 187.858 158.631C185.083 165.328 179.763 170.649 173.065 173.423C169.491 174.903 165.196 175.335 158.188 175.456L158.158 175.457C155.81 175.497 154.008 175.528 152.559 175.688C151.093 175.851 149.94 176.149 148.902 176.753C147.866 177.356 147.045 178.193 146.196 179.359C145.356 180.511 144.464 182.019 143.302 183.982L143.289 184.003L140.263 189.116C137.79 193.294 131.6 193.294 129.127 189.116L126.101 184.003L126.087 183.98C124.926 182.018 124.033 180.51 123.194 179.359C122.344 178.193 121.524 177.356 120.488 176.753L120.488 176.753C119.45 176.149 118.297 175.851 116.831 175.688C115.382 175.528 113.58 175.497 111.232 175.457L111.202 175.456C104.194 175.335 99.8987 174.903 96.3243 173.423C89.6271 170.649 84.3062 165.328 81.5321 158.631ZM108.996 124.25C108.996 129.361 112.137 134.544 116.104 139.074C120.088 143.624 124.996 147.617 128.714 150.357L128.848 150.456C131.253 152.229 132.669 153.273 134.695 153.273C136.722 153.273 138.139 152.228 140.546 150.453L140.676 150.357C140.676 150.357 140.676 150.357 140.676 150.357C144.394 147.617 149.302 143.624 153.286 139.074C157.252 134.544 160.393 129.361 160.393 124.25C160.393 116.6 156.843 111.21 151.696 109.285C146.678 107.409 140.354 108.905 134.695 114.452C129.036 108.905 122.712 107.409 117.694 109.285C112.546 111.21 108.996 116.6 108.996 124.25Z" stroke="#F997EC" stroke-width="1.15723"/>
</g>
<g filter="url(#filter12_f_477_4312)">
<path d="M81.3179 158.141L80.9972 158.273L81.3179 158.141C80.2761 155.626 79.7489 152.76 79.4846 148.885C79.22 145.007 79.2198 140.144 79.2198 133.637V128.055C79.2198 118.912 79.2202 112.079 79.7324 106.692C80.2441 101.31 81.2642 97.4073 83.2816 94.1151C85.5544 90.4063 88.6727 87.288 92.3816 85.0152C95.6737 82.9977 99.5763 81.9776 104.958 81.4659C110.345 80.9537 117.178 80.9534 126.321 80.9534H143.068C152.211 80.9534 159.044 80.9537 164.431 81.4659C169.813 81.9776 173.715 82.9977 177.008 85.0152C180.717 87.288 183.835 90.4063 186.108 94.1151C188.125 97.4073 189.145 101.31 189.657 106.692C190.169 112.079 190.169 118.912 190.169 128.055V133.637C190.169 140.144 190.169 145.007 189.905 148.885C189.64 152.76 189.113 155.626 188.071 158.141C185.273 164.895 179.908 170.26 173.154 173.058C169.535 174.557 165.2 174.988 158.192 175.109L158.173 175.109C155.815 175.15 154.022 175.181 152.584 175.34C151.135 175.5 150.018 175.793 149.018 176.375C148.019 176.955 147.221 177.766 146.382 178.917C145.549 180.059 144.661 181.56 143.495 183.532L143.488 183.543L140.462 188.655C137.899 192.985 131.49 192.985 128.927 188.655L125.901 183.543L125.894 183.53C124.727 181.559 123.839 180.059 123.007 178.917C122.168 177.766 121.37 176.956 120.371 176.375L120.371 176.375C119.371 175.793 118.254 175.5 116.805 175.34C115.367 175.181 113.574 175.15 111.216 175.109L111.197 175.109C104.189 174.988 99.8544 174.557 96.2354 173.058C89.4815 170.26 84.1155 164.895 81.3179 158.141ZM109.228 123.671C109.228 128.695 112.32 133.823 116.277 138.343C120.246 142.875 125.139 146.857 128.851 149.592L128.937 149.656C131.389 151.463 132.745 152.463 134.695 152.463C136.645 152.463 138.002 151.462 140.456 149.653L140.538 149.592C140.538 149.592 140.538 149.592 140.538 149.592C144.25 146.856 149.143 142.875 153.112 138.343C157.069 133.823 160.162 128.695 160.162 123.671C160.162 116.092 156.65 110.806 151.615 108.923C146.656 107.069 140.35 108.564 134.695 114.199C129.039 108.564 122.733 107.069 117.774 108.923C112.739 110.806 109.228 116.092 109.228 123.671Z" stroke="white" stroke-width="0.69434"/>
</g>
</g>
<defs>
<filter id="filter0_f_477_4312" x="0.6415" y="0.6415" width="267.717" height="267.717" filterUnits="userSpaceOnUse" color-interpolation-filters="sRGB">
<feFlood flood-opacity="0" result="BackgroundImageFix"/>
<feBlend mode="normal" in="SourceGraphic" in2="BackgroundImageFix" result="shape"/>
<feGaussianBlur stdDeviation="8.67925" result="effect1_foregroundBlur_477_4312"/>
</filter>
<filter id="filter1_f_477_4312" x="30.8741" y="30.8721" width="207.255" height="207.255" filterUnits="userSpaceOnUse" color-interpolation-filters="sRGB">
<feFlood flood-opacity="0" result="BackgroundImageFix"/>
<feBlend mode="normal" in="SourceGraphic" in2="BackgroundImageFix" result="shape"/>
<feGaussianBlur stdDeviation="3.27208" result="effect1_foregroundBlur_477_4312"/>
</filter>
<filter id="filter2_f_477_4312" x="35.2368" y="35.2349" width="198.529" height="198.53" filterUnits="userSpaceOnUse" color-interpolation-filters="sRGB">
<feFlood flood-opacity="0" result="BackgroundImageFix"/>
<feBlend mode="normal" in="SourceGraphic" in2="BackgroundImageFix" result="shape"/>
<feGaussianBlur stdDeviation="1.09069" result="effect1_foregroundBlur_477_4312"/>
</filter>
<filter id="filter3_ddi_477_4312" x="34.5824" y="36.7618" width="199.838" height="199.838" filterUnits="userSpaceOnUse" color-interpolation-filters="sRGB">
<feFlood flood-opacity="0" result="BackgroundImageFix"/>
<feColorMatrix in="SourceAlpha" type="matrix" values="0 0 0 0 0 0 0 0 0 0 0 0 0 0 0 0 0 0 127 0" result="hardAlpha"/>
<feOffset dy="1.4179"/>
<feGaussianBlur stdDeviation="0.545346"/>
<feColorMatrix type="matrix" values="0 0 0 0 0.3 0 0 0 0 0 0 0 0 0 0.26 0 0 0 0.7 0"/>
<feBlend mode="multiply" in2="BackgroundImageFix" result="effect1_dropShadow_477_4312"/>
<feColorMatrix in="SourceAlpha" type="matrix" values="0 0 0 0 0 0 0 0 0 0 0 0 0 0 0 0 0 0 127 0" result="hardAlpha"/>
<feOffset dy="2.18138"/>
<feGaussianBlur stdDeviation="1.4179"/>
<feColorMatrix type="matrix" values="0 0 0 0 0.6 0 0 0 0 0 0 0 0 0 0.6 0 0 0 1 0"/>
<feBlend mode="color-dodge" in2="effect1_dropShadow_477_4312" result="effect2_dropShadow_477_4312"/>
<feBlend mode="normal" in="SourceGraphic" in2="effect2_dropShadow_477_4312" result="shape"/>
<feColorMatrix in="SourceAlpha" type="matrix" values="0 0 0 0 0 0 0 0 0 0 0 0 0 0 0 0 0 0 127 0" result="hardAlpha"/>
<feOffset dx="-0.14179" dy="0.28358"/>
<feGaussianBlur stdDeviation="0.070895"/>
<feComposite in2="hardAlpha" operator="arithmetic" k2="-1" k3="1"/>
<feColorMatrix type="matrix" values="0 0 0 0 1 0 0 0 0 1 0 0 0 0 1 0 0 0 0.5 0"/>
<feBlend mode="normal" in2="shape" result="effect3_innerShadow_477_4312"/>
</filter>
<filter id="filter4_f_477_4312" x="37.1998" y="37.1984" width="194.603" height="194.603" filterUnits="userSpaceOnUse" color-interpolation-filters="sRGB">
<feFlood flood-opacity="0" result="BackgroundImageFix"/>
<feBlend mode="normal" in="SourceGraphic" in2="BackgroundImageFix" result="shape"/>
<feGaussianBlur stdDeviation="0.109069" result="effect1_foregroundBlur_477_4312"/>
</filter>
<filter id="filter5_f_477_4312" x="37.2725" y="37.2711" width="194.457" height="194.458" filterUnits="userSpaceOnUse" color-interpolation-filters="sRGB">
<feFlood flood-opacity="0" result="BackgroundImageFix"/>
<feBlend mode="normal" in="SourceGraphic" in2="BackgroundImageFix" result="shape"/>
<feGaussianBlur stdDeviation="0.0727128" result="effect1_foregroundBlur_477_4312"/>
</filter>
<filter id="filter6_i_477_4312" x="76.7156" y="79.0675" width="113.43" height="113.43" filterUnits="userSpaceOnUse" color-interpolation-filters="sRGB">
<feFlood flood-opacity="0" result="BackgroundImageFix"/>
<feBlend mode="normal" in="SourceGraphic" in2="BackgroundImageFix" result="shape"/>
<feColorMatrix in="SourceAlpha" type="matrix" values="0 0 0 0 0 0 0 0 0 0 0 0 0 0 0 0 0 0 127 0" result="hardAlpha"/>
<feOffset dx="-2.67945" dy="-2.67945"/>
<feGaussianBlur stdDeviation="0.893151"/>
<feComposite in2="hardAlpha" operator="arithmetic" k2="-1" k3="1"/>
<feColorMatrix type="matrix" values="0 0 0 0 0.986745 0 0 0 0 0.94902 0 0 0 0 1 0 0 0 0.25 0"/>
<feBlend mode="normal" in2="shape" result="effect1_innerShadow_477_4312"/>
</filter>
<filter id="filter7_f_477_4312" x="61.5717" y="63.3069" width="144.69" height="144.69" filterUnits="userSpaceOnUse" color-interpolation-filters="sRGB">
<feFlood flood-opacity="0" result="BackgroundImageFix"/>
<feBlend mode="normal" in="SourceGraphic" in2="BackgroundImageFix" result="shape"/>
<feGaussianBlur stdDeviation="2.67945" result="effect1_foregroundBlur_477_4312"/>
</filter>
<filter id="filter8_f_477_4312" x="73.5137" y="75.2473" width="122.362" height="122.361" filterUnits="userSpaceOnUse" color-interpolation-filters="sRGB">
<feFlood flood-opacity="0" result="BackgroundImageFix"/>
<feBlend mode="normal" in="SourceGraphic" in2="BackgroundImageFix" result="shape"/>
<feGaussianBlur stdDeviation="2.67945" result="effect1_foregroundBlur_477_4312"/>
</filter>
<filter id="filter9_f_477_4312" x="77.0863" y="78.8199" width="115.216" height="115.216" filterUnits="userSpaceOnUse" color-interpolation-filters="sRGB">
<feFlood flood-opacity="0" result="BackgroundImageFix"/>
<feBlend mode="normal" in="SourceGraphic" in2="BackgroundImageFix" result="shape"/>
<feGaussianBlur stdDeviation="0.893151" result="effect1_foregroundBlur_477_4312"/>
</filter>
<filter id="filter10_i_477_4312" x="78.7565" y="81.1851" width="111.76" height="111.76" filterUnits="userSpaceOnUse" color-interpolation-filters="sRGB">
<feFlood flood-opacity="0" result="BackgroundImageFix"/>
<feBlend mode="normal" in="SourceGraphic" in2="BackgroundImageFix" result="shape"/>
<feColorMatrix in="SourceAlpha" type="matrix" values="0 0 0 0 0 0 0 0 0 0 0 0 0 0 0 0 0 0 127 0" result="hardAlpha"/>
<feOffset dx="-0.11611" dy="0.232219"/>
<feGaussianBlur stdDeviation="0.0580548"/>
<feComposite in2="hardAlpha" operator="arithmetic" k2="-1" k3="1"/>
<feColorMatrix type="matrix" values="0 0 0 0 1 0 0 0 0 1 0 0 0 0 1 0 0 0 0.5 0"/>
<feBlend mode="normal" in2="shape" result="effect1_innerShadow_477_4312"/>
</filter>
<filter id="filter11_f_477_4312" x="78.6944" y="81.0062" width="112.001" height="112.001" filterUnits="userSpaceOnUse" color-interpolation-filters="sRGB">
<feFlood flood-opacity="0" result="BackgroundImageFix"/>
<feBlend mode="normal" in="SourceGraphic" in2="BackgroundImageFix" result="shape"/>
<feGaussianBlur stdDeviation="0.0893151" result="effect1_foregroundBlur_477_4312"/>
</filter>
<filter id="filter12_f_477_4312" x="78.7535" y="80.4871" width="111.882" height="111.882" filterUnits="userSpaceOnUse" color-interpolation-filters="sRGB">
<feFlood flood-opacity="0" result="BackgroundImageFix"/>
<feBlend mode="normal" in="SourceGraphic" in2="BackgroundImageFix" result="shape"/>
<feGaussianBlur stdDeviation="0.0595434" result="effect1_foregroundBlur_477_4312"/>
</filter>
<clipPath id="clip0_477_4312">
<rect width="134.872" height="134.872" fill="white" transform="translate(66.93 66.9299)"/>
</clipPath>
</defs>
</svg>
