<svg width="32" height="32" viewBox="0 0 32 32" fill="none" xmlns="http://www.w3.org/2000/svg">
<path d="M25.042 18.672V6.18499C25.042 4.95099 24.042 3.94899 22.806 3.94899H3.23502C2.00002 3.94799 0.999023 4.94999 0.999023 6.18499V18.672C0.999023 19.907 2.00002 20.908 3.23502 20.908H6.96402V26.045L12.668 20.908H22.805C24.042 20.908 25.042 19.907 25.042 18.672ZM28.765 8.85799H25.967C25.967 8.85799 25.967 18.83 25.967 19.767C25.967 20.704 24.751 21.909 23.814 21.909C22.877 21.909 12.869 21.964 12.869 21.964C12.869 23.199 13.87 23.95 15.105 23.95H19.414L25.036 29.052L25.029 23.95H28.765C30.001 23.95 31.001 23.199 31.001 21.964V11.032C31.001 9.79799 30.001 8.85799 28.765 8.85799Z" fill="white"/>
<path d="M8.18433 11.8579C8.18433 13.2984 9.6497 14.8099 10.9939 15.8933C11.9092 16.6311 12.367 17 13.1843 17C14.0017 17 14.4594 16.6311 15.3748 15.8933C16.719 14.8099 18.1843 13.2984 18.1843 11.8579C18.1843 9.03957 15.4342 7.98736 13.1843 10.1645C10.9344 7.98736 8.18433 9.03957 8.18433 11.8579Z" fill="#FF9EEA"/>
</svg>
