<svg width="161" height="160" viewBox="0 0 161 160" fill="none" xmlns="http://www.w3.org/2000/svg">
<g filter="url(#filter0_bdiii_233_1290)">
<rect x="30.7793" y="30" width="99.8271" height="100" rx="49.9135" fill="url(#paint0_linear_233_1290)" fill-opacity="0.3" shape-rendering="crispEdges"/>
<rect x="32.2793" y="31.5" width="96.8271" height="97" rx="48.4135" stroke="url(#paint1_linear_233_1290)" stroke-width="3" shape-rendering="crispEdges"/>
</g>
<g filter="url(#filter1_di_233_1290)">
<path fill-rule="evenodd" clip-rule="evenodd" d="M97.0729 84.5324C94.222 83.4294 91.2624 82.6559 88.2529 82.1559H88.1178C91.6411 79.7765 93.9636 75.7412 93.9636 71.1765V70.5294C93.2296 71 92.29 71.6177 90.9717 72.0324C90.5577 77.2971 86.1242 81.4706 80.7512 81.4706C75.5572 81.4706 71.2382 77.5912 70.5923 72.5588C70.5042 72.1177 70.4749 71.65 70.4749 71.1765V69.5883C70.5101 69.5853 70.5336 69.5765 70.5688 69.5706C70.8419 69.5235 71.0856 69.4618 71.3322 69.3971C71.5436 69.3441 71.752 69.2882 71.94 69.2235C72.1455 69.153 72.3422 69.0824 72.5272 69C72.7386 68.9088 72.9324 68.8147 73.1261 68.7147C73.2583 68.6412 73.3963 68.5765 73.5196 68.5029C73.7007 68.3955 73.8798 68.2847 74.0569 68.1706C74.145 68.1118 74.2477 68.0529 74.3299 68C74.4562 67.9177 74.5795 67.8441 74.7028 67.7677C75.5983 67.2059 76.4527 66.7677 78.0441 66.7647H78.05C79.4329 66.7647 80.2579 67.0794 81.0301 67.5206C81.2855 67.6677 81.538 67.8324 81.8052 68.0029C82.7183 68.5971 83.7284 69.2412 85.2816 69.5383C85.2992 69.5412 85.3109 69.55 85.3285 69.5529C85.857 69.65 86.4501 69.7059 87.1225 69.7059C87.1342 69.7059 87.143 69.7029 87.1548 69.7029C89.8413 69.6971 91.2418 68.7971 92.472 68L93.9225 67.1029V67.1L93.9371 67.0883L93.8344 66.5324L93.7727 66.1294C93.6347 65.2324 93.3764 64.3735 93.0651 63.5383C92.4221 61.8 91.4386 60.2059 90.0879 58.8559C89.3862 58.1471 88.5905 57.5294 87.7684 57.0294C85.6838 55.7089 83.2468 55 80.7512 55C75.0258 55 70.1225 58.6765 68.3021 63.8235C67.803 65.2059 67.5388 66.6765 67.5388 68.2353V71.1765C67.5388 71.6765 67.5681 72.1765 67.6298 72.6471C68.0673 76.6147 70.2781 80.0206 73.4198 82.1412H73.2876C70.3809 82.6207 67.5153 83.3647 64.7495 84.4118C61.094 85.8001 58.7305 89.1883 58.7305 93.05V98.4676L59.4263 98.8971C63.9039 101.682 71.2412 105 80.7512 105C86.0009 105 93.9636 103.944 102.079 98.8971L102.772 98.4676V93.05C102.772 89.2765 100.482 85.8559 97.0729 84.5324Z" fill="#F1E9F8"/>
<path d="M73.3287 82.6412C70.4657 83.1159 67.6464 83.8498 64.927 84.8792C61.462 86.1951 59.2305 89.3998 59.2305 93.05V98.1886L59.6889 98.4716L59.6904 98.4725C64.1134 101.224 71.3599 104.5 80.7512 104.5C85.936 104.5 93.7999 103.457 101.815 98.4725L101.816 98.4721L102.272 98.1893V93.05C102.272 89.4742 100.101 86.2443 96.8919 84.9985C94.0892 83.9142 91.177 83.1511 88.2115 82.6559H88.1178H86.484L87.838 81.7415C91.163 79.4961 93.3751 75.7202 93.461 71.4356C92.9091 71.7667 92.2456 72.1192 91.4389 72.4036C90.8484 77.7686 86.2739 81.9706 80.7512 81.9706C75.3097 81.9706 70.7838 77.9112 70.0986 72.6395C70.0045 72.16 69.9749 71.6628 69.9749 71.1765V69.5883V69.1283L70.4187 69.0912L70.4206 69.0908L70.4365 69.0872C70.449 69.0844 70.4655 69.081 70.4848 69.0777M73.3287 82.6412L70.5688 69.5706M73.3287 82.6412H73.4198H75.0542L73.6995 81.7268C70.6723 79.6835 68.5472 76.4055 68.1268 72.5923L68.1269 72.5922L68.1256 72.5821C68.0671 72.1357 68.0388 71.6576 68.0388 71.1765V68.2353C68.0388 66.7342 68.293 65.321 68.7724 63.9934L68.7735 63.9903C70.5257 59.0361 75.2448 55.5 80.7512 55.5C83.1524 55.5 85.4965 56.1821 87.5009 57.4518L87.5008 57.4519L87.5086 57.4566C88.2978 57.9366 89.061 58.5293 89.7326 59.2077L89.7345 59.2095C91.0307 60.5052 91.9765 62.0366 92.5962 63.7117L92.5966 63.7128C92.9006 64.5287 93.1474 65.3528 93.2785 66.2051L73.3287 82.6412ZM70.4848 69.0777C70.4854 69.0776 70.4859 69.0775 70.4865 69.0774L70.5688 69.5706M70.4848 69.0777C70.4845 69.0778 70.4842 69.0778 70.4839 69.0779L70.5688 69.5706M70.4848 69.0777C70.7348 69.0346 70.9606 68.9776 71.2053 68.9134L71.2107 68.912L71.2107 68.9121C71.4191 68.8599 71.6104 68.8082 71.7773 68.7508L71.7776 68.7507C71.981 68.6808 72.1602 68.6161 72.3238 68.5432L72.3291 68.5409L72.3291 68.5409C72.525 68.4564 72.7061 68.3687 72.8902 68.2738M70.5688 69.5706C70.8419 69.5235 71.0856 69.4618 71.3322 69.3971C71.5436 69.3441 71.752 69.2882 71.94 69.2235C72.1455 69.153 72.3422 69.0824 72.5272 69C72.7386 68.9088 72.9324 68.8147 73.1261 68.7147M72.8902 68.2738C72.8878 68.2751 72.8854 68.2765 72.883 68.2778L73.1261 68.7147M72.8902 68.2738C72.8924 68.2727 72.8946 68.2715 72.8968 68.2704L73.1261 68.7147M72.8902 68.2738C72.9502 68.2406 73.0114 68.2089 73.065 68.181C73.0755 68.1756 73.0856 68.1704 73.0954 68.1653C73.1613 68.131 73.2154 68.1022 73.2635 68.0735L73.2644 68.073C73.4391 67.9693 73.612 67.8624 73.7828 67.7524M73.1261 68.7147C73.1815 68.6839 73.2378 68.6547 73.2937 68.6257C73.3712 68.5855 73.4479 68.5457 73.5196 68.5029C73.7007 68.3955 73.8798 68.2847 74.0569 68.1706M73.7828 67.7524C73.7816 67.7532 73.7804 67.754 73.7792 67.7548L74.0569 68.1706M73.7828 67.7524C73.7839 67.7517 73.785 67.751 73.7861 67.7503L74.0569 68.1706M73.7828 67.7524C73.8351 67.7176 73.8891 67.6844 73.9351 67.6563C73.9429 67.6516 73.9505 67.647 73.9578 67.6425C73.997 67.6186 74.0291 67.599 74.058 67.5804M74.0569 68.1706C74.1076 68.1367 74.1631 68.1029 74.2168 68.0701C74.2564 68.046 74.295 68.0225 74.3299 68M74.3299 68L74.0567 67.5813C74.0572 67.581 74.0576 67.5807 74.058 67.5804M74.3299 68C74.4189 67.942 74.5064 67.8884 74.5934 67.835C74.6299 67.8126 74.6664 67.7903 74.7028 67.7677M74.3299 68L74.0594 67.5796C74.0589 67.5798 74.0585 67.5801 74.058 67.5804M74.058 67.5804C74.1528 67.5186 74.2495 67.4593 74.3385 67.4048C74.3731 67.3836 74.4065 67.3631 74.4382 67.3434M74.7028 67.7677L74.4371 67.3441C74.4375 67.3439 74.4378 67.3437 74.4382 67.3434M74.7028 67.7677C75.5983 67.2059 76.4527 66.7677 78.0441 66.7647H78.05C79.4329 66.7647 80.2579 67.0794 81.0301 67.5206C81.2463 67.6451 81.4604 67.7822 81.683 67.9247C81.7234 67.9506 81.7642 67.9767 81.8052 68.0029C82.7183 68.5971 83.7284 69.2412 85.2816 69.5383M74.7028 67.7677L74.4393 67.3427C74.4389 67.343 74.4386 67.3432 74.4382 67.3434M74.4382 67.3434C75.3809 66.7521 76.3273 66.2679 78.0432 66.2647L78.0441 66.2647L78.05 66.2647C79.5297 66.2647 80.4395 66.6073 81.2781 67.0865L81.2796 67.0873C81.5069 67.2182 81.7325 67.3626 81.9548 67.505C81.9947 67.5306 82.0346 67.5561 82.0743 67.5815L82.0779 67.5838L82.0779 67.5839C82.9825 68.1724 83.9228 68.7687 85.3725 69.0466M85.3725 69.0466C85.3697 69.0461 85.3668 69.0456 85.3639 69.0451L85.2816 69.5383M85.3725 69.0466C85.4048 69.0525 85.4317 69.0603 85.4522 69.0671C85.4524 69.0672 85.4526 69.0673 85.4529 69.0673M85.3725 69.0466C85.3735 69.0468 85.3745 69.047 85.3755 69.0472L85.2816 69.5383M85.2816 69.5383C85.2904 69.5397 85.2977 69.5427 85.305 69.5456C85.3124 69.5485 85.3197 69.5515 85.3285 69.5529C85.857 69.65 86.4501 69.7059 87.1225 69.7059C87.1284 69.7059 87.1335 69.7051 87.1386 69.7044C87.1438 69.7037 87.1489 69.7029 87.1548 69.7029M93.9371 67.0883L93.8344 66.5324L93.7727 66.1294L93.2786 66.2054L93.3402 66.608L93.3413 66.6156L93.3427 66.6232L93.3843 66.8479M93.9371 67.0883L93.8336 66.9592L93.6595 66.6777L93.6248 66.6991L93.6242 66.6983L93.6176 66.7036L93.3843 66.8479M93.9371 67.0883L93.9225 67.1V67.1029M93.9371 67.0883L93.9161 67.0921L93.9158 67.0922L93.9207 67.1L93.9225 67.1029M93.3843 66.8479L93.4225 67.0547V67.1V67.1029H93.4314L93.4455 67.1791L93.8577 67.1029H93.9225M93.3843 66.8479L92.209 67.5748L92.209 67.5747L92.2002 67.5804C90.9968 68.36 89.6956 69.1974 87.1537 69.2029M87.1537 69.2029C87.1311 69.203 87.1118 69.2044 87.0969 69.2059M87.1537 69.2029L87.1548 69.7029M87.1537 69.2029C87.154 69.2029 87.1544 69.2029 87.1548 69.2029V69.7029M87.0969 69.2059C86.4777 69.2045 85.9343 69.1536 85.4529 69.0673M87.0969 69.2059C87.0962 69.2059 87.0955 69.206 87.0949 69.2061C87.0873 69.2068 87.081 69.2076 87.0765 69.2082L87.0688 69.2093L87.0793 69.2081C87.0893 69.207 87.1043 69.2059 87.1225 69.2059C87.114 69.2059 87.1054 69.2059 87.0969 69.2059ZM85.4529 69.0673C85.4634 69.0709 85.4722 69.0742 85.4785 69.0765L85.4894 69.0809M85.4529 69.0673C85.4415 69.0653 85.4302 69.0632 85.4189 69.0612M87.1548 69.7029C89.8413 69.6971 91.2418 68.7971 92.472 68L93.9225 67.1029M85.4894 69.0809C85.4867 69.0798 85.4814 69.0778 85.4743 69.0755C85.4612 69.0711 85.4423 69.0655 85.4189 69.0612M85.4894 69.0809L85.4909 69.0814C85.4933 69.0824 85.4917 69.0817 85.4894 69.0809ZM85.4189 69.0612L85.4189 69.0611L85.4103 69.0597C85.4132 69.0602 85.4161 69.0606 85.4189 69.0612ZM93.8905 70.5763C93.7554 70.663 93.6135 70.7541 93.4636 70.8476L93.9636 70.5294C93.9394 70.5449 93.9151 70.5605 93.8905 70.5763Z" stroke="white" stroke-opacity="0.2"/>
</g>
<defs>
<filter id="filter0_bdiii_233_1290" x="0.779297" y="0" width="159.827" height="160" filterUnits="userSpaceOnUse" color-interpolation-filters="sRGB">
<feFlood flood-opacity="0" result="BackgroundImageFix"/>
<feGaussianBlur in="BackgroundImageFix" stdDeviation="15"/>
<feComposite in2="SourceAlpha" operator="in" result="effect1_backgroundBlur_233_1290"/>
<feColorMatrix in="SourceAlpha" type="matrix" values="0 0 0 0 0 0 0 0 0 0 0 0 0 0 0 0 0 0 127 0" result="hardAlpha"/>
<feOffset/>
<feGaussianBlur stdDeviation="15"/>
<feComposite in2="hardAlpha" operator="out"/>
<feColorMatrix type="matrix" values="0 0 0 0 0.484633 0 0 0 0 0 0 0 0 0 0.781667 0 0 0 0.15 0"/>
<feBlend mode="normal" in2="effect1_backgroundBlur_233_1290" result="effect2_dropShadow_233_1290"/>
<feBlend mode="normal" in="SourceGraphic" in2="effect2_dropShadow_233_1290" result="shape"/>
<feColorMatrix in="SourceAlpha" type="matrix" values="0 0 0 0 0 0 0 0 0 0 0 0 0 0 0 0 0 0 127 0" result="hardAlpha"/>
<feOffset dx="-5" dy="-5"/>
<feGaussianBlur stdDeviation="10"/>
<feComposite in2="hardAlpha" operator="arithmetic" k2="-1" k3="1"/>
<feColorMatrix type="matrix" values="0 0 0 0 1 0 0 0 0 1 0 0 0 0 1 0 0 0 0.3 0"/>
<feBlend mode="normal" in2="shape" result="effect3_innerShadow_233_1290"/>
<feColorMatrix in="SourceAlpha" type="matrix" values="0 0 0 0 0 0 0 0 0 0 0 0 0 0 0 0 0 0 127 0" result="hardAlpha"/>
<feOffset dy="4"/>
<feGaussianBlur stdDeviation="100"/>
<feComposite in2="hardAlpha" operator="arithmetic" k2="-1" k3="1"/>
<feColorMatrix type="matrix" values="0 0 0 0 0.38 0 0 0 0 0 0 0 0 0 1 0 0 0 0.2 0"/>
<feBlend mode="normal" in2="effect3_innerShadow_233_1290" result="effect4_innerShadow_233_1290"/>
<feColorMatrix in="SourceAlpha" type="matrix" values="0 0 0 0 0 0 0 0 0 0 0 0 0 0 0 0 0 0 127 0" result="hardAlpha"/>
<feOffset dy="10"/>
<feGaussianBlur stdDeviation="25"/>
<feComposite in2="hardAlpha" operator="arithmetic" k2="-1" k3="1"/>
<feColorMatrix type="matrix" values="0 0 0 0 1 0 0 0 0 1 0 0 0 0 1 0 0 0 0.5 0"/>
<feBlend mode="normal" in2="effect4_innerShadow_233_1290" result="effect5_innerShadow_233_1290"/>
</filter>
<filter id="filter1_di_233_1290" x="48.7305" y="51" width="64.041" height="74" filterUnits="userSpaceOnUse" color-interpolation-filters="sRGB">
<feFlood flood-opacity="0" result="BackgroundImageFix"/>
<feColorMatrix in="SourceAlpha" type="matrix" values="0 0 0 0 0 0 0 0 0 0 0 0 0 0 0 0 0 0 127 0" result="hardAlpha"/>
<feOffset dy="10"/>
<feGaussianBlur stdDeviation="5"/>
<feComposite in2="hardAlpha" operator="out"/>
<feColorMatrix type="matrix" values="0 0 0 0 0 0 0 0 0 0.0196078 0 0 0 0 0.521569 0 0 0 0.1 0"/>
<feBlend mode="normal" in2="BackgroundImageFix" result="effect1_dropShadow_233_1290"/>
<feBlend mode="normal" in="SourceGraphic" in2="effect1_dropShadow_233_1290" result="shape"/>
<feColorMatrix in="SourceAlpha" type="matrix" values="0 0 0 0 0 0 0 0 0 0 0 0 0 0 0 0 0 0 127 0" result="hardAlpha"/>
<feOffset dx="-6" dy="-6"/>
<feGaussianBlur stdDeviation="2"/>
<feComposite in2="hardAlpha" operator="arithmetic" k2="-1" k3="1"/>
<feColorMatrix type="matrix" values="0 0 0 0 0.988235 0 0 0 0 0.94902 0 0 0 0 1 0 0 0 0.25 0"/>
<feBlend mode="normal" in2="shape" result="effect2_innerShadow_233_1290"/>
</filter>
<linearGradient id="paint0_linear_233_1290" x1="130.606" y1="30" x2="30.6065" y2="129.827" gradientUnits="userSpaceOnUse">
<stop stop-color="#E7FBFF"/>
<stop offset="0.496" stop-color="white"/>
<stop offset="1" stop-color="#DBFBFF" stop-opacity="0"/>
</linearGradient>
<linearGradient id="paint1_linear_233_1290" x1="30.7793" y1="30" x2="130.779" y2="129.827" gradientUnits="userSpaceOnUse">
<stop stop-color="#00F0FF" stop-opacity="0.2"/>
<stop offset="0.0719383" stop-color="#00F0FF" stop-opacity="0.03"/>
<stop offset="0.460841" stop-color="white" stop-opacity="0.3"/>
<stop offset="0.538621" stop-color="white" stop-opacity="0.03"/>
<stop offset="0.88993" stop-color="#97E5FE" stop-opacity="0"/>
<stop offset="0.974192" stop-color="#00D1FF" stop-opacity="0.3"/>
</linearGradient>
</defs>
</svg>
