<svg width="50" height="50" viewBox="0 0 50 50" fill="none" xmlns="http://www.w3.org/2000/svg">
<path d="M25 45C35.3553 45 43.75 36.6053 43.75 26.25C43.75 15.8947 35.3553 7.5 25 7.5C14.6447 7.5 6.25 15.8947 6.25 26.25C6.25 36.6053 14.6447 45 25 45Z" fill="#616161"/>
<path d="M35.5864 34.1339H25V16.1824C25 16.1824 25.8162 21.2887 28.8082 25.039C30.5389 27.2085 34.0099 27.2171 35.7705 25.0687C36.837 23.7674 37.4848 22.0668 37.865 20.0831" fill="#FCD462"/>
<path d="M14.4145 34.1336H25.0009V16.1821C25.0009 16.1821 24.1847 21.2884 21.1927 25.0388C19.462 27.2083 15.991 27.2168 14.2302 25.0685C13.1638 23.7672 12.5161 22.0665 12.1357 20.0828" fill="#FCD462"/>
<path d="M36.2756 34.1331H13.7246V35.4923H36.2756V34.1331Z" fill="#FCD462"/>
<path d="M24.9997 17.8891C25.9336 17.8891 26.6908 17.132 26.6908 16.198C26.6908 15.2641 25.9336 14.507 24.9997 14.507C24.0657 14.507 23.3086 15.2641 23.3086 16.198C23.3086 17.132 24.0657 17.8891 24.9997 17.8891Z" fill="#FCD462"/>
<path d="M37.6325 22.6703C38.5665 22.6703 39.3236 21.9131 39.3236 20.9792C39.3236 20.0452 38.5665 19.2881 37.6325 19.2881C36.6985 19.2881 35.9414 20.0452 35.9414 20.9792C35.9414 21.9131 36.6985 22.6703 37.6325 22.6703Z" fill="#FCD462"/>
<path d="M12.3659 22.6703C13.2999 22.6703 14.057 21.9131 14.057 20.9792C14.057 20.0452 13.2999 19.2881 12.3659 19.2881C11.4319 19.2881 10.6748 20.0452 10.6748 20.9792C10.6748 21.9131 11.4319 22.6703 12.3659 22.6703Z" fill="#FCD462"/>
</svg>
