<svg width="30" height="30" viewBox="0 0 30 30" fill="none" xmlns="http://www.w3.org/2000/svg">
<circle cx="15" cy="15" r="15" fill="#EAE7EE"/>
<path d="M20.8403 19.2146C20.8376 19.2135 20.8349 19.2124 20.8321 19.2113C20.4752 19.0767 20.126 18.9779 19.8185 18.8937C19.6137 18.8378 19.4294 18.7884 19.2743 18.7411C19.096 17.8214 19.2511 16.3136 19.993 14.0875C20.4783 12.6316 22.8241 5 15.4143 5C8.00443 5 10.5139 12.5868 10.8355 14.0875C11.2339 15.9466 11.8196 17.8662 11.5783 18.7135C11.2151 18.8399 10.8033 19.0049 10.3735 19.2575C8.88201 18.9382 6.59837 20.4008 7.06068 23.1751C7.10818 23.5066 7.80669 23.7876 8.80201 24.0145C8.87818 24.0423 8.9533 24.0707 9.03576 24.0986C10.4243 24.5683 12.7115 24.9992 15.4143 25C17.6783 24.9997 19.5892 24.7059 20.9531 24.337C21.295 24.2444 21.6019 24.1472 21.873 24.0481C22.9492 23.8157 23.7181 23.5235 23.7678 23.1751C24.1919 20.6307 22.3064 19.19 20.8403 19.2146ZM19.4338 22.3363C19.224 22.3363 17.3716 21.6866 15.4143 22.4556C13.457 21.6866 11.6045 22.3363 11.3948 22.3363C11.2279 22.3363 11.0625 20.5218 10.8249 19.7105C11.4289 19.3814 11.998 19.2282 12.4756 19.0611C12.7893 18.9491 13.0517 18.8309 13.2585 18.6341C13.3609 18.5357 13.4455 18.4156 13.4996 18.2799C13.5539 18.1442 13.5782 17.9962 13.5779 17.8419C13.5779 17.5156 13.5779 17.1076 13.5779 16.5487V16.4304L13.499 16.3428C13.0796 15.8756 12.5116 15.2557 12.3147 14.1534L12.2836 13.9772L12.1154 13.9171C12.0083 13.8789 11.9267 13.8398 11.8554 13.7904C11.7503 13.7162 11.655 13.6149 11.5436 13.4071C11.4336 13.2007 11.3169 12.8923 11.1894 12.4448C11.1335 12.249 11.1135 12.097 11.1135 11.9839C11.1138 11.8528 11.1389 11.7758 11.1646 11.7275C11.2034 11.657 11.2509 11.627 11.3115 11.6027C11.353 11.5869 11.397 11.5809 11.4221 11.5787L11.72 11.6421C11.8311 11.819 11.8841 11.9905 11.8841 11.9905C11.8841 11.9905 11.6744 11.3614 12.2336 10.5225C12.7787 9.705 15.1169 10.4133 16.5942 8.3132C18.0379 10.0163 18.0704 8.89703 18.5949 9.68367C19.1542 10.5225 18.9445 11.9905 18.9445 11.9905C18.9445 11.9905 19.0056 11.795 19.1329 11.6061L19.3915 11.5785C19.4109 11.5779 19.5089 11.5875 19.5736 11.6306C19.6088 11.653 19.6375 11.6792 19.6637 11.7276C19.6894 11.7759 19.7145 11.8527 19.7151 11.984C19.7151 12.097 19.6948 12.2489 19.6391 12.4449C19.4695 13.0423 19.3174 13.3897 19.1779 13.5825C19.108 13.6796 19.0441 13.7408 18.9731 13.7905C18.9018 13.84 18.8202 13.879 18.7132 13.9172L18.545 13.9773L18.5139 14.1534C18.317 15.2558 17.749 15.8757 17.3296 16.3429L17.2507 16.4305V16.5487C17.2507 17.108 17.2507 17.5157 17.2507 17.842C17.2501 18.0449 17.329 18.227 17.4372 18.3725C17.6007 18.5921 17.8279 18.7546 18.0753 18.8963C18.3232 19.0372 18.5944 19.153 18.8494 19.2486C19.1542 19.3616 19.5425 19.4506 19.967 19.5746C19.9911 19.5817 20.0157 19.5893 20.0397 19.5964C19.7825 20.3353 19.6088 22.3363 19.4338 22.3363Z" fill="#360F22"/>
</svg>
