<svg width="42" height="32" viewBox="0 0 42 32" fill="none" xmlns="http://www.w3.org/2000/svg">
<rect x="13.9824" y="17.4783" width="3.49566" height="3.49566" fill="#FC90B1"/>
<rect x="17.4785" y="17.4783" width="3.49566" height="3.49566" fill="#FC90B1"/>
<rect x="20.9741" y="17.4783" width="3.49566" height="3.49566" fill="#FC90B1"/>
<rect x="20.9741" y="13.9827" width="3.49566" height="3.49566" fill="#FC90B1"/>
<rect x="20.9741" y="10.4871" width="3.49566" height="3.49566" fill="#FC90B1"/>
<rect x="17.4785" y="3.72876" width="3.49566" height="3.49566" fill="#BE476B"/>
<rect x="13.9824" y="0.233154" width="3.49566" height="3.49566" fill="#BE476B"/>
<rect x="10.4868" y="0.233154" width="3.49566" height="3.49566" fill="#BE476B"/>
<rect x="6.99121" y="3.49561" width="3.49566" height="3.49566" fill="#BE476B"/>
<rect x="3.49561" y="7.22437" width="3.49566" height="3.49566" fill="#BE476B"/>
<rect x="3.49561" y="10.4871" width="3.49566" height="3.49566" fill="#BE476B"/>
<rect x="6.99121" y="13.9827" width="3.49566" height="3.49566" fill="#BE476B"/>
<rect x="10.4868" y="17.4783" width="3.49566" height="3.49566" fill="#BE476B"/>
<rect x="13.9824" y="20.9739" width="3.49566" height="3.49566" fill="#BE476B"/>
<rect x="17.4785" y="24.4697" width="3.49566" height="3.49566" fill="#BE476B"/>
<rect x="20.9741" y="27.9653" width="3.49566" height="3.49566" fill="#BE476B"/>
<rect x="24.4697" y="24.4697" width="3.49566" height="3.49566" fill="#BE476B"/>
<rect x="27.9653" y="20.9739" width="3.49566" height="3.49566" fill="#BE476B"/>
<rect x="31.4609" y="17.4783" width="3.49566" height="3.49566" fill="#BE476B"/>
<rect x="34.9565" y="13.9827" width="3.49566" height="3.49566" fill="#BE476B"/>
<rect x="38.4521" y="10.4871" width="3.49566" height="3.49566" fill="#BE476B"/>
<rect x="38.4521" y="7.22437" width="3.49566" height="3.49566" fill="#BE476B"/>
<rect x="34.9565" y="3.49561" width="3.49566" height="3.49566" fill="#BE476B"/>
<rect x="31.4609" width="3.49566" height="3.49566" fill="#BE476B"/>
<rect x="27.9653" width="3.49566" height="3.49566" fill="#BE476B"/>
<rect x="24.4697" y="3.49561" width="3.49566" height="3.49566" fill="#BE476B"/>
<rect x="20.9741" y="7.22437" width="3.49566" height="3.49566" fill="#BE476B"/>
<rect x="13.9824" y="3.72876" width="3.49566" height="3.49566" fill="#FC90B1"/>
<rect x="10.4868" y="3.72876" width="3.49566" height="3.49566" fill="#FC90B1"/>
<rect x="6.99121" y="6.99121" width="3.49566" height="3.49566" fill="#FC90B1"/>
<rect x="13.9824" y="6.99121" width="3.49566" height="3.49566" fill="#FFDBF7"/>
<rect x="10.4868" y="10.4871" width="3.49566" height="3.49566" fill="#FFDBF7"/>
<rect x="10.4868" y="6.99121" width="3.49566" height="3.49566" fill="#FC90B1"/>
<rect x="17.4785" y="7.22437" width="3.49566" height="3.49566" fill="#FC90B1"/>
<rect x="17.4785" y="10.4871" width="3.49566" height="3.49566" fill="#FC90B1"/>
<rect x="17.4785" y="13.9827" width="3.49566" height="3.49566" fill="#FC90B1"/>
<rect x="13.9824" y="13.9827" width="3.49566" height="3.49566" fill="#FC90B1"/>
<rect x="13.9824" y="10.4871" width="3.49566" height="3.49566" fill="#FC90B1"/>
<rect x="10.4868" y="13.9827" width="3.49566" height="3.49566" fill="#FC90B1"/>
<rect x="6.99121" y="10.4871" width="3.49566" height="3.49566" fill="#FC90B1"/>
<rect x="20.9741" y="24.4697" width="3.49566" height="3.49566" fill="#FC90B1"/>
<rect x="24.4697" y="20.9739" width="3.49566" height="3.49566" fill="#FC90B1"/>
<rect x="20.9741" y="20.9739" width="3.49566" height="3.49566" fill="#FC90B1"/>
<rect x="17.4785" y="20.9739" width="3.49566" height="3.49566" fill="#FC90B1"/>
<rect x="27.9653" y="17.4783" width="3.49566" height="3.49566" fill="#FC90B1"/>
<rect x="27.9653" y="13.9827" width="3.49566" height="3.49566" fill="#FC90B1"/>
<rect x="27.9653" y="10.4871" width="3.49566" height="3.49566" fill="#FC90B1"/>
<rect x="24.4697" y="6.99121" width="3.49566" height="3.49566" fill="#FC90B1"/>
<rect x="24.4697" y="10.4871" width="3.49566" height="3.49566" fill="#FC90B1"/>
<rect x="24.4697" y="13.9827" width="3.49566" height="3.49566" fill="#FC90B1"/>
<rect x="24.4697" y="17.4783" width="3.49566" height="3.49566" fill="#FC90B1"/>
<rect x="27.9653" y="6.99121" width="3.49566" height="3.49566" fill="#FC90B1"/>
<rect x="27.9653" y="3.49561" width="3.49566" height="3.49566" fill="#FC90B1"/>
<rect x="31.4609" y="3.49561" width="3.49566" height="3.49566" fill="#FC90B1"/>
<rect x="31.4609" y="6.99121" width="3.49566" height="3.49566" fill="#FC90B1"/>
<rect x="31.4609" y="10.4871" width="3.49566" height="3.49566" fill="#FC90B1"/>
<rect x="31.4609" y="13.9827" width="3.49566" height="3.49566" fill="#FC90B1"/>
<rect x="34.9565" y="6.99121" width="3.49566" height="3.49566" fill="#FC90B1"/>
<rect x="34.9565" y="10.4871" width="3.49566" height="3.49566" fill="#FC90B1"/>
<rect x="17.4785" y="27.9653" width="3.49566" height="3.49566" fill="#6D204A"/>
<rect x="13.9824" y="24.4697" width="3.49566" height="3.49566" fill="#6D204A"/>
<rect x="20.9741" y="3.72876" width="3.49566" height="3.49566" fill="#6D204A"/>
<rect x="10.4868" y="20.9739" width="3.49566" height="3.49566" fill="#6D204A"/>
<rect x="6.99121" y="17.4783" width="3.49566" height="3.49566" fill="#6D204A"/>
<rect x="3.49561" y="13.9827" width="3.49566" height="3.49566" fill="#6D204A"/>
<rect y="10.4871" width="3.49566" height="3.49566" fill="#6D204A"/>
<rect y="7.22437" width="3.49566" height="3.49566" fill="#6D204A"/>
<rect x="3.49561" y="3.72876" width="3.49566" height="3.49566" fill="#6D204A"/>
<rect x="6.99121" y="0.233154" width="3.49566" height="3.49566" fill="#6D204A"/>
<rect x="24.4697" width="3.49566" height="3.49566" fill="#6D204A"/>
</svg>
