<svg width="30" height="30" viewBox="0 0 30 30" fill="none" xmlns="http://www.w3.org/2000/svg">
<circle cx="15" cy="15" r="15" fill="#EAE7EE"/>
<path d="M22.267 20.861C21.8468 20.0952 21.1962 19.6345 20.5707 19.3269C19.9442 19.0197 19.3244 18.8541 18.952 18.704C18.6567 18.5869 18.3348 18.4039 18.1053 18.2057C17.9903 18.1079 17.8993 18.0063 17.8446 17.9178C17.7881 17.8289 17.7709 17.7599 17.7709 17.7136C17.7709 17.397 17.7709 17.2538 17.7709 16.7723C18.1661 16.3025 18.734 15.5753 18.9668 14.4217C19.0486 14.3826 19.1292 14.3385 19.2066 14.2804C19.4003 14.1381 19.5642 13.9315 19.703 13.6504C19.8432 13.3679 19.9669 13.0069 20.099 12.513C20.1657 12.2623 20.1971 12.0448 20.1971 11.8509C20.1971 11.6275 20.154 11.434 20.0748 11.2765C20.0068 11.1392 19.9136 11.0404 19.8173 10.9671C21.0959 7.92 19.4545 5.46417 19.4545 5.46417L19.9363 4.14166C19.9363 4.14166 17.8719 4.28859 16.0373 4.06833C10.7368 3.43242 10.4406 7.39903 10.4406 9.1621C10.4406 10.2184 10.5884 10.8323 10.7164 11.1666C10.6905 11.2029 10.6626 11.2346 10.641 11.2768C10.5622 11.434 10.5191 11.6279 10.5191 11.8512C10.5197 12.0448 10.5503 12.2623 10.6175 12.513C10.7944 13.1707 10.9539 13.595 11.1605 13.9069C11.264 14.0617 11.3813 14.186 11.5093 14.2804C11.5873 14.3385 11.6679 14.3826 11.7491 14.4217C11.9824 15.5746 12.5501 16.3022 12.9453 16.772C12.9453 17.2535 12.9453 17.397 12.9453 17.7136C12.9461 17.7531 12.9275 17.8255 12.8661 17.919C12.7768 18.0591 12.6016 18.2259 12.398 18.367C12.1951 18.509 11.9641 18.6292 11.7701 18.7019C11.5178 18.797 11.1555 18.9029 10.7589 19.0526C10.1633 19.2779 9.48041 19.6023 8.93369 20.185C8.38611 20.7654 7.99678 21.6163 8.00002 22.7844C8.00002 22.9329 8.00611 23.0871 8.01893 23.2458C8.02709 23.3455 8.05963 23.4279 8.09893 23.4981C8.17486 23.6289 8.27697 23.7304 8.40533 23.8336C8.63026 24.0116 8.94244 24.1868 9.34834 24.3596C10.5617 24.8744 12.6145 25.3537 15.3583 25.3543C17.5877 25.354 19.362 25.0369 20.5993 24.6423C21.2178 24.4447 21.7011 24.2291 22.0483 24.0156C22.2225 23.9084 22.3628 23.8022 22.4737 23.6866C22.5289 23.6288 22.5773 23.5686 22.6171 23.498C22.657 23.4278 22.6896 23.3455 22.6977 23.2461C22.7102 23.087 22.7161 22.9336 22.7161 22.7857C22.7166 22.0074 22.5472 21.3702 22.267 20.861ZM14.8648 24.6991C14.8551 24.6988 14.8455 24.6988 14.8357 24.6988L13.8664 22.2702L13.8789 22.2808L14.7606 21.1039L14.9052 21.7535H14.9439L14.8648 24.6991ZM13.6773 21.7968L12.5655 19.0125C12.7049 18.9262 12.8419 18.8311 12.9676 18.7246C13.0444 18.6587 13.1178 18.5894 13.1849 18.5158L15.0428 19.9741L13.6773 21.7968ZM13.4465 18.138C13.508 18.0106 13.5499 17.8696 13.5505 17.7136C13.5505 17.3706 13.5505 17.2365 13.5505 16.6486V16.5244L13.473 16.4324C13.0601 15.9413 12.5012 15.2895 12.3071 14.1313L12.2762 13.9458L12.1107 13.883C12.0054 13.843 11.9254 13.8017 11.8549 13.7498C11.7516 13.6718 11.6576 13.5652 11.548 13.3472C11.44 13.1303 11.3248 12.806 11.1997 12.3353C11.1441 12.1299 11.1249 11.9699 11.1249 11.8513C11.1249 11.7131 11.1496 11.6329 11.1749 11.5816C11.2131 11.5077 11.2599 11.476 11.3196 11.4506C11.3603 11.4338 11.4033 11.4275 11.4281 11.4254L11.6629 11.4785L12.0001 12.1008C12.0001 12.1008 11.9818 9.00586 12.2754 8.77038C12.6423 8.47617 14.753 9.35817 15.3948 9.35817C16.0373 9.35817 18.0784 8.40285 18.4407 8.69209C18.862 9.02855 18.7896 12.3947 18.7896 12.3947L19.1346 11.4412L19.2761 11.425C19.3008 11.4254 19.391 11.4365 19.4524 11.4797C19.4868 11.5037 19.5153 11.5313 19.5412 11.5816C19.5662 11.6329 19.5909 11.713 19.5909 11.851C19.5915 11.9699 19.5717 12.1299 19.5168 12.3356C19.3497 12.9631 19.2002 13.3285 19.0625 13.5311C18.9939 13.6336 18.931 13.6973 18.8609 13.7498C18.791 13.8017 18.7105 13.843 18.6051 13.883L18.4396 13.9458L18.409 14.1313C18.2155 15.2895 17.6563 15.9413 17.2434 16.4324L17.1654 16.5244V16.6486C17.1654 17.2365 17.1654 17.3706 17.1654 17.7136C17.166 17.869 17.2059 18.0116 17.2667 18.1405L15.3582 19.6376L13.4465 18.138ZM15.8791 24.7016C15.8695 24.7022 15.861 24.7025 15.8511 24.7025L15.7717 21.7536H15.8119L15.9562 21.104L16.8375 22.2805L16.85 22.2702L15.8791 24.7016ZM17.0386 21.7968L15.6733 19.9744L17.5294 18.5176C17.6563 18.6559 17.8026 18.7801 17.9612 18.8917C18.0223 18.9343 18.0881 18.9693 18.1521 19.0082L17.0386 21.7968Z" fill="#360F22"/>
</svg>
