<svg width="30" height="30" viewBox="0 0 30 30" fill="none" xmlns="http://www.w3.org/2000/svg">
<path d="M18.8043 15V6.03517C18.8043 3.71237 17.2348 1.99219 14.9999 1.99219C12.7649 1.99219 11.1954 3.71237 11.1954 6.03517V15C11.1954 17.3103 12.7649 19.043 14.9999 19.043C17.2348 19.043 18.8043 17.3103 18.8043 15ZM9.13631 26.1119C8.63408 26.1119 8.19463 26.5639 8.19463 27.0661C8.19463 27.5684 8.63408 28.0079 9.13631 28.0079H20.8634C21.3656 28.0079 21.8051 27.5684 21.8051 27.0661C21.8051 26.5639 21.3656 26.1119 20.8634 26.1119H15.9415V23.3622C20.5118 22.9604 23.5378 19.5829 23.5378 14.9875V12.0368C23.5378 11.5472 23.0984 11.1203 22.6087 11.1203C22.119 11.1203 21.6921 11.5472 21.6921 12.0368V14.9875C21.6921 18.817 18.9298 21.6295 14.9999 21.6295C11.0699 21.6295 8.30761 18.817 8.30761 14.9875V12.0368C8.30761 11.5472 7.88075 11.1203 7.39106 11.1203C6.90136 11.1203 6.46191 11.5472 6.46191 12.0368V14.9875C6.46191 19.5829 9.4879 22.9604 14.0456 23.3622V26.1119H9.13631Z" fill="#616161"/>
</svg>
