<svg width="30" height="30" viewBox="0 0 30 30" fill="none" xmlns="http://www.w3.org/2000/svg">
<path d="M18.1015 13.7068V6.03517C18.1015 3.71237 16.5445 1.99219 14.3097 1.99219C12.1124 1.99219 10.5052 3.64958 10.5052 5.89706V6.09796L18.1015 13.7068ZM24.8188 25.2581C25.1955 25.6348 25.8107 25.6348 26.1749 25.2581C26.5641 24.894 26.5641 24.2662 26.1749 23.8895L5.18156 2.89621C4.8049 2.51954 4.16456 2.51954 3.80044 2.89621C3.43631 3.27292 3.43631 3.90072 3.80044 4.26479L24.8188 25.2581ZM8.4461 26.1119C7.94381 26.1119 7.49183 26.5639 7.49183 27.0661C7.49183 27.5684 7.94381 28.0079 8.4461 28.0079H20.1606C20.6629 28.0079 21.1149 27.5684 21.1149 27.0661C21.1149 26.5639 20.6629 26.1119 20.1606 26.1119H15.2513V23.3622C16.8459 23.2241 18.2396 22.7093 19.3822 21.9057L18.0387 20.5622C17.0217 21.2402 15.7535 21.6295 14.3097 21.6295C10.3671 21.6295 7.6174 18.817 7.6174 14.9875V12.0745C7.6174 11.4844 7.24074 11.1203 6.68826 11.1203C6.13578 11.1203 5.77171 11.4844 5.77171 12.0745V14.9875C5.77171 19.5829 8.78505 22.9604 13.3554 23.3622V26.1119H8.4461ZM22.835 12.0745C22.835 11.4844 22.4709 11.1203 21.9185 11.1203C21.366 11.1203 20.9893 11.4844 20.9893 12.0745V14.9875C20.9893 15.4897 20.9391 15.9668 20.8386 16.4439L22.3704 17.9632C22.6718 17.0466 22.835 16.0547 22.835 14.9875V12.0745ZM16.0423 18.5658L10.5052 13.0288V15C10.5052 17.3103 12.0622 19.043 14.3097 19.043C14.9751 19.043 15.5527 18.8672 16.0423 18.5658Z" fill="#CA63E3"/>
</svg>
