<svg width="20" height="20" viewBox="0 0 20 20" fill="none" xmlns="http://www.w3.org/2000/svg">
<rect width="2.5" height="2.5" transform="translate(2.5 2.5)" fill="#FDF1C3"/>
<rect width="2.5" height="2.5" transform="translate(0 2.5)" fill="#FDF1C3"/>
<rect width="2.5" height="2.5" transform="translate(7.5 5)" fill="#FDF1C3"/>
<rect width="2.5" height="2.5" transform="translate(7.5 7.5)" fill="#FDF1C3"/>
<rect width="2.5" height="2.5" transform="translate(0 5)" fill="#FDF1C3"/>
<rect width="2.5" height="2.5" transform="translate(0 7.5)" fill="#FDF1C3"/>
<rect width="2.5" height="2.5" transform="translate(0 10)" fill="#FDF1C3"/>
<rect width="2.5" height="2.5" transform="translate(0 12.5)" fill="#FDF1C3"/>
<rect width="2.5" height="2.5" transform="translate(2.5 5)" fill="#FDF1C3"/>
<rect width="2.5" height="2.5" transform="translate(5 5)" fill="#FDF1C3"/>
<rect width="2.5" height="2.5" transform="translate(10 7.5)" fill="#FDF1C3"/>
<rect width="2.5" height="2.5" transform="translate(2.5 7.5)" fill="#FDF1C3"/>
<rect width="2.5" height="2.5" transform="translate(12.5 7.5)" fill="#FDF1C3"/>
<rect width="2.5" height="2.5" transform="translate(5 7.5)" fill="#FDF1C3"/>
<rect width="2.5" height="2.5" transform="translate(7.5 10)" fill="#FDF1C3"/>
<rect width="2.5" height="2.5" transform="translate(7.5 12.5)" fill="#FDF1C3"/>
<rect width="2.5" height="2.5" transform="translate(10 10)" fill="#FDF1C3"/>
<rect width="2.5" height="2.5" transform="translate(2.5 10)" fill="#FDF1C3"/>
<rect width="2.5" height="2.5" transform="translate(12.5 10)" fill="#FDF1C3"/>
<rect width="2.5" height="2.5" transform="translate(5 10)" fill="#FDF1C3"/>
<rect width="2.5" height="2.5" transform="translate(10 12.5)" fill="#FFA600"/>
<rect width="2.5" height="2.5" transform="translate(2.5 12.5)" fill="#FDF1C3"/>
<rect width="2.5" height="2.5" transform="translate(12.5 12.5)" fill="#FFA600"/>
<rect width="2.5" height="2.5" transform="translate(5 12.5)" fill="#FDF1C3"/>
<rect width="2.5" height="2.5" transform="translate(0 17.5)" fill="#FFA600"/>
<rect width="2.5" height="2.5" transform="translate(0 15)" fill="#FDF1C3"/>
<rect width="2.5" height="2.5" transform="translate(2.5 15)" fill="#FDF1C3"/>
<rect width="2.5" height="2.5" transform="translate(5 15)" fill="#FFA600"/>
<rect width="2.5" height="2.5" transform="translate(7.5 15)" fill="#FFA600"/>
<rect width="2.5" height="2.5" transform="translate(2.5 17.5)" fill="#FFA600"/>
</svg>
